<?xml version="1.0" encoding="utf-8"?>
<!-- Generator: Adobe Illustrator 23.0.3, SVG Export Plug-In . SVG Version: 6.00 Build 0)  -->
<svg version="1.1" id="Layer_1" xmlns="http://www.w3.org/2000/svg" xmlns:xlink="http://www.w3.org/1999/xlink" x="0px" y="0px"
	 viewBox="0 0 512 512" style="enable-background:new 0 0 512 512;" xml:space="preserve">
<style type="text/css">
	.st0{clip-path:url(#SVGID_2_);fill:#FFFFFF;}
	.st1{clip-path:url(#SVGID_4_);fill:#FFFFFF;}
	.st2{clip-path:url(#SVGID_6_);}
	.st3{fill:#FFFFFF;}
	.st4{clip-path:url(#SVGID_8_);}
	.st5{clip-path:url(#SVGID_10_);}
	.st6{clip-path:url(#SVGID_12_);fill:#FDFDFD;}
</style>
<g>
	<defs>
		<rect id="SVGID_1_" x="-612" y="-612" width="512" height="512"/>
	</defs>
	<clipPath id="SVGID_2_">
		<use xlink:href="#SVGID_1_"  style="overflow:visible;"/>
	</clipPath>
	<path class="st0" d="M-162.2-187.7l-115.6-200.2v-126.8c21.2-6.6,35.8-25.2,35.8-47.4c0-28-23.8-50-54.1-50h-119.4
		c-30.4,0-54.1,21.9-54.1,50c0,22.2,14.4,40.8,35.4,47.4v126.8l-73.1,126.7c-0.7,1.1-1.3,2.2-1.9,3.3l-40.4,70
		c-12,20.6-13.1,42.6-2.9,60.2c10.1,17.6,29.3,27.6,52.7,27.6h288.1c23.4,0,42.5-10,52.6-27.5C-149.2-145.2-150.3-167.1-162.2-187.7
		z M-415.7-574.7h119.4c9.3,0,16.9,5.7,16.9,12.7c0,7.2-6.9,12.7-15.7,12.7h-13.2c-1.8,0-3.4,0.7-4.6,1.9l-0.4,0.4
		c-1.2,1.2-1.9,2.9-1.9,4.8v162.6c0,1.2,0.3,2.4,0.9,3.4l15.6,27h-115l15.6-27c0.6-1,0.9-2.2,0.9-3.4v-162.6c0-1.8-0.7-3.5-1.9-4.8
		l-0.4-0.4c-1.2-1.1-2.8-1.8-4.6-1.9h-13.5c-8.5,0-15.1-5.5-15.1-12.7C-432.5-569.1-425-574.7-415.7-574.7z M-191.6-146.1
		c-3.2,5.6-10.4,8.8-20.3,8.8H-500c-9.9,0-17.1-3.4-20.4-9c-2.5-4.3-2.5-10.3-0.2-16.7h54.5c7.2,0,13-5.6,13-12.5s-5.8-12.5-13-12.5
		h-40.7l14.4-25h55.7c7.1,0,13-5.6,13-12.5s-5.9-12.5-13-12.5h-41.3l14.4-25h55.3c7.2,0,13-5.6,13-12.5s-5.8-12.5-13-12.5H-449
		l13.9-24H-277l82.5,142.9C-189.4-160.3-188.3-151.8-191.6-146.1z"/>
</g>
<g>
	<defs>
		<rect id="SVGID_3_" x="-1224" y="-612" width="512" height="512"/>
	</defs>
	<clipPath id="SVGID_4_">
		<use xlink:href="#SVGID_3_"  style="overflow:visible;"/>
	</clipPath>
	<path class="st1" d="M-712-120.5c0,11.3-9.2,20.5-20.5,20.5H-968c-11.3,0-20.5-9.2-20.5-20.5s9.2-20.5,20.5-20.5h235.5
		C-721.2-139.9-712-130.7-712-120.5z M-732.5-218.8h-156.7c-11.3,0-20.5,9.2-20.5,20.5c0,11.3,9.2,20.5,20.5,20.5h156.7
		c11.3,0,20.5-9.2,20.5-20.5C-712-209.6-721.2-218.8-732.5-218.8z M-732.5-297.6h-78.8c-11.3,0-20.5,9.2-20.5,20.5
		s9.2,20.5,20.5,20.5h78.8c11.3,0,20.5-9.2,20.5-20.5C-712-288.4-721.2-297.6-732.5-297.6z M-718.1-459.4l-353.3,353.3
		c-4.1,4.1-9.2,6.1-14.3,6.1h-117.8c-11.3,0-20.5-9.2-20.5-20.5v-117.8c0-5.1,2-10.2,6.1-14.3l353.3-353.3c8.2-8.2,20.5-8.2,28.7,0
		l117.8,117.8C-710-479.9-710-467.6-718.1-459.4z M-760.1-473.8l-90.1-90.1L-1184.1-230v90.1h90.1L-760.1-473.8z"/>
</g>
<g>
	<defs>
		<rect id="SVGID_5_" y="-612" width="512" height="512"/>
	</defs>
	<clipPath id="SVGID_6_">
		<use xlink:href="#SVGID_5_"  style="overflow:visible;"/>
	</clipPath>
	<g class="st2">
		<path class="st3" d="M449.7-505.3c-0.3-4.6-2.2-8.8-5.5-12l-89.2-89.2l-0.6-0.6l-0.1-0.1c-3.5-3.2-8-4.9-12.7-4.9H94
			c-17.5,0-31.8,14.3-31.8,31.8v448.4c0,17.5,14.3,31.8,31.8,31.8h324c17.5,0,31.8-14.3,31.8-31.8v-372l0-1.1L449.7-505.3z
			 M354.6-485h57.3l0,347.1H100.1v-436.3h222.7v57.3C322.7-499.2,337-485,354.6-485z M360.6-522.8v-24.5l24.5,24.5H360.6z"/>
		<path class="st3" d="M134-433.7c0,10.4,8.5,18.9,18.9,18.9h206.1c10.4,0,18.9-8.5,18.9-18.9c0-5.1-2-9.8-5.5-13.4
			c-3.6-3.6-8.3-5.5-13.4-5.5H152.9C142.5-452.7,134-444.2,134-433.7z"/>
		<path class="st3" d="M359.1-382.4H152.9c-10.4,0-18.9,8.5-18.9,18.9c0,10.4,8.5,18.9,18.9,18.9h206.1c10.4,0,18.9-8.5,18.9-18.9
			c0-5.1-2-9.8-5.5-13.4C368.9-380.4,364.1-382.4,359.1-382.4z"/>
		<path class="st3" d="M359.1-312.1H152.9c-10.4,0-18.9,8.5-18.9,18.9s8.5,18.9,18.9,18.9h206.1c10.4,0,18.9-8.5,18.9-18.9
			c0-5.1-2-9.8-5.5-13.4C368.9-310.1,364.1-312.1,359.1-312.1z"/>
		<path class="st3" d="M256-241.8H152.9c-10.4,0-18.9,8.5-18.9,18.9c0,10.4,8.5,18.9,18.9,18.9H256c10.4,0,18.9-8.5,18.9-18.9
			C274.9-233.3,266.4-241.8,256-241.8z"/>
	</g>
</g>
<g>
	<defs>
		<rect id="SVGID_7_" x="-1224" width="512" height="512"/>
	</defs>
	<clipPath id="SVGID_8_">
		<use xlink:href="#SVGID_7_"  style="overflow:visible;"/>
	</clipPath>
	<g class="st4">
		<path class="st3" d="M-786.6,75.3L-787,75C-835.3,26.6-899.6,0-968,0c-68.4,0-132.7,26.6-181,75c-48.4,48.4-75,112.6-75,181
			c0,68.3,26.5,132.5,74.7,180.8l0.5,0.7l0.3,0.2c48.3,48,112.3,74.4,180.5,74.4s132.2-26.4,180.5-74.4l0.3-0.2l0.5-0.6
			C-738.5,388.5-712,324.3-712,256C-712,187.8-738.5,123.6-786.6,75.3z M-968,236.2c7,0,38.8,7.5,84.7,19.8
			c-45.8,12.3-77.7,19.8-84.7,19.8c-10.9,0-19.8-8.9-19.8-19.8S-978.9,236.2-968,236.2z M-857.3,117.6
			c-31.2-25-70.4-38.8-110.7-38.8s-79.4,13.7-110.7,38.8l-28-28c38.9-32.5,88-50.3,138.7-50.3c50.7,0,99.8,17.8,138.7,50.3
			L-857.3,117.6z M-1065.6,381.3c3.7-3.7,5.7-8.6,5.7-13.9c0-5.2-2-10.2-5.7-13.9c-26.1-26.1-40.4-60.7-40.4-97.6
			c0-36.9,14.4-71.5,40.4-97.6c26.1-26.1,60.7-40.4,97.6-40.4s71.5,14.4,97.6,40.4c19.6,19.6,32.6,44,37.8,70.8
			c-45.9-13-117.5-32.3-135.4-32.3c-32.5,0-59,26.5-59,59s26.5,59,59,59c17.9,0,89.5-19.3,135.4-32.3c-5.2,26.8-18.2,51.2-37.8,70.8
			c-3.7,3.7-5.7,8.6-5.7,13.9s2,10.2,5.7,13.9l41.1,41.1c-38.9,32.5-88,50.3-138.7,50.3s-99.8-17.8-138.7-50.3L-1065.6,381.3z
			 M-829.6,366.7c25-31.2,38.8-70.4,38.8-110.7s-13.7-79.4-38.8-110.7l28-28c32.5,38.9,50.3,88,50.3,138.7s-17.8,99.8-50.3,138.7
			L-829.6,366.7z M-1106.4,366.7l-28,28c-32.5-38.9-50.3-88-50.3-138.7s17.8-99.8,50.3-138.7l28,28c-25,31.2-38.8,70.4-38.8,110.7
			S-1131.5,335.4-1106.4,366.7z"/>
		<path class="st3" d="M-915.7,367.4c0-10.8-8.8-19.6-19.6-19.6h-65.3c-10.8,0-19.6,8.8-19.6,19.6s8.8,19.6,19.6,19.6h65.3
			C-924.5,387-915.7,378.2-915.7,367.4z"/>
	</g>
</g>
<g>
	<defs>
		<rect id="SVGID_9_" x="-612" width="512" height="512"/>
	</defs>
	<clipPath id="SVGID_10_">
		<use xlink:href="#SVGID_9_"  style="overflow:visible;"/>
	</clipPath>
	<g class="st5">
		<path class="st3" d="M-287.3,323.2c-10.1,0-18.4,8.2-18.4,18.4v41c0,17.9-14.6,32.5-32.5,32.5h-204.6c-17.9,0-32.5-14.6-32.5-32.5
			V129.4c0-17.9,14.6-32.5,32.5-32.5h204.7c17.9,0,32.5,14.6,32.6,32.5v41c0,10.1,8.2,18.4,18.4,18.4c10.1,0,18.4-8.2,18.4-18.4v-41
			c-0.1-38.1-31.1-69.1-69.2-69.2h-204.8c-38.1,0-69.2,31.1-69.2,69.2v253.3c0.1,38.1,31.1,69.1,69.2,69.2h204.7
			c38.1-0.1,69.1-31.1,69.2-69.2v-41C-268.9,331.5-277.1,323.2-287.3,323.2z"/>
		<path class="st3" d="M-105.4,243l-85.5-85.4c-0.4-0.5-0.9-0.9-1.3-1.3c-7.6-6.8-19.2-6.1-25.9,1.5c-6.7,7.5-6.1,19.1,1.3,25.8
			l54.2,54.2h-220.4c-10.1,0-18.4,8.2-18.4,18.4c0,10.1,8.2,18.4,18.4,18.4h220.3l-54.3,54.3l-0.1,0.1c-3.4,3.5-5.3,8-5.2,12.9
			c0,4.9,1.9,9.4,5.4,12.8v0l0.1,0.1c3.5,3.4,8.1,5.3,12.9,5.3c0,0,0.1,0,0.1,0c4.9,0,9.5-1.9,13-5.4l85.6-85.6
			C-98.2,261.8-98.2,250.1-105.4,243z"/>
	</g>
</g>
<g>
	<defs>
		<rect id="SVGID_11_" x="0" y="0" width="512" height="512"/>
	</defs>
	<clipPath id="SVGID_12_">
		<use xlink:href="#SVGID_11_"  style="overflow:visible;"/>
	</clipPath>
	<path id="ic_bar" class="st6" d="M19.2,441.6C8.6,441.6,0,433,0,422.4s8.6-19.2,19.2-19.2h217.6c10.6,0,19.2,8.6,19.2,19.2
		s-8.6,19.2-19.2,19.2H19.2z M19.2,288C8.6,288,0,279.4,0,268.8c0-10.6,8.6-19.2,19.2-19.2h345.6c10.6,0,19.2,8.6,19.2,19.2
		c0,10.6-8.6,19.2-19.2,19.2H19.2z M19.2,108.8C8.6,108.8,0,100.2,0,89.6s8.6-19.2,19.2-19.2h473.6c10.6,0,19.2,8.6,19.2,19.2
		s-8.6,19.2-19.2,19.2H19.2z"/>
</g>
</svg>
