<?xml version="1.0" encoding="utf-8"?>
<!-- Generator: Adobe Illustrator 23.0.3, SVG Export Plug-In . SVG Version: 6.00 Build 0)  -->
<svg version="1.1" id="Layer_1" xmlns="http://www.w3.org/2000/svg" xmlns:xlink="http://www.w3.org/1999/xlink" x="0px" y="0px"
	 viewBox="0 0 512 512" style="enable-background:new 0 0 512 512;" xml:space="preserve">
<style type="text/css">
	.st0{clip-path:url(#SVGID_2_);}
	.st1{fill:#EF0039;}
</style>
<g>
	<defs>
		<rect id="SVGID_1_" x="0.2" y="0" width="512" height="512"/>
	</defs>
	<clipPath id="SVGID_2_">
		<use xlink:href="#SVGID_1_"  style="overflow:visible;"/>
	</clipPath>
	<g id="ic_amedment" transform="translate(0.026 0.225)" class="st0">
		<path id="Path_243" class="st1" d="M0.5,485.1l19.5-88c0.7-3,2.1-5.8,4.1-8.2l209.8-209.8c23.6-24.7,62.2-27.4,89-6.1
			c27.9,23,31.8,64.3,8.7,92.2c-1.1,1.4-2.4,2.7-3.6,4L117.2,481c-2.1,2.3-5,3.8-8.2,4.1l-88,19.5c-8.8,2.4-17.9-2.9-20.3-11.8
			C0.1,490.3,0,487.6,0.5,485.1z M43.5,404.3l-10.2,49.1c-2.1,8.6,3.3,17.2,11.8,19.3c2.2,0.5,4.4,0.6,6.6,0.2l49.1-10.2
			l207.7-207.9c15.9-14.8,17.7-39.4,4.1-56.3c-13.5-17.4-38.6-20.6-56.1-7.1c-1.5,1.2-3,2.5-4.3,3.9L43.5,404.3z"/>
		<path id="Path_240" class="st1" d="M6.7,194.4c-3,11.7-5.1,23.7-6.1,35.8c-0.9,6.1,1.9,12.2,7.2,15.4c5,3.7,11.7,4.5,17.4,2
			c5.8-2.5,9.8-8,10.2-14.3c1-10.2,3.2-20.5,5.1-30.7c2.1-7.9-1.8-16.2-9.2-19.5c-0.8-0.8-2-1.2-3.2-1
			C18.8,180.1,9.5,185.4,6.7,194.4z"/>
		<path id="Path_241" class="st1" d="M27.2,283.5c-5.7-3-12.6-2.2-17.4,2c-4.9,3.9-7.3,10.2-6.1,16.4c2,11.3,5.1,23.5,8.2,34.8
			c2.6,8.9,12,14.1,20.9,11.4c0.2-0.1,0.4-0.1,0.6-0.2c8.9-2.6,14.1-12,11.4-20.9c-0.1-0.2-0.1-0.4-0.2-0.6
			c-3.3-9.6-5.8-19.6-7.2-29.7C36.4,290.9,32.6,285.9,27.2,283.5z"/>
		<path id="Path_242" class="st1" d="M485.6,371.4L485.6,371.4l1-1l9.2-21.5c1-2,1-4.1,2-6.1c1-2,1-4.1,2-6.1v-2
			c7.2-21.8,11.4-44.6,12.3-67.5v-0.9c0-12.3,0-23.5-1-35.8c0.2-1.2-0.2-2.4-1-3.2c-2.8-22.1-8.3-43.7-16.4-64.5v-2.1
			c-1-3.2-3.2-6.1-4.1-9.2c0-0.5-0.4-1-1-1c0,0,0,0-0.1,0c-3.3-7.4-7.1-14.5-11.3-21.5v-0.9c-11.1-20.4-25.6-38.8-43-54.2
			c0-0.5-0.4-1-1-1c0,0,0,0-0.1,0l-2-2c0,1-1,0-1-1c-5.1-4.1-10.2-9.2-15.4-13.3c-1-1-3.2-2-4.1-3.2l-3.2-3.2c-1-1-2-1-3.2-2l0,0
			c-11.3-8-23.1-15.1-35.5-21.2c-7.3-3.8-14.7-7.2-22.4-10.2l-1.1-1c-11.4-4-23-7.4-34.8-10.2h-2C287,0.9,265-0.9,243.1,0h-4.1
			c-12.1,0.7-24.1,2.4-36,5.2c-1,0-2,1-3.2,1c-21.7,4.8-42.6,12.4-62.4,22.4h-1.8c-10.2,5.1-20.5,12.3-30.7,18.4l-1.1,1.1
			C90.1,60.3,77.1,73.3,65,87V61.4c0.4-9.6-7-17.7-16.6-18.1c-9.6-0.4-17.7,7-18.1,16.6c0,0.5,0,1,0,1.5l1,75.7
			c-0.2,3.8,1.3,7.6,4.1,10.2c1.2,1.3,2.5,2.4,4.1,3.2l1,1h1c2.2,1.1,4.7,1.8,7.2,2l76.8-1c9.6-0.4,17.1-8.5,16.6-18.1
			c-0.4-9-7.6-16.3-16.6-16.6l-43,1c74.7-95.1,212-112.5,308-38.9l3.2,4.1c4.1,4.1,9.2,7.2,13.3,11.3l2,2
			c20.4,19.7,37,42.9,49.1,68.6v1c23.3,52,25.8,110.9,7.2,164.7c-1,2-1,3.2-2,5.1c-2.3,6.3-5,12.5-8.2,18.4
			c-9.8,19.7-22.1,37.9-36.8,54.2l-2,2c-4.2,4.3-8.6,8.4-13.3,12.3l-2,2c-18.2,15.7-39,28.2-61.4,36.8c-5.7,2.3-11.5,4.4-17.4,6.1
			c-24.8,8-50.8,11.4-76.8,10.2H243c-28.7-2.1-56.8-9.4-82.9-21.5c-8.2-4.1-15.4-8.2-23.6-12.3c-1,0-1-1-2-1
			c-8.4-4.2-18.6-0.7-22.7,7.6c-3.9,7.9-1.2,17.4,6.4,22c7.5,5,15.4,9.5,23.6,13.3h1c1,0,2,1,3.2,1c2,1,3.2,2,5.1,2h1
			c21.2,9.4,43.6,16,66.5,19.5l0,0c7.1,1.2,14.3,1.9,21.5,2h16.4c22.5,0,44.9-3.1,66.5-9.2h2c11.6-3.2,22.9-7.3,33.8-12.3
			c0.5,0,1-0.4,1-1c0,0,0,0,0-0.1c21-9.2,40.6-21.3,58.1-36c0.5,0,1-0.4,1-1c0,0,0,0,0-0.1l3.2-3.2c1-1,2-2,3.2-2
			c5.3-4.3,10.1-9.1,14.3-14.3l3.2-3.2l2-2c0-0.5,0.4-1,1-1c0,0,0,0,0.1,0C462.3,410.5,475.7,391.9,485.6,371.4z"/>
		
			<rect id="Rectangle_577" x="268.4" y="188.5" transform="matrix(0.7071 -0.7071 0.7071 0.7071 -81.1965 262.7859)" class="st1" width="16.4" height="81.8"/>
		
			<rect id="Rectangle_578" x="245.4" y="210.7" transform="matrix(0.7071 -0.7071 0.7071 0.7071 -103.6917 253.0175)" class="st1" width="16.4" height="81.8"/>
		
			<rect id="Rectangle_579" x="69.8" y="386.8" transform="matrix(0.7071 -0.7071 0.7071 0.7071 -279.6238 180.4383)" class="st1" width="16.4" height="81.8"/>
	</g>
</g>
</svg>
