<?xml version="1.0" encoding="utf-8"?>
<!-- Generator: Adobe Illustrator 23.0.3, SVG Export Plug-In . SVG Version: 6.00 Build 0)  -->
<svg version="1.1" id="Layer_1" xmlns="http://www.w3.org/2000/svg" xmlns:xlink="http://www.w3.org/1999/xlink" x="0px" y="0px"
	 viewBox="0 0 512 512" style="enable-background:new 0 0 512 512;" xml:space="preserve">
<style type="text/css">
	.st0{clip-path:url(#SVGID_2_);fill:#FFFFFF;}
	.st1{clip-path:url(#SVGID_4_);}
</style>
<g>
	<g>
		<defs>
			<rect id="SVGID_1_" width="512" height="512"/>
		</defs>
		<clipPath id="SVGID_2_">
			<use xlink:href="#SVGID_1_"  style="overflow:visible;"/>
		</clipPath>
		<path class="st0" d="M512,491.5c0,11.3-9.2,20.5-20.5,20.5H256c-11.3,0-20.5-9.2-20.5-20.5S244.7,471,256,471h235.5
			C502.8,472.1,512,481.3,512,491.5z M491.5,393.2H334.8c-11.3,0-20.5,9.2-20.5,20.5s9.2,20.5,20.5,20.5h156.7
			c11.3,0,20.5-9.2,20.5-20.5C512,402.4,502.8,393.2,491.5,393.2z M491.5,314.4h-78.8c-11.3,0-20.5,9.2-20.5,20.5
			s9.2,20.5,20.5,20.5h78.8c11.3,0,20.5-9.2,20.5-20.5S502.8,314.4,491.5,314.4z M505.9,152.6L152.6,505.9
			c-4.1,4.1-9.2,6.1-14.3,6.1H20.5C9.2,512,0,502.8,0,491.5V373.8c0-5.1,2-10.2,6.1-14.3L359.4,6.1c8.2-8.2,20.5-8.2,28.7,0
			l117.8,117.8C514,132.1,514,144.4,505.9,152.6z M463.9,138.2l-90.1-90.1L39.9,382v90.1H130L463.9,138.2z"/>
	</g>
</g>
<g>
	<defs>
		<rect id="SVGID_3_" y="0" width="512" height="512"/>
	</defs>
	<clipPath id="SVGID_4_">
		<use xlink:href="#SVGID_3_"  style="overflow:visible;"/>
	</clipPath>
	<path id="ic_bell" class="st1" d="M189.5,458.8h-87c-27.7,0-50.1-22.5-50.2-50.2c0-14.1,5.9-27.5,16.4-36.9
		c10.1-8.3,15.7-20.8,15.4-33.8V224.3C84,144.4,139.2,75.1,217.2,57.4c-2-5.2-3.1-10.8-3.2-16.4c0.1-22.6,18.4-40.9,41-41
		c22.8-0.4,41.6,17.8,42,40.6c0,0.1,0,0.2,0,0.3c-0.1,5.5-0.8,11-2,16.4C373,74.8,428.4,144.3,428,224.3v113.7
		c0.5,12.8,6,25,15.4,33.8c9.9,9.8,15.7,23,16.4,36.9c-0.1,27.7-22.5,50.1-50.2,50.2h-87c-7.2,31-34.7,53-66.6,53.2
		C224.2,511.7,196.7,489.7,189.5,458.8z M256.1,482.3c15.3-0.1,29.1-9.4,34.8-23.6h-69.6C226.8,473.1,240.7,482.5,256.1,482.3z
		 M113.7,224.3v113.7c-0.1,21.4-9,41.7-24.6,56.3c-4.7,3.7-7.4,9.4-7.2,15.4c0,11.3,9.2,20.4,20.5,20.5h307.2
		c11.3,0,20.4-9.2,20.5-20.5c-0.2-5.9-2.8-11.4-7.2-15.4c-15.6-14.6-24.5-35-24.6-56.3V224.3c-0.2-78.5-63.8-142.1-142.3-142.3
		C177.5,82.1,113.9,145.8,113.7,224.3z M244.9,41.9c0.1,6.2,5.1,11.2,11.3,11.3h1c5.8-0.5,10.3-5.4,10.2-11.3
		c-0.1-6.2-5.1-11.2-11.3-11.3c-6.3,0-11.4,5.1-11.4,11.3c0,0,0,0,0,0.1L244.9,41.9z M133.3,224.3c0-5.6,4.6-10.2,10.2-10.2
		c5.3-0.4,9.9,3.6,10.2,8.9c0,0.4,0,0.9,0,1.3c0,5.6-4.6,10.2-10.2,10.2c-5.7,0.1-10.3-4.5-10.4-10.2c0,0,0,0,0-0.1L133.3,224.3z
		 M148.7,190.5c-5.1-2.3-7.3-8.2-5.1-13.3c19.3-45.2,63.5-74.5,112.6-74.8c5.6,0,10.2,4.6,10.2,10.2c0,5.6-4.6,10.2-10.2,10.2
		c-41.1,0.1-78.1,24.7-94.2,62.5c-1.5,3.7-5.2,6.2-9.2,6.1c-1.5,0.2-3-0.2-4.2-1L148.7,190.5z"/>
</g>
</svg>
