<?xml version="1.0" encoding="utf-8"?>
<!-- Generator: Adobe Illustrator 23.0.3, SVG Export Plug-In . SVG Version: 6.00 Build 0)  -->
<svg version="1.1" id="Layer_1" xmlns="http://www.w3.org/2000/svg" xmlns:xlink="http://www.w3.org/1999/xlink" x="0px" y="0px"
	 viewBox="0 0 512 512" style="enable-background:new 0 0 512 512;" xml:space="preserve">
<style type="text/css">
	.st0{clip-path:url(#SVGID_2_);fill:#EF0039;}
</style>
<g>
	<defs>
		<rect id="SVGID_1_" width="512" height="512"/>
	</defs>
	<clipPath id="SVGID_2_">
		<use xlink:href="#SVGID_1_"  style="overflow:visible;"/>
	</clipPath>
	<path id="ic_comment" class="st0" d="M334.8,272.4H175.1c-9,0-16.4,7.3-16.4,16.4s7.3,16.4,16.4,16.4h159.7c9,0,16.4-7.3,16.4-16.4
		S343.9,272.4,334.8,272.4z M366.4,176H143.5c-9,0-16.4,7.3-16.4,16.4s7.3,16.4,16.4,16.4h223.9c8.9,0.1,16.2-7,16.4-15.9
		c0-0.2,0-0.3,0-0.5C383.4,183.1,375.7,175.8,366.4,176z M255,0C113.9,0-0.6,100.4-0.6,224.3c1.5,70.6,37.4,136,96.1,175.1V512
		l112.4-67.6c15.8,2.9,31.8,4.3,47.9,4.1c141.1,0,255.6-100.4,255.6-224.3S396,0,255,0z M255,415.8c-18.3,0-36.5-2-54.3-6.1
		l-75.5,45.1l1-73.6C68.9,349,32.8,289,31.1,223.3C31.1,117.8,131.3,31.8,255,31.8s223.9,86,223.9,192.5S378.7,415.8,255,415.8z"/>
</g>
</svg>
