<?xml version="1.0" encoding="utf-8"?>
<!-- Generator: Adobe Illustrator 23.0.3, SVG Export Plug-In . SVG Version: 6.00 Build 0)  -->
<svg version="1.1" id="Layer_1" xmlns="http://www.w3.org/2000/svg" xmlns:xlink="http://www.w3.org/1999/xlink" x="0px" y="0px"
	 viewBox="0 0 512 512" style="enable-background:new 0 0 512 512;" xml:space="preserve">
<style type="text/css">
	.st0{clip-path:url(#SVGID_2_);}
	.st1{fill:#FFFFFF;}
</style>
<g>
	<defs>
		<rect id="SVGID_1_" x="0" width="512" height="512"/>
	</defs>
	<clipPath id="SVGID_2_">
		<use xlink:href="#SVGID_1_"  style="overflow:visible;"/>
	</clipPath>
	<g class="st0">
		<path class="st1" d="M437.4,75.3L437,75C388.7,26.6,324.4,0,256,0C187.6,0,123.3,26.6,75,75C26.6,123.3,0,187.6,0,256
			c0,68.3,26.5,132.5,74.7,180.8l0.5,0.7l0.3,0.2c48.3,48,112.3,74.4,180.5,74.4s132.2-26.4,180.5-74.4l0.3-0.2l0.5-0.6
			C485.5,388.5,512,324.3,512,256C512,187.8,485.5,123.6,437.4,75.3z M256,236.2c7,0,38.8,7.5,84.7,19.8
			c-45.8,12.3-77.7,19.8-84.7,19.8c-10.9,0-19.8-8.9-19.8-19.8S245.1,236.2,256,236.2z M366.7,117.6c-31.2-25-70.4-38.8-110.7-38.8
			s-79.4,13.7-110.7,38.8l-28-28c38.9-32.5,88-50.3,138.7-50.3c50.7,0,99.8,17.8,138.7,50.3L366.7,117.6z M158.4,381.3
			c3.7-3.7,5.7-8.6,5.7-13.9c0-5.2-2-10.2-5.7-13.9C132.4,327.5,118,292.9,118,256c0-36.9,14.4-71.5,40.4-97.6
			c26.1-26.1,60.7-40.4,97.6-40.4s71.5,14.4,97.6,40.4c19.6,19.6,32.6,44,37.8,70.8C345.5,216.3,273.9,197,256,197
			c-32.5,0-59,26.5-59,59s26.5,59,59,59c17.9,0,89.5-19.3,135.4-32.3c-5.2,26.8-18.2,51.2-37.8,70.8c-3.7,3.7-5.7,8.6-5.7,13.9
			s2,10.2,5.7,13.9l41.1,41.1c-38.9,32.5-88,50.3-138.7,50.3s-99.8-17.8-138.7-50.3L158.4,381.3z M394.4,366.7
			c25-31.2,38.8-70.4,38.8-110.7s-13.7-79.4-38.8-110.7l28-28c32.5,38.9,50.3,88,50.3,138.7s-17.8,99.8-50.3,138.7L394.4,366.7z
			 M117.6,366.7l-28,28c-32.5-38.9-50.3-88-50.3-138.7s17.8-99.8,50.3-138.7l28,28c-25,31.2-38.8,70.4-38.8,110.7
			S92.5,335.4,117.6,366.7z"/>
		<path class="st1" d="M308.3,367.4c0-10.8-8.8-19.6-19.6-19.6h-65.3c-10.8,0-19.6,8.8-19.6,19.6s8.8,19.6,19.6,19.6h65.3
			C299.5,387,308.3,378.2,308.3,367.4z"/>
	</g>
</g>
</svg>
