<?xml version="1.0" encoding="utf-8"?>
<!-- Generator: Adobe Illustrator 23.0.3, SVG Export Plug-In . SVG Version: 6.00 Build 0)  -->
<svg version="1.1" id="Layer_1" xmlns="http://www.w3.org/2000/svg" xmlns:xlink="http://www.w3.org/1999/xlink" x="0px" y="0px"
	 viewBox="0 0 512 512" style="enable-background:new 0 0 512 512;" xml:space="preserve">
<style type="text/css">
	.st0{clip-path:url(#SVGID_2_);}
	.st1{fill:#FFFFFF;}
</style>
<g>
	<defs>
		<rect id="SVGID_1_" width="512" height="512"/>
	</defs>
	<clipPath id="SVGID_2_">
		<use xlink:href="#SVGID_1_"  style="overflow:visible;"/>
	</clipPath>
	<g class="st0">
		<path class="st1" d="M449.7,106.7c-0.3-4.6-2.2-8.8-5.5-12L355.1,5.5L354.5,5l-0.1-0.1c-3.5-3.2-8-4.9-12.7-4.9H94
			C76.5,0,62.2,14.3,62.2,31.8v448.4c0,17.5,14.3,31.8,31.8,31.8h324c17.5,0,31.8-14.3,31.8-31.8v-372l0-1.1L449.7,106.7z
			 M354.6,127h57.3l0,347.1H100.1V37.9h222.7v57.3C322.7,112.8,337,127,354.6,127z M360.6,89.2V64.6l24.5,24.5H360.6z"/>
		<path class="st1" d="M134,178.3c0,10.4,8.5,18.9,18.9,18.9h206.1c10.4,0,18.9-8.5,18.9-18.9c0-5.1-2-9.8-5.5-13.4
			c-3.6-3.6-8.3-5.5-13.4-5.5H152.9C142.5,159.3,134,167.8,134,178.3z"/>
		<path class="st1" d="M359.1,229.6H152.9c-10.4,0-18.9,8.5-18.9,18.9c0,10.4,8.5,18.9,18.9,18.9h206.1c10.4,0,18.9-8.5,18.9-18.9
			c0-5.1-2-9.8-5.5-13.4C368.9,231.6,364.1,229.6,359.1,229.6z"/>
		<path class="st1" d="M359.1,299.9H152.9c-10.4,0-18.9,8.5-18.9,18.9s8.5,18.9,18.9,18.9h206.1c10.4,0,18.9-8.5,18.9-18.9
			c0-5.1-2-9.8-5.5-13.4C368.9,301.9,364.1,299.9,359.1,299.9z"/>
		<path class="st1" d="M256,370.2H152.9c-10.4,0-18.9,8.5-18.9,18.9c0,10.4,8.5,18.9,18.9,18.9H256c10.4,0,18.9-8.5,18.9-18.9
			C274.9,378.7,266.4,370.2,256,370.2z"/>
	</g>
</g>
</svg>
