<?xml version="1.0" encoding="utf-8"?>
<!-- Generator: Adobe Illustrator 23.0.3, SVG Export Plug-In . SVG Version: 6.00 Build 0)  -->
<svg version="1.1" id="Layer_1" xmlns="http://www.w3.org/2000/svg" xmlns:xlink="http://www.w3.org/1999/xlink" x="0px" y="0px"
	 viewBox="0 0 512 512" style="enable-background:new 0 0 512 512;" xml:space="preserve">
<style type="text/css">
	.st0{clip-path:url(#SVGID_2_);}
	.st1{fill:#FFFFFF;}
</style>
<g>
	<defs>
		<rect id="SVGID_1_" width="512" height="512"/>
	</defs>
	<clipPath id="SVGID_2_">
		<use xlink:href="#SVGID_1_"  style="overflow:visible;"/>
	</clipPath>
	<g class="st0">
		<path class="st1" d="M324.7,323.2c-10.1,0-18.4,8.2-18.4,18.4v41c0,17.9-14.6,32.5-32.5,32.5H69.3c-17.9,0-32.5-14.6-32.5-32.5
			V129.4c0-17.9,14.6-32.5,32.5-32.5h204.7c17.9,0,32.5,14.6,32.6,32.5v41c0,10.1,8.2,18.4,18.4,18.4c10.1,0,18.4-8.2,18.4-18.4v-41
			c-0.1-38.1-31.1-69.1-69.2-69.2H69.2C31.1,60.2,0,91.2,0,129.4v253.3c0.1,38.1,31.1,69.1,69.2,69.2h204.7
			c38.1-0.1,69.1-31.1,69.2-69.2v-41C343.1,331.5,334.9,323.2,324.7,323.2z"/>
		<path class="st1" d="M506.6,243l-85.5-85.4c-0.4-0.5-0.9-0.9-1.3-1.3c-7.6-6.8-19.2-6.1-25.9,1.5c-6.7,7.5-6.1,19.1,1.3,25.8
			l54.2,54.2H228.9c-10.1,0-18.4,8.2-18.4,18.4c0,10.1,8.2,18.4,18.4,18.4h220.3L395,328.7l-0.1,0.1c-3.4,3.5-5.3,8-5.2,12.9
			c0,4.9,1.9,9.4,5.4,12.8v0l0.1,0.1c3.5,3.4,8.1,5.3,12.9,5.3c0,0,0.1,0,0.1,0c4.9,0,9.5-1.9,13-5.4l85.6-85.6
			C513.8,261.8,513.8,250.1,506.6,243z"/>
	</g>
</g>
</svg>
