<?xml version="1.0" encoding="utf-8"?>
<!-- Generator: Adobe Illustrator 23.0.3, SVG Export Plug-In . SVG Version: 6.00 Build 0)  -->
<svg version="1.1" id="Layer_1" xmlns="http://www.w3.org/2000/svg" xmlns:xlink="http://www.w3.org/1999/xlink" x="0px" y="0px"
	 viewBox="0 0 512 512" style="enable-background:new 0 0 512 512;" xml:space="preserve">
<style type="text/css">
	.st0{clip-path:url(#SVGID_2_);}
</style>
<g>
	<defs>
		<rect id="SVGID_1_" x="0" y="0" width="512" height="512"/>
	</defs>
	<clipPath id="SVGID_2_">
		<use xlink:href="#SVGID_1_"  style="overflow:visible;"/>
	</clipPath>
	<path class="st0" d="M496.3,0H190.5c-8.7,0-15.7,7-15.7,15.7v159.1H15.7c-8.7,0-15.7,7-15.7,15.7v305.8C0,505,7,512,15.7,512h305.8
		c8.7,0,15.7-7,15.7-15.7V337.2h159.1c8.7,0,15.7-7,15.7-15.7V15.7C512,7,505,0,496.3,0z M480.6,305.8H337.2V256
		c0-8.7-7-15.7-15.7-15.7c-8.7,0-15.7,7-15.7,15.7v49.8H256c-8.7,0-15.7,7-15.7,15.7c0,8.7,7,15.7,15.7,15.7h49.8v143.4H31.4V206.2
		h143.4V256c0,8.7,7,15.7,15.7,15.7c8.7,0,15.7-7,15.7-15.7v-49.8H256c8.7,0,15.7-7,15.7-15.7c0-8.7-7-15.7-15.7-15.7h-49.8V31.4
		h274.4V305.8z"/>
</g>
</svg>
