<?xml version="1.0" encoding="utf-8"?>
<!-- Generator: Adobe Illustrator 23.0.3, SVG Export Plug-In . SVG Version: 6.00 Build 0)  -->
<svg version="1.1" id="Layer_1" xmlns="http://www.w3.org/2000/svg" xmlns:xlink="http://www.w3.org/1999/xlink" x="0px" y="0px"
	 viewBox="0 0 512 512" style="enable-background:new 0 0 512 512;" xml:space="preserve">
<style type="text/css">
	.st0{clip-path:url(#SVGID_2_);fill:#FDFDFD;}
</style>
<g>
	<defs>
		<rect id="SVGID_1_" x="0" y="0" width="512" height="512"/>
	</defs>
	<clipPath id="SVGID_2_">
		<use xlink:href="#SVGID_1_"  style="overflow:visible;"/>
	</clipPath>
	<path id="ic_bar" class="st0" d="M19.2,441.6C8.6,441.6,0,433,0,422.4s8.6-19.2,19.2-19.2h217.6c10.6,0,19.2,8.6,19.2,19.2
		s-8.6,19.2-19.2,19.2H19.2z M19.2,288C8.6,288,0,279.4,0,268.8c0-10.6,8.6-19.2,19.2-19.2h345.6c10.6,0,19.2,8.6,19.2,19.2
		c0,10.6-8.6,19.2-19.2,19.2H19.2z M19.2,108.8C8.6,108.8,0,100.2,0,89.6s8.6-19.2,19.2-19.2h473.6c10.6,0,19.2,8.6,19.2,19.2
		s-8.6,19.2-19.2,19.2H19.2z"/>
</g>
</svg>
