<?xml version="1.0" encoding="utf-8"?>
<!-- Generator: Adobe Illustrator 23.0.3, SVG Export Plug-In . SVG Version: 6.00 Build 0)  -->
<svg version="1.1" id="Layer_1" xmlns="http://www.w3.org/2000/svg" xmlns:xlink="http://www.w3.org/1999/xlink" x="0px" y="0px"
	 viewBox="0 0 512 512" style="enable-background:new 0 0 512 512;" xml:space="preserve">
<style type="text/css">
	.st0{clip-path:url(#SVGID_2_);fill:#FFFFFF;}
</style>
<g>
	<defs>
		<rect id="SVGID_1_" x="0" width="512" height="512"/>
	</defs>
	<clipPath id="SVGID_2_">
		<use xlink:href="#SVGID_1_"  style="overflow:visible;"/>
	</clipPath>
	<path class="st0" d="M449.8,424.3L334.2,224.1V97.3c21.2-6.6,35.8-25.2,35.8-47.4c0-28-23.8-50-54.1-50H196.3
		c-30.4,0-54.1,21.9-54.1,50c0,22.2,14.4,40.8,35.4,47.4v126.8l-73.1,126.7c-0.7,1.1-1.3,2.2-1.9,3.3l-40.4,70
		c-12,20.6-13.1,42.6-2.9,60.2C69.4,501.9,88.6,512,112,512h288.1c23.4,0,42.5-10,52.6-27.5C462.8,466.8,461.7,444.9,449.8,424.3z
		 M196.3,37.3h119.4c9.3,0,16.9,5.7,16.9,12.7c0,7.2-6.9,12.7-15.7,12.7h-13.2c-1.8,0-3.4,0.7-4.6,1.9l-0.4,0.4
		c-1.2,1.2-1.9,2.9-1.9,4.8v162.6c0,1.2,0.3,2.4,0.9,3.4l15.6,27h-115l15.6-27c0.6-1,0.9-2.2,0.9-3.4V69.6c0-1.8-0.7-3.5-1.9-4.8
		l-0.4-0.4c-1.2-1.1-2.8-1.8-4.6-1.9h-13.5c-8.5,0-15.1-5.5-15.1-12.7C179.5,42.9,187,37.3,196.3,37.3z M420.4,465.9
		c-3.2,5.6-10.4,8.8-20.3,8.8H112c-9.9,0-17.1-3.4-20.4-9c-2.5-4.3-2.5-10.3-0.2-16.7H146c7.2,0,13-5.6,13-12.5s-5.8-12.5-13-12.5
		h-40.7l14.4-25h55.7c7.1,0,13-5.6,13-12.5s-5.9-12.5-13-12.5h-41.3l14.4-25h55.3c7.2,0,13-5.6,13-12.5s-5.8-12.5-13-12.5H163
		l13.9-24H335l82.5,142.9C422.6,451.7,423.7,460.2,420.4,465.9z"/>
</g>
</svg>
