<?xml version="1.0" encoding="utf-8"?>
<!-- Generator: Adobe Illustrator 23.0.3, SVG Export Plug-In . SVG Version: 6.00 Build 0)  -->
<svg version="1.1" id="Layer_1" xmlns="http://www.w3.org/2000/svg" xmlns:xlink="http://www.w3.org/1999/xlink" x="0px" y="0px"
	 viewBox="0 0 512 512" style="enable-background:new 0 0 512 512;" xml:space="preserve">
<style type="text/css">
	.st0{clip-path:url(#SVGID_2_);}
	.st1{fill:none;}
	.st2{fill:#EF0039;}
</style>
<g>
	<defs>
		<rect id="SVGID_1_" x="0.2" y="-0.5" width="512" height="512"/>
	</defs>
	<clipPath id="SVGID_2_">
		<use xlink:href="#SVGID_1_"  style="overflow:visible;"/>
	</clipPath>
	<g class="st0">
		<path id="Path_235" class="st1" d="M262,260.7c6.8,0,12.2-5.5,12.2-12.3s-5.5-12.3-12.2-12.3c-6.8,0-12.2,5.5-12.2,12.3
			c-0.3,6.5,4.8,12,11.3,12.3C261.4,260.7,261.7,260.7,262,260.7z"/>
		<path id="Path_236" class="st1" d="M253.8,384.6c0.2,26.1-8,51.6-23.4,72.7c10.4,2.1,21,3.2,31.6,3.2
			c116.1,0.3,210.5-94.2,210.8-210.9C473,132.7,379.1,37.8,263,37.6C146.9,37.3,52.5,131.6,52.2,248.4c0,10.7,1.1,21.3,3.2,31.8
			c56.4-40.6,134.8-27.5,175.2,29.2c15.6,21.9,23.8,48.3,23.4,75.2H253.8z M245.7,225.8v-81.9c0-9.1,7.3-16.4,16.3-16.4
			c9,0,16.3,7.3,16.3,16.4v81.9c6.5,5.1,10.8,12.4,12.2,20.5l56,32.8c7.5,4,10.4,13.5,6.4,21c-0.1,0.2-0.2,0.3-0.3,0.5
			c-2.9,5.1-8.4,8.3-14.3,8.2c-2.8-0.2-5.6-0.9-8.1-2l-56-32.8c-3.7,2.1-7.9,3.2-12.2,3.2c-15.7,0.1-28.5-12.6-28.6-28.4
			c0-0.1,0-0.3,0-0.4C233.6,239.3,238.2,230.9,245.7,225.8z"/>
		<path id="Path_237" class="st2" d="M262.1,277.1c4.3-0.1,8.5-1.2,12.2-3.2l55.9,32.9c2.5,1.3,5.3,2,8.1,2
			c5.8-0.2,11.2-3.3,14.3-8.2c4.3-7.2,2-16.6-5.2-21c-0.3-0.2-0.6-0.4-0.9-0.5l-56-32.8c-0.7-8.4-5.2-15.9-12.2-20.5v-81.9
			c0-9.1-7.3-16.4-16.3-16.4c-9,0-16.3,7.3-16.3,16.4v81.9c-7.7,5.4-12.2,14.2-12.2,23.6C234.2,264.8,246.8,276.9,262.1,277.1z
			 M262.1,236.1c6.5-0.3,12,4.8,12.2,11.4c0,0.3,0,0.6,0,0.9c-0.1,6.8-5.5,12.2-12.2,12.3c-6.5,0.3-12-4.8-12.2-11.4
			c0-0.3,0-0.6,0-0.9C249.9,241.6,255.4,236.2,262.1,236.1z"/>
		<path id="Path_238" class="st2" d="M262-0.5C125.3-0.3,14.6,111,14.5,248.4c0.1,21.4,2.8,42.7,8,63.5C7.7,333.2,0,358.6,0.2,384.6
			c0.2,70.3,57.1,127.2,127.1,127c25.6-0.1,50.5-7.9,71.5-22.5c20.6,5.3,41.8,8.1,63.1,8.2c136.7,1.6,248.7-108.6,250.3-246
			c1.6-137.4-108-250.1-244.6-251.7C265.7-0.5,263.8-0.5,262-0.5z M199.8,450.1c-10.5,11.5-23.4,20.5-37.7,26.6
			c-11.4,4.4-23.4,6.9-35.7,7.2c-54.5-0.1-98.6-44.5-98.7-99.2c0.3-12.3,2.7-24.4,7.1-35.9c6.1-14.4,15.1-27.3,26.5-37.9
			c18-16.1,41.1-25.2,65.2-25.6c54.1-0.3,98.3,43.5,98.7,98C225.4,408,216.3,431.9,199.8,450.1L199.8,450.1z M261.9,459.3
			c-10.6,0-21.2-1.1-31.6-3.2c14.9-21.2,23.1-46.5,23.5-72.5c0.1-70.1-56.4-127-126.1-127.1c0,0-0.1,0-0.1,0
			c-26-0.2-51.4,8.1-72.3,23.6c-2.1-10.5-3.2-21.1-3.2-31.8c0-116.5,93.9-210.9,209.8-210.9s209.8,94.4,209.8,210.9
			S377.7,459.3,261.9,459.3L261.9,459.3z"/>
		<path id="Path_239" class="st2" d="M114.3,396.8v30.7c0,6.8,5.5,12.3,12.2,12.3s12.2-5.5,12.2-12.3c0,0,0,0,0,0v-30.7h30.6
			c6.8,0,12.2-5.5,12.2-12.3c0-6.8-5.5-12.3-12.2-12.3h-30.6v-30.7c0-6.8-5.5-12.3-12.2-12.3c-6.7,0-12.2,5.5-12.2,12.3v30.7H83.7
			c-6.8,0-12.2,5.5-12.2,12.3c0,6.8,5.5,12.3,12.2,12.3H114.3z"/>
	</g>
</g>
</svg>
