<?xml version="1.0" encoding="utf-8"?>
<!-- Generator: Adobe Illustrator 23.0.3, SVG Export Plug-In . SVG Version: 6.00 Build 0)  -->
<svg version="1.1" id="Layer_1" xmlns="http://www.w3.org/2000/svg" xmlns:xlink="http://www.w3.org/1999/xlink" x="0px" y="0px"
	 viewBox="0 0 512 512" style="enable-background:new 0 0 512 512;" xml:space="preserve">
<style type="text/css">
	.st0{clip-path:url(#SVGID_2_);fill:#EF0039;}
</style>
<g>
	<defs>
		<rect id="SVGID_1_" x="-0.3" y="0" width="512" height="512"/>
	</defs>
	<clipPath id="SVGID_2_">
		<use xlink:href="#SVGID_1_"  style="overflow:visible;"/>
	</clipPath>
	<path id="ic_rejected" class="st0" d="M201.5,488.5c-13.9-14.2-21.6-33.3-21.5-53.2c-0.6-20,7.2-39.3,21.5-53.3
		c13.9-15.3,33.7-23.9,54.4-23.6c20.4,0.1,39.8,8.2,54.4,22.4c14.4,14.4,22.4,34,22.4,54.4c0,20.4-8,39.9-22.4,54.4
		c-14.5,14.2-34,22.3-54.4,22.4C235.3,511.9,215.6,503.4,201.5,488.5z M227.1,408.5c-7,7.5-11.1,17.3-11.3,27.6
		c0.2,10,4.2,19.5,11.3,26.6c7.6,7.8,17.9,12.2,28.8,12.3c10.3-1.1,20-5.4,27.6-12.3c7.7-6.7,12.2-16.4,12.3-26.6
		c-0.3-10.8-4.7-21.1-12.3-28.8c-7.4-7.2-17.3-11.3-27.6-11.3C244.9,395.8,234.3,400.4,227.1,408.5L227.1,408.5z M236.3,331.8
		c-25.2-0.1-46.3-19-49.1-44L160.5,55.3c-1.3-14.1,3.1-28.1,12.3-38.9C182.2,6,195.6,0,209.6,0h92.2c14.1,0,27.4,5.9,36.8,16.4
		c9.2,10.8,13.6,24.8,12.3,38.9l-26.6,232.4c-2.9,25-24,43.9-49.1,44H236.3z M204.5,45.1c-1,0-2,2-2,5.2l26.6,232.4
		c1,3.3,3.8,5.7,7.2,6.1h38.9c3.5-0.1,6.5-2.7,7.2-6.1L309,50.2c0-1.9-0.8-3.7-2-5.2c-1.3-1.5-3.2-2.2-5.2-2h-92.2
		C207.7,42.9,205.8,43.7,204.5,45.1L204.5,45.1z"/>
</g>
</svg>
