<?xml version="1.0" encoding="utf-8"?>
<!-- Generator: Adobe Illustrator 23.0.3, SVG Export Plug-In . SVG Version: 6.00 Build 0)  -->
<svg version="1.1" id="Layer_1" xmlns="http://www.w3.org/2000/svg" xmlns:xlink="http://www.w3.org/1999/xlink" x="0px" y="0px"
	 viewBox="0 0 512 512" style="enable-background:new 0 0 512 512;" xml:space="preserve">
<style type="text/css">
	.st0{clip-path:url(#SVGID_2_);fill:#EF0039;}
</style>
<g>
	<defs>
		<rect id="SVGID_1_" x="-0.3" y="-0.5" width="512" height="512"/>
	</defs>
	<clipPath id="SVGID_2_">
		<use xlink:href="#SVGID_1_"  style="overflow:visible;"/>
	</clipPath>
	<path id="ic_edit" class="st0" d="M44.8,511.5C20,511.3-0.1,491.2-0.3,466.4V131.1c-0.4-24,18.6-43.7,42.6-44.1c0.8,0,1.7,0,2.5,0
		H224c9.5,0.3,17.1,7.9,17.4,17.4c-0.3,9.5-7.9,17.2-17.4,17.4H44.8c-5.1,0-9.2,4.1-9.2,9.1c0,0,0,0,0,0.1v334.3
		c0,5.1,4.1,9.2,9.1,9.2c0,0,0,0,0.1,0h335.9c5.1,0,9.2-4.1,9.2-9.1c0,0,0,0,0-0.1V294.1c0-9.6,7.8-17.4,17.4-17.4
		s17.4,7.8,17.4,17.4v172.3c-0.2,24.8-20.3,44.9-45.1,45.1H44.8z M109.3,400.8c-6.4-6.9-9.1-16.4-7.2-25.6l4.1-14.4
		c6.1-29.7,12.3-58.4,18.4-88.2c1.8-6.9,5.3-13.3,10.3-18.5c13.3-14.4,27.6-28.8,42-43.1l60.4-60.5c46.1-47.2,92.2-93.4,138.3-139.5
		c7-8.5,17.9-12.8,28.8-11.3h2c7.3,0.8,14.6,2.6,21.5,5.1c34.7,14,62.3,41.3,76.7,75.9c2.5,5.5,4.2,11.4,5.1,17.4
		c0.8,0.8,1.2,2,1,3.2l1,3.2v6.1c-0.7,9.3-4.7,18-11.3,24.6c-80.9,80-160.8,161-242.8,241c-5.4,5.2-12.1,8.7-19.5,10.2l-58.4,12.3
		l-45.1,9.2c-1.9,0.8-4,1.2-6.1,1C121.3,409,114.4,406,109.3,400.8z M260.9,175.2l-48.1,48.2c-17.4,17.4-35.8,34.9-53.3,53.3
		c-0.5,0-1,0.4-1,1c0,0,0,0,0,0.1c-5.1,24.6-10.2,50.2-15.4,74.9l-4.1,19.5l94.2-19.5c1,0,1,0,2-1l61.6-61.5
		c60.4-59.5,119.8-120,180.2-179.4c0.5,0,1-0.4,1-1c0,0,0,0,0-0.1l-1-4.1c-0.8-3.8-1.9-7.6-3.2-11.3c-11.1-26.2-32.1-46.8-58.4-57.4
		c-4.3-1.1-8.7-1.8-13.2-1.9h-1C354.1,80.8,308,128,260.9,175.2z"/>
</g>
</svg>
