<?xml version="1.0" encoding="utf-8"?>
<!-- Generator: Adobe Illustrator 23.0.3, SVG Export Plug-In . SVG Version: 6.00 Build 0)  -->
<svg version="1.1" id="Layer_1" xmlns="http://www.w3.org/2000/svg" xmlns:xlink="http://www.w3.org/1999/xlink" x="0px" y="0px"
	 viewBox="0 0 512 512" style="enable-background:new 0 0 512 512;" xml:space="preserve">
<style type="text/css">
	.st0{clip-path:url(#SVGID_2_);fill:#EF0039;}
</style>
<g>
	<defs>
		<rect id="SVGID_1_" width="512" height="512"/>
	</defs>
	<clipPath id="SVGID_2_">
		<use xlink:href="#SVGID_1_"  style="overflow:visible;"/>
	</clipPath>
	<path id="star-f" class="st0" d="M499.6,237c11.4-11.6,15.3-28.7,10.2-44.1c-4.5-15.1-17.2-26.3-32.7-28.8l-121.8-18.5
		c-3.3-1.1-6.2-3.2-8.2-6.1L292.8,23.6c-9.4-20.4-33.5-29.3-53.9-19.9c-8.7,4.1-15.8,11.1-19.8,19.9l-54.3,114.9
		c-2,3.2-5.1,6.1-8.2,6.1L34.9,163.2C19.2,165.4,6.3,176.7,2.1,192c-5,15.4-1.1,32.4,10.2,44l88,89.3c3,2.5,4.3,6.5,3.2,10.3
		L83.2,461.8c-2.7,15.9,3.5,32,16.2,42c7.1,5.3,15.7,8.2,24.6,8.2c6.8-0.2,13.4-2,19.4-5.1l108.5-59.5c3.1-2.1,7.1-2.1,10.2,0
		l108.5,59.5c13.8,7.2,30.4,6,43-3.2c12.9-9.8,19.2-26.1,16.4-42.1l-20.5-126.2c-0.5-3.7,0.6-7.5,3.2-10.3L499.6,237z"/>
</g>
</svg>
