<?xml version="1.0" encoding="utf-8"?>
<!-- Generator: Adobe Illustrator 23.0.3, SVG Export Plug-In . SVG Version: 6.00 Build 0)  -->
<svg version="1.1" id="Layer_1" xmlns="http://www.w3.org/2000/svg" xmlns:xlink="http://www.w3.org/1999/xlink" x="0px" y="0px"
	 viewBox="0 0 512 512" style="enable-background:new 0 0 512 512;" xml:space="preserve">
<style type="text/css">
	.st0{clip-path:url(#SVGID_2_);fill:#EB0038;}
</style>
<g>
	<defs>
		<rect id="SVGID_1_" x="-0.1" y="0" width="512" height="512"/>
	</defs>
	<clipPath id="SVGID_2_">
		<use xlink:href="#SVGID_1_"  style="overflow:visible;"/>
	</clipPath>
	<path id="ic_suspending" class="st0" d="M21.4,277.5C21.1,184,76.7,99.3,162.7,62.5c10.7-4.4,23,0.6,27.6,11.3
		c4.4,10.7-0.6,23-11.3,27.6c-69.5,31-114.4,99.9-114.7,176c-0.1,106.2,85.9,192.4,192.1,192.5c0.1,0,0.3,0,0.5,0
		C363.2,470,449.3,384,449.5,277.8c0-0.2,0-0.3,0-0.5c-0.3-76.4-45.7-145.4-115.7-176c-10.6-4.2-15.8-16.3-11.6-26.9
		c0.1-0.3,0.2-0.5,0.3-0.8c3.7-10.4,15.1-15.8,25.5-12.2c0.7,0.3,1.5,0.6,2.2,0.9c85.2,37.6,140.2,121.9,140.3,215
		C490.4,407,385.5,512,256,512c0,0,0,0-0.1,0C126.4,512,21.5,407.1,21.4,277.5C21.4,277.6,21.4,277.5,21.4,277.5z M234.4,214V21.5
		c0.1-11.8,9.7-21.4,21.5-21.5c11.9,0.1,21.4,9.7,21.5,21.5V213c0.3,11.6-8.9,21.2-20.5,21.5c-0.3,0-0.7,0-1,0
		c-11.5,0.4-21.1-8.6-21.5-20C234.4,214.3,234.4,214.2,234.4,214z"/>
</g>
</svg>
