<?xml version="1.0" encoding="utf-8"?>
<!-- Generator: Adobe Illustrator 23.0.3, SVG Export Plug-In . SVG Version: 6.00 Build 0)  -->
<svg version="1.1" id="Layer_1" xmlns="http://www.w3.org/2000/svg" xmlns:xlink="http://www.w3.org/1999/xlink" x="0px" y="0px"
	 viewBox="0 0 120 152" style="enable-background:new 0 0 120 152;" xml:space="preserve">
<style type="text/css">
	.st0{clip-path:url(#SVGID_2_);}
	.st1{enable-background:new    ;}
	.st2{fill:#222222;}
	.st3{fill:#333333;}
</style>
<g>
	<defs>
		<rect id="SVGID_1_" y="0" width="120" height="152"/>
	</defs>
	<clipPath id="SVGID_2_">
		<use xlink:href="#SVGID_1_"  style="overflow:visible;"/>
	</clipPath>
	<g class="st0">
		<g class="st1">
			<path class="st2" d="M11.3,145.2l2.5,0.8c-0.4,1.4-1,2.5-1.9,3.1c-0.9,0.7-2,1-3.4,1c-1.7,0-3.1-0.6-4.2-1.8
				c-1.1-1.2-1.7-2.8-1.7-4.8c0-2.1,0.6-3.8,1.7-5c1.1-1.2,2.6-1.8,4.4-1.8c1.6,0,2.9,0.5,3.8,1.4c0.6,0.6,1,1.3,1.3,2.4l-2.6,0.6
				c-0.2-0.7-0.5-1.2-1-1.6S9.1,139,8.5,139c-1,0-1.7,0.3-2.3,1s-0.9,1.8-0.9,3.3c0,1.6,0.3,2.8,0.9,3.5s1.3,1,2.3,1
				c0.7,0,1.3-0.2,1.8-0.7S11,146.1,11.3,145.2z"/>
			<path class="st2" d="M27.6,149.9h-2.8l-1.1-2.9h-5.2l-1.1,2.9h-2.8l5-12.9h2.8L27.6,149.9z M22.8,144.8l-1.8-4.8l-1.7,4.8H22.8z"
				/>
			<path class="st2" d="M30.6,149.9v-10.7h-3.8V137H37v2.2h-3.8v10.7H30.6z"/>
			<path class="st2" d="M38.7,149.9V137h9.6v2.2h-7v2.9h6.5v2.2h-6.5v3.5h7.2v2.2H38.7z"/>
			<path class="st2" d="M56.7,145.2V143h5.6v5.1c-0.5,0.5-1.3,1-2.4,1.4c-1,0.4-2.1,0.6-3.1,0.6c-1.3,0-2.5-0.3-3.5-0.8
				c-1-0.6-1.8-1.4-2.3-2.4c-0.5-1.1-0.8-2.2-0.8-3.4c0-1.3,0.3-2.5,0.8-3.6s1.4-1.8,2.5-2.4c0.8-0.4,1.9-0.6,3.1-0.6
				c1.6,0,2.8,0.3,3.7,1s1.5,1.6,1.7,2.8l-2.6,0.5c-0.2-0.6-0.5-1.1-1-1.5c-0.5-0.4-1.1-0.5-1.9-0.5c-1.1,0-2,0.4-2.7,1.1
				s-1,1.8-1,3.2c0,1.5,0.3,2.7,1,3.4c0.7,0.8,1.6,1.1,2.7,1.1c0.5,0,1.1-0.1,1.6-0.3s1-0.5,1.4-0.8v-1.6H56.7z"/>
			<path class="st2" d="M64.2,143.5c0-1.3,0.2-2.4,0.6-3.3c0.3-0.7,0.7-1.2,1.2-1.8s1.1-0.9,1.7-1.2c0.8-0.3,1.7-0.5,2.8-0.5
				c1.9,0,3.4,0.6,4.6,1.8s1.7,2.8,1.7,4.9c0,2.1-0.6,3.7-1.7,4.9c-1.1,1.2-2.6,1.8-4.5,1.8c-1.9,0-3.4-0.6-4.6-1.8
				C64.7,147.2,64.2,145.6,64.2,143.5z M66.8,143.4c0,1.5,0.3,2.6,1,3.3s1.5,1.1,2.6,1.1s1.9-0.4,2.6-1.1c0.7-0.7,1-1.9,1-3.4
				c0-1.5-0.3-2.6-1-3.3s-1.5-1.1-2.6-1.1s-1.9,0.4-2.6,1.1S66.8,142,66.8,143.4z"/>
			<path class="st2" d="M78.7,149.9V137h5.5c1.4,0,2.4,0.1,3,0.3s1.1,0.6,1.5,1.2s0.6,1.3,0.6,2c0,1-0.3,1.8-0.9,2.4s-1.4,1-2.5,1.2
				c0.6,0.3,1,0.7,1.4,1.1s0.9,1.1,1.5,2.1l1.6,2.5h-3.1l-1.9-2.8c-0.7-1-1.1-1.6-1.4-1.9s-0.5-0.4-0.8-0.5
				c-0.3-0.1-0.7-0.1-1.3-0.1h-0.5v5.4H78.7z M81.3,142.5h1.9c1.2,0,2-0.1,2.3-0.2s0.6-0.3,0.7-0.5s0.3-0.6,0.3-1
				c0-0.4-0.1-0.8-0.3-1.1c-0.2-0.3-0.6-0.4-1-0.5c-0.2,0-0.8,0-1.9,0h-2V142.5z"/>
			<path class="st2" d="M94.4,149.9v-5.4l-4.7-7.5h3l3,5.1l3-5.1h3l-4.7,7.5v5.4H94.4z"/>
			<path class="st2" d="M118.6,149.9h-2.8l-1.1-2.9h-5.2l-1.1,2.9h-2.8l5-12.9h2.8L118.6,149.9z M113.9,144.8l-1.8-4.8l-1.7,4.8
				H113.9z"/>
		</g>
		<g>
			<path class="st3" d="M67.1,36.5L67.1,36.5c0.8,0,1.4-0.6,1.4-1.4c0-0.5,0.2-0.9,0.5-1.2s0.7-0.5,1.2-0.5l0,0
				c0.9,0,1.7,0.8,1.7,1.7c0,0.7,0.6,1.4,1.4,1.4l0,0c0.7,0,1.4-0.6,1.4-1.4c0-2.4-2-4.4-4.4-4.4l0,0c-1.2,0-2.3,0.5-3.1,1.3
				c-0.8,0.8-1.3,1.9-1.3,3.1C65.8,35.9,66.4,36.5,67.1,36.5z"/>
			<path class="st3" d="M41.1,35.1c0,0.7,0.6,1.4,1.4,1.4c0.7,0,1.4-0.6,1.4-1.4c0-0.9,0.8-1.7,1.7-1.7s1.7,0.8,1.7,1.7
				c0,0.7,0.6,1.4,1.4,1.4c0.7,0,1.4-0.6,1.4-1.4c0-2.4-2-4.4-4.4-4.4S41.1,32.7,41.1,35.1z"/>
			<path class="st3" d="M117.5,117.2H85.3c3.3-1.1,7.2-3.2,10.2-7.6c5-7.4,5.9-19,2.9-34.4v-0.1c0-0.1-3-10,4.5-16.2
				c0.7-0.6,0.9-1.5,0.4-2.3c-0.4-0.8-1.3-1.1-2.2-0.8c-3.9,1.4-12.6,6.2-10.3,19.9c3.5,20.6-1.5,28.5-6.1,31.6c-0.3-3-1-5.9-2-8.5
				c-0.6-1.6-1-3-1.2-4.6c0.3-0.4,0.5-0.8,0.7-1.2l0.1-0.3c0.3-0.5,0.5-0.9,0.7-1.4l0.2-0.3c0.5-1.1,1-2.3,1.4-3.5l0.1-0.2
				c0.2-0.5,0.3-1,0.5-1.6l0.1-0.3c0.1-0.6,0.3-1.2,0.4-1.8c0.2-1.3,0.2-2.8-0.2-4.2C83,69.9,79.8,64.3,75.6,62
				c-0.3-0.2-0.6-0.3-0.8-0.5c3.8-2.2,6.6-5.1,8.2-8.4c0.1,0,0.1,0,0.2,0c0.3,0,0.6-0.1,0.8-0.3c0.6-0.5,0.7-1.3,0.2-1.9
				c-0.1-0.1-0.2-0.3-0.3-0.4c0.4-1.3,0.5-2.6,0.5-3.9c0-0.5,0-1.1-0.1-1.6c0.5,0,0.9-0.3,1.1-0.8c0.3-0.7,0-1.5-0.7-1.8
				c-0.4-0.2-0.7-0.3-1.1-0.5c-0.5-1.3-1.1-2.6-2-3.9c-0.2-0.4-0.4-0.8-0.4-1.2c0-0.2,0-0.5,0-0.7c0-3-0.5-5.8-1.4-8.4
				c2.6-1.1,4.6-2.9,5.9-5.2c2.9-5.4,1.3-12.7,0.1-16.6c-0.6-2.3-3-4.1-5.6-4c-6.3,0.2-10.4,7.6-12.3,12.3c-3-1.4-6.3-2.2-9.7-2.2
				c-3.7,0-7.2,0.9-10.3,2.5C45.8,9.6,41.7,2.1,35.4,1.9c-2.6-0.1-5,1.6-5.8,4.2c-1.2,3.9-2.9,11.3,0.2,16.8
				c1.4,2.4,3.5,4.2,6.4,5.3c-0.9,2.6-1.4,5.3-1.4,8.2c0,0.2,0,0.5,0,0.7c0,0.4-0.1,0.8-0.4,1.2c-0.8,1.1-1.4,2.3-1.8,3.5
				c-0.6,0.2-1.3,0.5-2,0.8s-1,1.1-0.7,1.8c0.2,0.5,0.7,0.8,1.2,0.8c0.2,0,0.4,0,0.6-0.1l0,0c-0.1,0.6-0.1,1.1-0.1,1.7
				c0,1.1,0.1,2.2,0.4,3.2c-0.3,0.3-0.6,0.7-0.9,1c-0.5,0.6-0.3,1.4,0.2,1.9c0.2,0.2,0.5,0.3,0.8,0.3c0.3,0,0.6-0.1,0.8-0.3
				c1.5,3.2,4.2,6.1,8,8.4c-0.4,0.3-0.9,0.5-1.3,0.8c-4,2.3-7.2,7.9-9.7,17.1c0,0.1-0.1,0.2-0.1,0.3v0.1c-0.3,1.3-0.3,2.5-0.1,3.7
				c0.1,0.6,0.2,1.2,0.4,1.8l0.1,0.4c0.1,0.5,0.3,1,0.5,1.6l0.1,0.2c0.4,1.2,0.8,2.4,1.4,3.5l0.2,0.3c0.2,0.5,0.5,0.9,0.7,1.4
				l0.2,0.3c0.2,0.4,0.5,0.8,0.7,1.2c-0.2,1.5-0.6,3.1-1.2,4.6c-1.4,3.6-2.2,7.9-2.2,12.4c0,2.1,0.2,4.2,0.5,6.1H2.5
				c-1.3,0-2.3,1-2.3,2.3s1,2.3,2.3,2.3h29.7h4.1h9.1h3.8h7.3h2.8h7h3.8h9.1h4.1h34.1c1.3,0,2.3-1,2.3-2.3
				C119.8,118.2,118.7,117.2,117.5,117.2z M84.9,110.3c11.6-6,10.4-24.4,8.6-35.1c-1.2-7.3,1-11.6,3.8-14.1
				c-3.8,6.5-1.9,13.7-1.6,14.6c2.9,14.7,2,25.6-2.5,32.3c-2.4,3.6-5.7,5.5-8.5,6.5c0.1-1.1,0.2-2.2,0.2-3.4
				C84.9,110.8,84.9,110.6,84.9,110.3z M80.2,43.7c0.3,1,0.5,2,0.5,3.1c0,0.2,0,0.4,0,0.6c-3.8-2.9-7.8-3.7-9.5-3.9
				c-0.1-0.3-0.3-0.6-0.5-1C72.8,42.4,76.2,42.5,80.2,43.7z M80.3,4.6c1.4,0,2.7,0.9,3.2,2.3c1.1,3.4,2.6,9.9,0.1,14.5
				c-1,1.8-2.5,3.1-4.5,4c-0.3-0.6-0.6-1.2-0.9-1.8c0.6-0.4,1.1-0.8,1.4-1.2c0.4-0.6,0.3-1.4-0.3-1.9c-0.6-0.5-1.4-0.3-1.9,0.2
				c0,0.1-0.3,0.4-0.8,0.6c-0.5-0.7-1.1-1.4-1.7-2.1c0.9-7.1,5.5-9.1,5.7-9.2c0.7-0.3,1-1.1,0.7-1.8s-1.1-1-1.8-0.7
				c-0.2,0.1-5.4,2.3-7.1,9.5c-0.7-0.6-1.4-1.1-2.2-1.6C71.8,11.7,75.3,4.8,80.3,4.6z M58.1,15.8c10.7,0,19.5,9.2,19.5,20.5
				c0,0.2,0,0.4,0,0.6c0,1.3,0.3,2.5,1,3.5l0,0c-4.8-1.1-8.5-0.8-10-0.6c-1.3-1.3-3.1-2.4-5.2-3.4c-0.8-1.7-3-2.8-5.6-2.8
				s-4.8,1.2-5.6,2.8c-1.4,0.8-3.4,2-5.1,3.5c-1.4-0.2-4.8-0.5-9.3,0.4c0.6-1,1-2.2,0.9-3.4c0-0.2,0-0.4,0-0.6
				C38.7,25,47.4,15.8,58.1,15.8z M58,50.4C58,50.4,57.9,50.4,58,50.4c-0.1,0-0.2,0-0.2,0l0,0c-0.1,0-0.2,0-0.3,0
				c-0.6,0-2.2-0.1-4-0.4l0,0c-3.4-0.5-6.8-1.7-6.8-3.9c0-3,3.3-5.4,5.7-6.7c0.8,1.6,3,2.7,5.5,2.7H58h0.1c0.1,0,0.3,0,0.4,0
				c0,0,0,0,0.1,0c2.3-0.1,4.2-1.2,5-2.6c2.2,1.3,5.5,3.6,5.5,6.6c0,2.2-3.5,3.4-6.8,3.9l0,0C60.2,50.4,58.5,50.4,58,50.4z M60.8,53
				l-0.4,2.6h-1.2v-2.5l0,0C59.7,53.1,60.2,53,60.8,53z M56.5,53.1v2.5h-1.2L54.9,53C55.5,53.1,56,53.1,56.5,53.1z M54.8,38
				c0,0,0-0.1,0-0.2c0-0.1,0.1-0.3,0.1-0.4c0.5-0.5,1.5-1,2.9-1c1.9,0,3.2,0.9,3.2,1.6c0,0.6-1.2,1.6-3.1,1.6
				C56,39.5,54.8,38.6,54.8,38z M32.1,21.6C29.5,17,31,10.5,32.1,7c0.4-1.4,1.7-2.3,3.1-2.3h0.1c5.1,0.2,8.6,7.4,10.2,11.3
				c-0.8,0.5-1.5,1.1-2.2,1.7c-1.5-7.6-6.9-9.9-7.2-10c-0.7-0.3-1.5,0-1.8,0.7s0,1.5,0.7,1.8c0.2,0.1,5.1,2.3,5.8,9.9
				c-0.4,0.5-0.8,1-1.2,1.5c-0.1,0-0.2,0-0.3,0c-0.6,0-1.1-0.6-1.2-0.7c-0.5-0.6-1.3-0.7-1.9-0.3c-0.6,0.4-0.7,1.3-0.3,1.9
				c0.1,0.1,0.8,1,2,1.5c-0.3,0.6-0.6,1.1-0.9,1.7C34.8,24.8,33.1,23.4,32.1,21.6z M35.6,46.8c0-1.1,0.2-2.2,0.5-3.3
				c3.7-1,6.9-1.1,8.9-1c-0.2,0.3-0.3,0.6-0.5,0.9C42.9,43.6,39.3,44.3,35.6,46.8L35.6,46.8z M36.1,49.9c3-2.4,6.1-3.3,7.9-3.7
				c0,3.9,4.3,5.6,8.1,6.4l0.5,3.8c0,0,0,0,0,0.1c0.2,1.1,1.1,1.9,2.3,1.9h2c0.3,0,0.7-0.1,0.9-0.2c0.3,0.1,0.6,0.2,0.9,0.2h2
				c1.1,0,2.1-0.8,2.3-2l0.5-3.8c0.3-0.1,0.5-0.1,0.8-0.2c6-1.3,7.3-4.1,7.3-6.1c1.9,0.4,5.3,1.4,8.3,4.1c-1.4,3.8-4.8,7.1-9.8,9.2
				H70c-1.8,0.7-3.7,1.3-5.6,1.7h-0.1c-0.9,0.2-1.9,0.3-2.9,0.4h-0.3c-0.4,0-0.8,0.1-1.1,0.1h-0.4c-0.4,0-0.9,0-1.4,0v0.6l0,0
				l-0.1-0.6c-0.5,0-0.9,0-1.4,0h-0.4c-0.4,0-0.9-0.1-1.3-0.1l-0.1,0.6l-0.1-0.5c-0.5-0.1-1-0.1-1.5-0.2l-0.1,0.6v-0.6
				c-2.7-0.4-5.2-1.1-7.5-2.2C40.6,57.2,37.3,53.7,36.1,49.9z M33.6,82.7c-0.1-0.6-0.1-1.3,0-2c0-0.2,0.1-0.3,0.1-0.5v-0.1
				c2.2-8,4.8-12.9,7.9-14.7c1.3-0.7,2.4-1.4,3.4-2.1c1.1,0.5,2.4,0.9,3.7,1.2l0.4,0.1c0.3,0.1,0.6,0.1,0.9,0.2
				c0.2,0.1,0.5,0.1,0.7,0.2h0.1c0.2,0,0.4,0.1,0.6,0.1c0.5,0.1,0.9,0.2,1.4,0.2h0.4c0.4,0.1,0.8,0.1,1.2,0.1h0.5
				c0.4,0,0.8,0.1,1.1,0.1h0.5c1,0,2.1,0,3.1,0h0.5c0.4,0,0.7,0,1.1-0.1h0.6c0.3,0,0.6-0.1,1-0.1l0.6-0.1c0.3,0,0.6-0.1,0.9-0.1
				c0.5-0.1,1-0.2,1.5-0.3l0.3-0.1c0.4-0.1,0.8-0.2,1.1-0.3h0.1c1.2-0.3,2.4-0.7,3.4-1.1c0.9,0.6,1.9,1.2,3.1,1.8
				c3.1,1.7,5.8,6.7,8,14.8c0.2,0.8,0.3,1.7,0.1,2.5c-0.1,0.5-0.2,1.1-0.3,1.6l-0.1,0.4c-0.1,0.4-0.2,0.8-0.4,1.3L81,86
				c-0.3,1-0.8,2.1-1.2,3.1l-0.1,0.3c-0.2,0.4-0.4,0.8-0.6,1.2l-0.3,0.5c-0.2,0.4-0.4,0.7-0.6,1.1L78,92.5c-0.6,1-1.3,1.9-2.1,2.8
				l-2.6,3.4c-0.6-0.5-1.3-0.8-2-1.1c0.2-2.6,1-8.5,4.8-11.3c0.8-0.6,1.1-1.7,0.5-2.6c0,0-0.7-1.3-1.7-3.1c-0.5-1-1.7-1.3-2.6-0.9
				c-0.5,0.2-0.8,0.6-1,1.1s-0.1,1,0.1,1.5c0.4,0.7,0.7,1.4,1,1.9c-0.4,0.4-0.8,0.8-1.1,1.2c-2.8-7.2-7.8-11.7-13.5-11.7
				s-10.8,4.7-13.6,12c-0.4-0.5-0.8-1-1.3-1.5c0.3-0.5,0.6-1.2,1-1.9c0.2-0.5,0.3-1,0.1-1.5s-0.5-0.9-1-1.1c-1-0.5-2.1-0.1-2.6,0.9
				c-1,1.9-1.7,3.1-1.7,3.2c-0.5,0.9-0.3,2,0.6,2.6c3.8,2.7,4.6,8.7,4.8,11.3c-0.7,0.2-1.4,0.6-2,1.1l-2.5-3.3l-0.1-0.1
				c-0.7-0.9-1.4-1.8-2-2.7l-0.2-0.4c-0.2-0.3-0.4-0.7-0.6-1l-0.2-0.4c-0.2-0.4-0.4-0.8-0.6-1.1l-0.1-0.5c-0.5-1-0.9-2-1.2-3.1
				l-0.2-0.3c-0.1-0.4-0.2-0.8-0.4-1.3l-0.1-0.4C33.8,83.8,33.7,83.3,33.6,82.7z M68.2,102c-0.4-1-1.4-1.2-2-1.3
				c-0.1,0-0.2,0-0.3-0.1c0.1-0.1,0.3-0.1,0.5-0.2l0,0c0.2-0.1,0.4-0.1,0.6-0.2c0,0,0,0,0.1,0c0.3-0.1,0.7-0.2,1.1-0.2
				c0.5,0.6,1.1,1.1,1.9,1.3c0.3,0.1,0.6,0.3,1,0.5c0.6,0.4,1.2,0.7,1.9,0.8c-0.3,2-1.2,4.4-3.1,4.9l0,0l0,0
				c-0.9,0.3-1.8,0.1-2.8-0.6c-0.3-0.2-0.4-0.5-0.4-0.7c0-0.3,0.1-0.7,0.3-0.9c0.8-1,1.4-1.8,1.5-2.6
				C68.3,102.5,68.3,102.3,68.2,102z M48.7,105.4c0.2,0.3,0.3,0.6,0.3,0.9c0,0.2-0.1,0.5-0.4,0.7c-1,0.6-1.9,0.8-2.8,0.6l0,0
				c-1.9-0.5-2.9-2.9-3.1-4.9c0.7-0.1,1.4-0.3,1.9-0.8c0.3-0.3,0.6-0.4,1-0.5c0.8-0.2,1.4-0.7,1.9-1.3c0.1,0,0.2,0,0.3,0
				c0,0,0,0,0.1,0c0.3,0.1,0.5,0.1,0.7,0.2h0.1c0.2,0.1,0.4,0.1,0.5,0.2h0.1c0.2,0.1,0.3,0.1,0.4,0.2l0,0c-0.1,0-0.2,0-0.3,0.1
				c-0.6,0.1-1.6,0.3-2,1.3C46.9,103.1,47.6,104.1,48.7,105.4z M35.1,117.2c-0.4-1.9-0.6-4-0.6-6.1c0-4,0.7-7.8,1.9-10.9
				c0.2-0.6,0.4-1.2,0.6-1.8l2.2,2.8c0.2,0.2,0.4,0.4,0.6,0.6c0.1,3.1,1.5,6.8,4.5,8.1c1.1,2.9,2.6,5.4,4.3,7.3H35.1z M52.5,117.2
				c-2-1.5-3.8-3.9-5.1-6.9l0,0h0.1c0.2,0,0.5-0.1,0.7-0.2c0.1,0,0.2-0.1,0.2-0.1c0.2-0.1,0.4-0.1,0.6-0.2c0.1,0,0.2-0.1,0.2-0.1
				c0.3-0.1,0.5-0.3,0.8-0.4c0.9-0.6,1.5-1.5,1.6-2.5c0.1-0.5,0-1.1-0.1-1.6s-0.4-1-0.8-1.5c-0.1-0.1-0.2-0.3-0.3-0.4
				c0.2-0.1,0.4-0.1,0.6-0.2c0.1,0,0.2-0.1,0.3-0.2c0.5-0.3,1-0.8,1.2-1.6l0,0c0.2-0.6,0-1.3-0.4-1.9c-0.1-0.1-0.2-0.3-0.3-0.4
				l-0.1-0.1c-0.1-0.1-0.2-0.2-0.3-0.2s-0.1-0.1-0.2-0.1c-0.1-0.1-0.2-0.1-0.3-0.2c-0.1,0-0.2-0.1-0.2-0.1c-0.1-0.1-0.3-0.1-0.4-0.2
				c-0.1,0-0.2-0.1-0.3-0.1c-0.2-0.1-0.3-0.1-0.5-0.2c-0.1,0-0.2-0.1-0.2-0.1c-0.3-0.1-0.6-0.2-0.9-0.2c0,0,0,0-0.1,0s-0.1,0-0.2,0
				c-0.1-2.2-0.6-5.4-1.9-8.4c2.1-7.5,6.7-12.4,11.8-12.4c4.9,0,9.5,4.8,11.7,12c-1.5,3.2-2,6.6-2.1,8.8c-0.1,0-0.1,0-0.2,0
				c0,0,0,0-0.1,0c-0.3,0.1-0.6,0.1-0.9,0.2c-0.1,0-0.2,0-0.2,0.1c-0.2,0.1-0.4,0.1-0.5,0.2c-0.1,0-0.2,0.1-0.3,0.1
				c-0.1,0.1-0.3,0.1-0.4,0.2c-0.1,0-0.2,0.1-0.2,0.1c-0.1,0.1-0.2,0.1-0.3,0.2c-0.1,0-0.1,0.1-0.2,0.1c-0.1,0.1-0.2,0.2-0.3,0.2
				L63.9,99c-0.1,0.1-0.2,0.3-0.3,0.4c-0.4,0.6-0.5,1.2-0.4,1.9c0.3,1.3,1.3,1.8,2.1,2c-0.1,0.1-0.2,0.2-0.3,0.4
				c-0.7,0.9-1.1,2-0.9,3.1c0.1,1,0.7,2,1.6,2.5c0.3,0.2,0.5,0.3,0.8,0.5c0.1,0,0.2,0.1,0.3,0.1c0.2,0.1,0.4,0.2,0.6,0.2
				c0.1,0,0.2,0.1,0.3,0.1c0.2,0.1,0.4,0.1,0.5,0.1s0.2,0,0.3,0.1c0.1,0,0.1,0,0.2,0c-1.3,3-3.1,5.4-5.1,6.9H52.5V117.2z
				 M67.3,117.2c1.7-2,3.2-4.5,4.3-7.5c2.8-1.4,4.1-5,4.1-7.9c0.2-0.2,0.4-0.4,0.6-0.6l2.2-2.8c0.2,0.6,0.4,1.2,0.6,1.8
				c1.2,3.2,1.9,7,1.9,10.9c0,2.1-0.2,4.2-0.6,6.1H67.3z"/>
		</g>
	</g>
</g>
</svg>
