<svg xmlns="http://www.w3.org/2000/svg" width="119.906" height="152" viewBox="0 0 119.906 152">
  <g id="ic_type_b" transform="translate(0.1)">
    <g id="Group_49" data-name="Group 49">
      <g id="Group_48" data-name="Group 48">
        <path id="Path_393" data-name="Path 393" d="M73.9,58.8A7.1,7.1,0,1,0,81,65.9,7.127,7.127,0,0,0,73.9,58.8Z" fill="#333"/>
        <path id="Path_394" data-name="Path 394" d="M45.7,58.8a7.1,7.1,0,1,0,7.1,7.1A7.127,7.127,0,0,0,45.7,58.8Z" fill="#333"/>
        <path id="Path_395" data-name="Path 395" d="M49.6,35.2a4,4,0,1,0,4,4A4.012,4.012,0,0,0,49.6,35.2Z" fill="#333"/>
        <path id="Path_396" data-name="Path 396" d="M68.4,35.2a4,4,0,1,0,4,4A4.012,4.012,0,0,0,68.4,35.2Z" fill="#333"/>
        <path id="Path_397" data-name="Path 397" d="M112.8,115.3A53.221,53.221,0,0,0,93.7,76.9a19.529,19.529,0,0,0,.3-3.4v-19a6.75,6.75,0,0,0-3.8-6l-1.8-16h6.4A13.333,13.333,0,0,0,107,23.4l2.4-8a2.289,2.289,0,0,0-.4-2.1,2.417,2.417,0,0,0-1.9-1H84.7v-6a6.3,6.3,0,0,0-12.6,0v6.1H46V6.3A6.253,6.253,0,0,0,39.8,0a6.338,6.338,0,0,0-6.3,6.3v6.1H12.7a2.276,2.276,0,0,0-1.9,1,2.619,2.619,0,0,0-.4,2.1l2.4,8A13.333,13.333,0,0,0,25,32.6h4.8L28,48.6a6.638,6.638,0,0,0-3.8,6v19a23.984,23.984,0,0,0,.5,4.6A52.872,52.872,0,0,0,7,115.4v.9h4.8v-.8A48.242,48.242,0,0,1,26.4,83.2a22.507,22.507,0,0,0,20.4,13H71.6a22.443,22.443,0,0,0,20.8-14,48.555,48.555,0,0,1,15.7,33.3v.8h4.8ZM71.5,91.2H46.7a17.757,17.757,0,0,1-16.8-12,16.539,16.539,0,0,1-.7-3.2,24.959,24.959,0,0,1-.2-2.5v-19a1.831,1.831,0,0,1,1.6-1.8H87.7a1.831,1.831,0,0,1,1.6,1.8v19a7.083,7.083,0,0,1-.1,1.5A17.882,17.882,0,0,1,71.5,91.2Zm32.3-74.1-1.5,5a8.8,8.8,0,0,1-7.7,5.7H87.7L86.5,17.1h17.3ZM76.9,6.3a1.5,1.5,0,0,1,3,0v6.1h-3Zm-38.6,0a1.5,1.5,0,0,1,3,0v6.1h-3ZM36.5,17.1H81.7l3.6,30.8H32.9ZM25.1,27.8a8.8,8.8,0,0,1-7.7-5.7l-1.5-5H31.7L30.5,27.8Z" fill="#333"/>
        <path id="Path_398" data-name="Path 398" d="M85.6,114.9a17.972,17.972,0,0,0-16-10H50.1a17.574,17.574,0,0,0-16,10l-.6,1.2h4.6l.2-.4A13.938,13.938,0,0,1,50.1,109H69.5a13.938,13.938,0,0,1,11.8,6.7l.2.4h4.6Z" fill="#333"/>
      </g>
      <path id="Path_399" data-name="Path 399" d="M117.5,115.3H2.2a2.3,2.3,0,0,0,0,4.6H117.5a2.3,2.3,0,0,0,0-4.6Z" fill="#333"/>
    </g>
    <text id="CATEGORY_B" data-name="CATEGORY B" transform="translate(59.9 148)" fill="#222" font-size="18" font-family="Arial-BoldMT, Arial" font-weight="700"><tspan x="-58.838" y="0">CATEGORY B</tspan></text>
  </g>
</svg>
