<svg id="ic_type_c" xmlns="http://www.w3.org/2000/svg" width="120" height="152" viewBox="0 0 120 152">
  <g id="Group_58" data-name="Group 58">
    <g id="Group_51" data-name="Group 51">
      <g id="Group_50" data-name="Group 50">
        <path id="Path_400" data-name="Path 400" d="M49.1,8.2A58.95,58.95,0,0,0,37.8,28h0a68.7,68.7,0,0,0-2.7,10.6A39.137,39.137,0,0,0,22.3,59.9a6.525,6.525,0,0,0,1.3,5.7,6.829,6.829,0,0,0,5.3,2.6h9.7c5,11.4,13.2,20.5,18.2,25.3A22.041,22.041,0,0,0,45,99.4c-6.8,6.8-6.5,17.6-6.5,18.1a2.433,2.433,0,0,0,2.4,2.4c.5,0,11.3.3,18.1-6.5a19.424,19.424,0,0,0,3.8-5.5,20.554,20.554,0,0,0,3.8,5.6c6.8,6.8,17.6,6.5,18.1,6.5a2.433,2.433,0,0,0,2.4-2.4v-.4c0-2.1-.3-11.6-6.5-17.7a22.921,22.921,0,0,0-12-5.9A93.189,93.189,0,0,0,82.3,76.9h8.8a6.869,6.869,0,0,0,5.5-2.7,6.708,6.708,0,0,0,1.4-4,6.929,6.929,0,0,0-.3-2,38.7,38.7,0,0,0-6.9-12.9,42.979,42.979,0,0,0,.5-6.1,64.135,64.135,0,0,0-3.5-20.6h0C82.4,12.8,71.2,0,62.7,0,58.6,0,53.8,2.9,49.1,8.2ZM55.4,110c-3.5,3.5-8.7,4.5-11.8,4.8.3-3.1,1.4-8.3,4.8-11.7,3.5-3.5,8.6-4.5,11.6-4.8C59.8,101.2,58.9,106.5,55.4,110Zm21.7-7c3.5,3.5,4.5,8.7,4.8,11.7-3.1-.3-8.3-1.4-11.7-4.8-3.5-3.5-4.5-8.7-4.8-11.8C68.4,98.5,73.6,99.6,77.1,103ZM28.8,63.2a1.746,1.746,0,0,1-1.4-.7,1.5,1.5,0,0,1-.3-1.4,35.794,35.794,0,0,1,7.1-14.4V49a45.031,45.031,0,0,0,2.4,14.2H28.8Zm64,6.3a1.4,1.4,0,0,1-.3,1.5,1.573,1.573,0,0,1-1.4.7h-6a60.219,60.219,0,0,0,4.1-10A29.672,29.672,0,0,1,92.8,69.5ZM86.2,49a36.566,36.566,0,0,1-.6,6.5A50.629,50.629,0,0,1,78.7,73a89.741,89.741,0,0,1-16,19.2c-4-3.6-14.7-14-20.2-27.4h0a40.985,40.985,0,0,1-3.3-15.7,49.89,49.89,0,0,1,.7-8.6A46.94,46.94,0,0,1,41.3,34a32.994,32.994,0,0,0,22,8.7,32.52,32.52,0,0,0,20.9-8.4A56.607,56.607,0,0,1,86.2,49ZM82.5,28.8a27.076,27.076,0,0,1-19.2,8.7c-7.6,0-15.7-3.7-20.2-9.1C48.4,13.9,58,5.1,62.7,5.1,67.5,5.1,77.1,14,82.5,28.8Z" fill="#333"/>
      </g>
    </g>
    <g id="Group_53" data-name="Group 53">
      <g id="Group_52" data-name="Group 52">
        <path id="Path_401" data-name="Path 401" d="M59.6,19.4a2.476,2.476,0,0,0,2.5,2.5h1.1a2.5,2.5,0,0,0,0-5H62.1A2.476,2.476,0,0,0,59.6,19.4Z" fill="#333"/>
      </g>
    </g>
    <g id="Group_55" data-name="Group 55">
      <g id="Group_54" data-name="Group 54">
        <path id="Path_402" data-name="Path 402" d="M45.7,45.6a2.537,2.537,0,0,0,.1,3.6c.3.2.5.5.8.7a2.541,2.541,0,0,0,3.6-.3,2.66,2.66,0,0,0,.6-1.6,2.463,2.463,0,0,0-.9-1.9c-.2-.2-.4-.3-.6-.5A2.532,2.532,0,0,0,45.7,45.6Z" fill="#333"/>
      </g>
    </g>
    <g id="Group_57" data-name="Group 57">
      <g id="Group_56" data-name="Group 56">
        <path id="Path_403" data-name="Path 403" d="M76.6,45.9c-3.2,2.8-8.2,4.4-13.5,4.4a23.744,23.744,0,0,1-8.5-1.5,2.563,2.563,0,0,0-1.8,4.8,28.963,28.963,0,0,0,10.3,1.8c6.5,0,12.7-2.1,16.8-5.7a2.463,2.463,0,0,0,.9-1.9,2.716,2.716,0,0,0-.6-1.7A2.628,2.628,0,0,0,76.6,45.9Z" fill="#333"/>
      </g>
    </g>
  </g>
  <path id="Path_404" data-name="Path 404" d="M2.3,115.4a2.3,2.3,0,0,0,0,4.6H117.6a2.3,2.3,0,1,0,0-4.6Z" fill="#333"/>
  <text id="CATEGORY_C" data-name="CATEGORY C" transform="translate(61 148)" fill="#222" font-size="18" font-family="Arial-BoldMT, Arial" font-weight="700"><tspan x="-58.838" y="0">CATEGORY C</tspan></text>
</svg>
