<svg xmlns="http://www.w3.org/2000/svg" width="120.1" height="152" viewBox="0 0 120.1 152">
  <g id="ic_type_d" transform="translate(0 0.4)">
    <g id="Group_59" data-name="Group 59">
      <path id="Path_405" data-name="Path 405" d="M45.5,68.3a3.7,3.7,0,0,0,3.6-3.8,3.762,3.762,0,0,0-3.6-3.8,3.7,3.7,0,0,0-3.6,3.8A3.831,3.831,0,0,0,45.5,68.3Z" fill="#333"/>
      <path id="Path_406" data-name="Path 406" d="M37.5,77.7a3.762,3.762,0,0,0-3.6-3.8,3.7,3.7,0,0,0-3.6,3.8,3.762,3.762,0,0,0,3.6,3.8A3.7,3.7,0,0,0,37.5,77.7Z" fill="#333"/>
      <path id="Path_407" data-name="Path 407" d="M45.5,94.8A3.7,3.7,0,0,0,49.1,91a3.762,3.762,0,0,0-3.6-3.8A3.7,3.7,0,0,0,41.9,91,3.831,3.831,0,0,0,45.5,94.8Z" fill="#333"/>
      <path id="Path_408" data-name="Path 408" d="M74.5,87.2A3.7,3.7,0,0,0,70.9,91a3.762,3.762,0,0,0,3.6,3.8A3.7,3.7,0,0,0,78.1,91,3.762,3.762,0,0,0,74.5,87.2Z" fill="#333"/>
      <path id="Path_409" data-name="Path 409" d="M86.1,74a3.7,3.7,0,0,0-3.6,3.8,3.762,3.762,0,0,0,3.6,3.8,3.7,3.7,0,0,0,3.6-3.8A3.762,3.762,0,0,0,86.1,74Z" fill="#333"/>
      <path id="Path_410" data-name="Path 410" d="M74.5,60.7a3.7,3.7,0,0,0-3.6,3.8,3.762,3.762,0,0,0,3.6,3.8,3.7,3.7,0,0,0,3.6-3.8A3.762,3.762,0,0,0,74.5,60.7Z" fill="#333"/>
      <path id="Path_411" data-name="Path 411" d="M117.4,64.1H104.3l-.1-1a59.66,59.66,0,0,0-4.7-20.2l-.3-.8,11.4-7.3a2.981,2.981,0,0,0,1.2-1.7,2.581,2.581,0,0,0-.3-2.1,2.407,2.407,0,0,0-1.6-1.2,2.356,2.356,0,0,0-2,.3L96.7,37.2l-.5-.9a46.3,46.3,0,0,0-4.8-6.8A43.776,43.776,0,0,0,73.2,16.3l-.6-.2V10.5a5.231,5.231,0,0,1,5.1-5.3h3.9a2.633,2.633,0,0,0,2.6-2.8A2.76,2.76,0,0,0,81.6-.4H77.7A10.676,10.676,0,0,0,67.3,10.4v4.1l-1.1-.2a36.872,36.872,0,0,0-12.4,0l-1.1.2V10.4A10.547,10.547,0,0,0,42.3-.4H38.4a2.633,2.633,0,0,0-2.6,2.8,2.76,2.76,0,0,0,2.6,2.8h3.9a5.231,5.231,0,0,1,5.1,5.3v5.6l-.6.2A43.776,43.776,0,0,0,28.6,29.5a68.7,68.7,0,0,0-4.8,6.8l-.5.9L12.1,30.1a2.531,2.531,0,0,0-3.6.9,2.581,2.581,0,0,0-.3,2.1,2.982,2.982,0,0,0,1.2,1.7l11.4,7.3-.3.8a59.561,59.561,0,0,0-4.6,20.2l-.1,1H2.6A2.633,2.633,0,0,0,0,66.9a2.76,2.76,0,0,0,2.6,2.8H15.7l.1,1a62.023,62.023,0,0,0,4.6,20.2l.3.8L9.4,98.8a2.982,2.982,0,0,0-1.2,1.7,2.581,2.581,0,0,0,.3,2.1,2.645,2.645,0,0,0,2.3,1.3,2.3,2.3,0,0,0,1.4-.4l11.2-7.1.5.9a46.3,46.3,0,0,0,4.8,6.8c8.4,10.1,19.5,15.6,31.4,15.6s23.1-5.6,31.4-15.6a68.7,68.7,0,0,0,4.8-6.8l.5-.9,11.2,7.1a2.3,2.3,0,0,0,1.4.4,2.772,2.772,0,0,0,2.3-1.3,2.581,2.581,0,0,0,.3-2.1,2.981,2.981,0,0,0-1.2-1.7L99.4,91.5l.3-.8a59.562,59.562,0,0,0,4.6-20.2l.1-1h13.1a2.633,2.633,0,0,0,2.6-2.8A2.81,2.81,0,0,0,117.4,64.1Zm-60,50-1.1-.1C36.2,111.6,21,91.4,21,66.8a57.9,57.9,0,0,1,2-15.1l.2-.7H57.3v63.1ZM25.2,45.4l.7-1.5c6.9-15.1,20-24.5,34.1-24.5,14.2,0,27.3,9.4,34.1,24.5l.7,1.5Zm38.5,68.5-1.1.1V50.9H96.7l.2.7a54.953,54.953,0,0,1,2,15.1C99,91.4,83.8,111.6,63.7,113.9Z" fill="#333"/>
    </g>
    <path id="Path_412" data-name="Path 412" d="M2.3,115.3a2.3,2.3,0,0,0,0,4.6H117.6a2.3,2.3,0,0,0,0-4.6Z" fill="#333"/>
    <text id="CATEGORY_D" data-name="CATEGORY D" transform="translate(61 147.6)" fill="#222" font-size="18" font-family="Arial-BoldMT, Arial" font-weight="700"><tspan x="-58.838" y="0">CATEGORY D</tspan></text>
  </g>
</svg>
