<?xml version="1.0" encoding="utf-8"?>
<!-- Generator: Adobe Illustrator 23.0.3, SVG Export Plug-In . SVG Version: 6.00 Build 0)  -->
<svg version="1.1" id="Layer_1" xmlns="http://www.w3.org/2000/svg" xmlns:xlink="http://www.w3.org/1999/xlink" x="0px" y="0px"
	 viewBox="0 0 512 512" style="enable-background:new 0 0 512 512;" xml:space="preserve">
<style type="text/css">
	.st0{clip-path:url(#SVGID_2_);fill:#EF0039;}
</style>
<g>
	<defs>
		<rect id="SVGID_1_" x="-0.1" y="0" width="512" height="512"/>
	</defs>
	<clipPath id="SVGID_2_">
		<use xlink:href="#SVGID_1_"  style="overflow:visible;"/>
	</clipPath>
	<path id="ic_withdrawal" class="st0" d="M410.7,161.5c-7.7-8.1-18.5-12.6-29.6-12.3h-82.8l30.7-96c1.3-3.6,2-7.4,2-11.2
		c0.5-11-3.6-21.7-11.2-29.6C313,4.1,302.8-0.4,292.1,0H159.3c-19.7-0.8-36.8,13.3-39.9,32.7c-1,3.2-1,7.2-2,10.2L92.9,225.9
		c-1,9.2-2,17.4-3.2,26.6c-1,6.1-1,12.3,0,18.4c4.2,18.6,20.8,31.7,39.9,31.7h87.9l-5.1,23.5c-10.2,42.9-20.4,85.8-30.7,129.8v2
		c-1.3,5.7-2,11.5-2,17.4c0.6,11.9,6.6,22.8,16.4,29.6c6.9,4.8,15.1,7.3,23.5,7.1c3.8,0.1,7.5-0.2,11.2-1
		c11.1-3.4,20.3-11.1,25.6-21.5c37.8-65.4,75.6-129.8,112.4-195.2l23.5-40.9l24.5-42.9c3.6-5.5,5.8-11.9,6.2-18.5
		C422.7,180.7,418.4,169.8,410.7,161.5z M336.1,275.9c-37.8,65.4-75.6,129.8-112.4,195.2c-2,4.1-3.2,4.1-4.1,4.1h-4.1
		c-0.8-0.8-1.2-2-1-3.2c0-1,1-4.1,1-6.1V464c10.2-42.9,20.4-85.8,30.7-129.8l10.2-41.9c-0.2-1.2,0.2-2.4,1-3.2l4.1-22.4H129.6
		c-2,0-4.1-2-5.1-2v-8.2c1-8.2,2-16.4,3.2-25.6L152.2,47c0-3.2,1-5.1,1-8.2c1-3.2,2-4.1,5.1-4.1h132.7c1,0,3.2,0,3.2,1
		c2,2,2,3.2,2,4.1v2l-36.9,115.4c0,1-1,2-1,3.2l-7.2,23.5H381c2,0,3.2,0,4.1,1c0.8,0.8,1.2,2,1,3.2c0,0,0,1-2,4.1l-24.5,42.6
		L336.1,275.9z"/>
</g>
</svg>
