<?xml version="1.0" encoding="utf-8"?>
<!-- Generator: Adobe Illustrator 23.0.3, SVG Export Plug-In . SVG Version: 6.00 Build 0)  -->
<svg version="1.1" id="Layer_1" xmlns="http://www.w3.org/2000/svg" xmlns:xlink="http://www.w3.org/1999/xlink" x="0px" y="0px"
	 viewBox="0 0 320 74" style="enable-background:new 0 0 320 74;" xml:space="preserve">
<style type="text/css">
	.st0{clip-path:url(#SVGID_2_);}
	.st1{fill:#C32033;}
	.st2{fill:#FFD240;}
</style>
<g>
	<defs>
		<rect id="SVGID_1_" y="0" width="320" height="74"/>
	</defs>
	<clipPath id="SVGID_2_">
		<use xlink:href="#SVGID_1_"  style="overflow:visible;"/>
	</clipPath>
	<g class="st0">
		<g id="XMLID_49_">
			<path id="XMLID_71_" class="st1" d="M92.1,17v9.8c0,1.6-0.6,2.3-1.9,2.3c-1,0-1.9-0.4-2.7-1.2c-0.7-0.7-1-1.3-1-2.1V17l0,0h-2.6
				h-1.4v0.3c0,0,1.3,0.4,1.4,1.4v10.8c-0.1,1-1.4,1.4-1.4,1.4v0.3h1.4h2.5l0,0v-1.4c1.2,1,2.5,1.6,4,1.6c2.8,0,4.3-1.6,4.3-4.6V17
				H92.1z"/>
			<path id="XMLID_70_" class="st1" d="M125.6,16.8c-1.3,0-2.6,0.4-3.8,1.2l-0.1,0.1v2.8l0.6-0.5c1-0.8,2.1-1.3,3.4-1.3
				c2.3,0,3.4,1.6,3.4,4.9c0,3.4-1.1,4.9-3.4,4.9c-1.4,0-2.5-0.4-3.4-1.3l-0.6-0.6V30l0.1,0.1c1.2,0.7,2.5,1.2,3.8,1.2
				c4,0,6-2.5,6-7.3C131.5,19.2,129.5,16.8,125.6,16.8z"/>
			<polygon id="XMLID_69_" class="st1" points="121.9,13.1 120.6,15.3 131.8,15.3 131.8,13.1 			"/>
			<path id="XMLID_68_" class="st1" d="M141.4,16.8c-1.5,0-2.8,0.5-4,1.6V17l0,0h-2.5h-1.3v0.3c0,0,1.3,0.4,1.3,1.3v12.6h2.6v-8.9
				c0-0.7,0.3-1.4,1-2.2c0.7-0.7,1.6-1.1,2.7-1.1c1.3,0,1.9,0.7,1.9,2.3v9.8h2.6v-9.8C145.6,18.3,144.1,16.8,141.4,16.8z"/>
			<path id="XMLID_67_" class="st1" d="M159.4,17h-2.5l0,0v11.9l-2.5,0.1c-1,0-1.9-0.1-2.4-0.3c-0.8-0.4-1.2-1-1.2-2.1
				c0-0.8,0.3-1.5,1-2c0.7-0.5,1.5-0.7,2.3-0.6l0.6,0.1l-1-2.3h-0.2c-0.1,0-0.4,0-0.5,0c-1.7,0-1.9-0.7-1.9-1.3
				c0-0.6,0.2-1.3,1.9-1.3c0.4,0,0.7,0.1,1.1,0.1l0.4,0.1v-2.4l-0.3-0.1c-0.4-0.1-1-0.1-1.4-0.1c-1.2,0-2.2,0.3-3.1,0.9
				s-1.3,1.5-1.3,2.7c0,0.8,0.3,1.5,0.8,2.1c0.2,0.3,0.5,0.4,0.8,0.6c-1.2,0.8-1.8,2-1.8,3.7c0,1.3,0.4,2.4,1.1,3.1
				c0.9,0.9,2.3,1.3,4.2,1.3c0.1,0,0.1,0,0.1,0h5.7V18.7l0,0c0.1-1,1.4-1.4,1.4-1.4V17H159.4z"/>
			<polygon id="XMLID_66_" class="st1" points="181.2,13.1 181.2,11.8 178.5,11.8 178.5,15.3 187.6,15.3 188.8,13.1 			"/>
			<path id="XMLID_65_" class="st1" d="M220.2,22.2L220.2,22.2c-1.1-0.1-1.9-0.4-2.3-0.5c-0.9-0.4-0.9-0.7-0.9-0.9
				c0-0.4,0.2-0.8,0.8-1.1c0.5-0.3,1.2-0.4,1.9-0.4c1.6,0,3.1,0.5,4.1,1.5l0.6,0.5v-2.9l-0.1-0.1c-1.3-0.9-2.8-1.4-4.8-1.4
				c-1.3,0-2.5,0.4-3.5,1c-1,0.7-1.5,1.6-1.5,2.8c0,1.3,0.6,2.3,1.9,3c0.7,0.4,1.9,0.7,3.7,1s2.5,1,2.5,2.2c0,1-0.3,2.4-3.2,2.4
				c-1.6,0-3.1-0.5-4-1.5l-0.6-0.5v3l0.1,0.1c1.1,0.8,2.8,1.3,4.8,1.3c1.6,0,2.8-0.4,3.7-1c1.1-0.8,1.6-2.1,1.6-3.7
				C224.9,24.2,223.4,22.7,220.2,22.2z"/>
			<path id="XMLID_64_" class="st1" d="M232.8,22.2L232.8,22.2c-1.1-0.1-1.9-0.4-2.3-0.5c-0.9-0.4-0.9-0.7-0.9-0.9
				c0-0.4,0.2-0.8,0.8-1.1c0.5-0.3,1.2-0.4,1.9-0.4c1.6,0,3.1,0.5,4.1,1.5l0.6,0.5v-2.9l-0.1-0.1c-1.3-0.9-2.8-1.4-4.8-1.4
				c-1.3,0-2.5,0.4-3.5,1c-1,0.7-1.5,1.6-1.5,2.8c0,1.3,0.6,2.3,1.9,3c0.7,0.4,1.9,0.7,3.7,1c1.7,0.3,2.5,1,2.5,2.2
				c0,1-0.3,2.4-3.2,2.4c-1.6,0-3.1-0.5-4-1.5l-0.6-0.5v3l0.1,0.1c1.1,0.8,2.8,1.3,4.8,1.3c1.6,0,2.8-0.4,3.7-1
				c1.1-0.8,1.6-2.1,1.6-3.7C237.5,24.2,235.9,22.7,232.8,22.2z"/>
			<path id="XMLID_63_" class="st1" d="M287.5,24"/>
			<path id="XMLID_62_" class="st1" d="M312.6,22.2L312.6,22.2c-1.1-0.1-1.9-0.4-2.3-0.5c-0.9-0.4-0.9-0.7-0.9-0.9
				c0-0.4,0.2-0.8,0.8-1.1c0.5-0.3,1.2-0.4,1.9-0.4c1.6,0,3.1,0.5,4.1,1.5l0.6,0.5v-2.9l-0.1-0.1c-1.3-0.9-2.8-1.4-4.8-1.4
				c-1.3,0-2.5,0.4-3.5,1c-1,0.7-1.5,1.6-1.5,2.8c0,1.3,0.6,2.3,1.9,3c0.7,0.4,1.9,0.7,3.7,1s2.5,1,2.5,2.2c0,1-0.3,2.4-3.2,2.4
				c-1.6,0-3.1-0.5-4-1.5l-0.6-0.5v3l0.1,0.1c1.1,0.8,2.8,1.3,4.8,1.3c1.6,0,2.8-0.4,3.7-1c1.1-0.8,1.6-2.1,1.6-3.7
				C317.3,24.2,315.7,22.7,312.6,22.2z"/>
			<path id="XMLID_61_" class="st1" d="M316.8,12.6c-0.8,0-1.4,0.2-1.9,0.6c-0.5,0.4-0.7,1-0.7,1.6V16h2.7v-0.6
				c0-0.4,0.1-0.7,0.8-0.7h1.2l1.2-2.2L316.8,12.6L316.8,12.6z"/>
			<path id="XMLID_60_" class="st1" d="M207.8,21.4c-2.5-0.5-3-0.6-3.1-0.7c-0.9-0.2-1.2-0.5-1.2-0.7s0.2-0.4,0.7-0.6
				c0.5-0.2,1.2-0.4,2-0.4c1.9,0,3.5,0.6,4.7,1.8l0.6,0.6v-3l-0.1-0.1c-1.1-1.1-2.8-1.7-5.3-1.7c-1.4,0-2.6,0.3-3.6,0.9
				c-1,0.6-1.6,1.5-1.6,2.5c0,1,0.5,1.9,1.6,2.4c0.3,0.1,0.6,0.2,1,0.4l0.4,0.1c0.4,0.1,1,0.2,1.7,0.4c2.5,0.4,3.9,1.3,3.9,2.6
				c0,2.2-1.8,3.2-5.6,3.1v-4.9h-2.6v7h0.3c1,0.1,2.1,0.1,3,0.1c4.9,0,7.5-1.8,7.5-5.3C212.3,23.6,210.7,22,207.8,21.4z"/>
			<path id="XMLID_59_" class="st1" d="M105.7,20.1c1.9-1.6,3.6-3.1,3.6-3.1h-3.7l-5.4,4.7V17l0,0h-2.5h-1.3v0.3
				c0,0,1.3,0.4,1.3,1.3v12.5h2.6v-6.3c0.6-0.5,1.9-1.8,3.4-3.1c1,0.4,2.2,1.2,2.2,2.5v6.9h2.6V24C108.6,22,107.1,20.7,105.7,20.1z"
				/>
			<path id="XMLID_58_" class="st1" d="M290,29.6v-8.4c0-1.3-0.4-2.3-1.3-3.1h0.1c0.6-0.5,0.9-1.1,0.9-1.8V16H287v0.4
				c0,0.3-0.1,0.5-0.4,0.7c-0.7-0.1-1.4-0.2-2.2-0.2c-1.5,0-2.8,0.3-3.8,1c-1.2,0.7-1.9,1.9-2.2,3.4l-0.1,0.4h2.6l0.1-0.3
				c0.1-0.6,0.4-1.1,1-1.4c0.7-0.4,1.4-0.6,2.3-0.6c1,0,1.7,0.1,2.3,0.5c0.5,0.3,0.8,0.7,0.8,1.2c0,0.2,0,1-1.6,1.3
				c-1.1,0.1-2.2,0.2-3.4,0.4c-2.9,0.4-4.4,1.9-4.4,4.6c0,2.8,1.6,4.3,4.8,4.3c0.7,0,1.4-0.1,2.2-0.1h0.3v-2.5l-0.4,0.1
				c-0.7,0.1-1.4,0.3-2,0.3c-2.2,0-2.4-1.1-2.4-1.9c0-1.3,0.9-2.1,2.8-2.3c2-0.2,3.4-0.4,4.3-0.8v5.4c0,0.7,0.3,1.9,1.5,1.9h1h1V31
				C291,31,290.2,30.6,290,29.6z"/>
			<path id="XMLID_57_" class="st1" d="M248.3,17v9.8c0,1.6-0.6,2.3-1.9,2.3c-1,0-1.9-0.4-2.7-1.2c-0.7-0.7-1-1.3-1-2.1V17l0,0h-2.5
				h-1.4v0.3c0,0,1.3,0.4,1.4,1.4v10.8c-0.1,1-1.4,1.4-1.4,1.4v0.3h1.4h2.5l0,0v-1.4c1.2,1,2.5,1.6,4,1.6c2.8,0,4.3-1.6,4.3-4.6V17
				H248.3z"/>
			<path id="XMLID_56_" class="st1" d="M265.2,29.6v-8.4c0-1.3-0.5-2.4-1.6-3.2c0.5-0.5,0.7-1,0.7-1.6V16h-2.7v0.4
				c0,0.3-0.1,0.4-0.4,0.7c-0.5-0.1-1.1-0.2-1.7-0.2c-1.3,0-2.6,0.3-3.6,1c-1.3,0.7-2,1.9-2,3.5v10.1h2.6v-4.5l0,0
				c0,0,0-1.6,1.5-1.6h2l0.1-2.5h-2.3c-0.6,0-1,0.3-1.2,0.7v-2c0-1,0.3-2.2,3.1-2.2s3.1,1.3,3.1,2.2v9.8h0.2h2.3h1V31
				C266.1,31,265.2,30.6,265.2,29.6z"/>
			<path id="XMLID_55_" class="st1" d="M198.2,17h-2.5l0,0v11.9l-2.5,0.1c-1,0-1.9-0.1-2.4-0.3c-0.8-0.4-1.2-1-1.2-2.1
				c0-0.8,0.3-1.5,1-2s1.5-0.7,2.3-0.6l0.6,0.1l-1-2.3h-0.2c-0.1,0-0.4,0-0.5,0c-1.7,0-1.9-0.7-1.9-1.3c0-0.6,0.2-1.3,1.9-1.3
				c0.4,0,0.7,0.1,1.1,0.1l0.4,0.1v-2.4l-0.3-0.1c-0.4-0.1-1-0.1-1.4-0.1c-1.2,0-2.2,0.3-3.1,0.9s-1.3,1.5-1.3,2.7
				c0,0.8,0.3,1.5,0.8,2.1c0.2,0.3,0.5,0.4,0.8,0.6c-1.2,0.8-1.8,2-1.8,3.7c0,1.3,0.4,2.4,1.1,3.1c0.9,0.9,2.3,1.3,4.2,1.3
				c0.1,0,0.1,0,0.1,0h5.7V18.7l0,0c0.1-1,1.4-1.4,1.4-1.4V17H198.2z"/>
			<path id="XMLID_54_" class="st1" d="M119.6,29.6v-8.4c0-1.3-0.4-2.2-1-3c-0.8-1-2.1-1.5-4-1.5c-1.2,0-2.8,0.5-3.7,1l-0.1,0.1v2.6
				c1.3-0.8,2.1-1,2.1-1l0,0c0.4-0.1,0.9-0.2,1.4-0.2c0.7,0,1.5,0.1,1.9,0.4c0.4,0.4,0.8,0.9,0.8,1.7v9.9h0.2h2.3h1V31
				C120.6,31,119.7,30.6,119.6,29.6z"/>
			<path id="XMLID_53_" class="st1" d="M170.3,29.6v-8.4c0-1.3-0.4-2.2-1-3c-0.8-1-2.1-1.5-4-1.5c-1.2,0-2.8,0.5-3.7,1l-0.1,0.1v2.6
				c1.3-0.8,2.1-1,2.1-1l0,0c0.4-0.1,0.9-0.2,1.4-0.2c0.7,0,1.5,0.1,1.9,0.4c0.4,0.4,0.8,0.9,0.8,1.7v9.9h0.2h2.3h1V31
				C171.3,31,170.4,30.6,170.3,29.6z"/>
			<path id="XMLID_52_" class="st1" d="M275.6,29.6v-8.4c0-1.3-0.4-2.2-1-3c-0.8-1-2.1-1.5-4-1.5c-1.2,0-2.8,0.5-3.7,1l-0.1,0.1v2.6
				c1.3-0.8,2.1-1,2.1-1l0,0c0.4-0.1,0.9-0.2,1.4-0.2c0.7,0,1.5,0.1,1.9,0.4c0.4,0.4,0.8,0.9,0.8,1.7v9.9h0.2h2.3h1V31
				C276.7,31,275.8,30.6,275.6,29.6z"/>
			<path id="XMLID_51_" class="st1" d="M184.7,29.6v-8.4c0-1.6-0.6-2.7-1.9-3.5c-1-0.6-2.2-0.9-3.8-0.9c-1.5,0-2.8,0.3-3.8,1
				c-1.2,0.7-1.9,1.9-2.2,3.4l-0.1,0.4h2.6l0.1-0.3c0.1-0.6,0.4-1.1,1-1.4c0.7-0.4,1.4-0.6,2.3-0.6c1,0,1.7,0.1,2.3,0.5
				c0.5,0.3,0.8,0.7,0.8,1.2c0,0.2,0,1-1.6,1.3c-1.1,0.1-2.2,0.2-3.4,0.4c-2.9,0.4-4.4,1.9-4.4,4.6c0,2.8,1.6,4.3,4.8,4.3
				c0.7,0,1.4-0.1,2.2-0.1h0.3v-2.5l-0.4,0.1c-0.7,0.1-1.4,0.3-2,0.3c-2.2,0-2.4-1.1-2.4-1.9c0-1.3,0.9-2.1,2.8-2.3
				c2-0.2,3.4-0.4,4.3-0.8v5.4c0,0.7,0.3,1.9,1.5,1.9h1h1V31C185.7,31,184.8,30.6,184.7,29.6z"/>
			<path id="XMLID_50_" class="st1" d="M304.3,29.6v-8.4l0,0V17h-2.4l-1.5,1.3l-1.8-1.6l-0.1,0.1c-1.8,0.4-3.3,1.3-4.3,2.5
				c-1.1,1.3-1.7,3-1.7,4.8c0,2.1,0.5,3.8,1.6,5.1c1.2,1.4,2.9,2.1,5,2.1c0.4,0,0.7,0,1.2-0.1h0.3v-2.5l-0.4,0.1
				c-0.3,0.1-0.7,0.1-1,0.1c-1.3,0-2.2-0.4-3-1.3c-0.7-0.9-1.1-2-1.1-3.5c0-1.2,0.3-2.2,1-3.1c0.6-0.8,1.3-1.3,2.1-1.6l2.3,1.9
				l1.3-1.2v3.8l0,0v5.8c0.1,0.7,0.4,1.5,1.5,1.5h1.1h1V31C305.2,31,304.4,30.6,304.3,29.6z"/>
		</g>
		<path id="XMLID_48_" class="st1" d="M81.5,42.5v2.3l0,0v1.3h0.3c0,0,0.4-1.3,1.3-1.3h2.2v11.5h2.7V44.8h3.8v-2.3H81.5z"/>
		<path id="XMLID_47_" class="st1" d="M103,42.5V48h-5.1v-5.4h-4.1v0.3c0,0,1.3,0.4,1.3,1.3v12.1h2.7v-5.9h5.1v5.9h2.7V42.5H103z"/>
		<path id="XMLID_46_" class="st1" d="M115.3,42.5L115.3,42.5h-5.2v0.3c0,0,1.3,0.4,1.3,1.3l0,0L108,56.2v0.1h2.7l0.8-3h4.3l0.7,2.9
			v0.1h2.7L115.3,42.5z M112.1,51.1l1.6-5.7l1.5,5.7H112.1z"/>
		<path id="XMLID_45_" class="st1" d="M130.6,42.5L128,52l-2.6-9.5l0,0h-5.1v0.3c0,0,1.3,0.4,1.3,1.3v12.1h2.4V45.7l3,10.5l0,0h2.1
			l3-10.6v10.6h2.4V42.5H130.6z"/>
		<path id="XMLID_44_" class="st1" d="M214.8,42.5v8.7c0,2.1-0.7,2.9-2.6,2.9c-1.9,0-2.6-0.8-2.6-2.9v-8.7h-4.1v0.3
			c0,0,1.3,0.4,1.3,1.3v6.9c0,2,0.7,5.4,5.3,5.4c4.6,0,5.3-3.4,5.3-5.4v-8.6H214.8z"/>
		<path id="XMLID_43_" class="st1" d="M229.3,42.5v9.3l-5.4-9.3l0,0h-4.2v0.3c0,0,1.3,0.4,1.3,1.3l0,0v12.1h2.5v-9.7l5.5,9.6l0,0
			h2.6V42.5H229.3z"/>
		<path id="XMLID_42_" class="st1" d="M257.2,54v-3.7h4.7V48h-4.7v-3.1h6.4v-2.3h-10.5v0.3c0,0,1.3,0.4,1.3,1.3v12.1h9.4v-2.3
			L257.2,54L257.2,54z"/>
		<path id="XMLID_41_" class="st1" d="M274,50.2c1.6-0.4,2.5-1.8,2.5-3.6c0-2.6-1.6-4.1-4.4-4.1h-6.9v0.3c0,0,1.3,0.4,1.3,1.3v12.2
			h2.7v-5.6h2.2l2.5,5.5l0,0h3L274,50.2z M271.1,48.5h-1.9v-3.7h2.3c1.4,0,2.2,0.6,2.2,1.9C273.7,47.7,273.3,48.5,271.1,48.5z"/>
		<path id="XMLID_40_" class="st1" d="M233.9,42.5v0.3c0,0,1.3,0.4,1.3,1.3v12.1h2.6V42.5H233.9z"/>
		<path id="XMLID_39_" class="st1" d="M248.8,42.5l-2.5,10l-2.2-9l0,0c-0.4-1-1.3-1-1.3-1h-2.5v0.3c0,0,1,0.3,1.3,1.1l3.3,12.3v0.1
			h3l3.7-13.7v-0.1H248.8z"/>
		<path id="XMLID_38_" class="st1" d="M288.9,42.5v0.3c0,0,1.3,0.4,1.3,1.3v12.1h2.6V42.5H288.9z"/>
		<path id="XMLID_37_" class="st1" d="M147,42.5l-2.6,9.5l-2.6-9.5l0,0h-5.1v0.3c0,0,1.3,0.4,1.3,1.3v12.1h2.4V45.7l3,10.5l0,0h2.1
			l3-10.6v10.6h2.4V42.5H147z"/>
		<path id="XMLID_36_" class="st1" d="M160.4,42.5L160.4,42.5h-5.2v0.3c0,0,1.3,0.4,1.3,1.3l0,0l-3.4,12.1v0.1h2.7l0.8-3h4.3
			l0.7,2.9v0.1h2.7L160.4,42.5z M157.2,51.1l1.6-5.7l1.5,5.7H157.2z"/>
		<path id="XMLID_35_" class="st1" d="M170.8,47.7c-1.4-0.5-2.8-0.9-2.7-1.9c0.1-1,1.3-1.3,2-1.3c0.2,0,1.4,0,2.5,0.4
			c0.9,0.3,1.6,0.8,2,1.1v-2.6c-1.4-0.8-2.5-1.1-4.6-1.1c-2.6,0-4.8,1.5-4.5,3.8c0.3,2.2,2.4,3,4.3,3.8c1.6,0.6,2.9,1.2,2.9,2.4
			c0,1.5-1.3,1.9-2.4,1.9c-1,0-2.2-0.4-3.3-1.3c-0.8-0.7-1.3-1.2-1.3-1.3v2.9c1,1.4,3.4,2,4.6,2c3.2-0.1,5-1.6,5-4.3
			C175.3,49.6,172.7,48.5,170.8,47.7z"/>
		<path id="XMLID_34_" class="st1" d="M183.5,42.5L183.5,42.5h-5.2v0.3c0,0,1.3,0.4,1.3,1.3l0,0l-3.4,12.1v0.1h2.7l0.8-3h4.3
			l0.7,2.9v0.1h2.7L183.5,42.5z M180.3,51.1l1.6-5.7l1.5,5.7H180.3z"/>
		<path id="XMLID_33_" class="st1" d="M188.2,42.5v2.3l0,0v1.3h0.3c0,0,0.4-1.3,1.3-1.3h2.2v11.5h2.7V44.8h3.8v-2.3H188.2z"/>
		<path id="XMLID_32_" class="st1" d="M295.4,42.5v2.3l0,0v1.3h0.3c0,0,0.4-1.3,1.3-1.3h2.2v11.5h2.7V44.8h3.8v-2.3H295.4z"/>
		<path id="XMLID_31_" class="st1" d="M315.3,42.5l-2.3,5.4l-1.9-4.3c-0.4-1-1.3-1-1.3-1h-2.6v0.3c0,0,0.8,0.3,1.2,0.9l3.3,7.1v5.5
			h2.7v-5.5l3.8-8.3H315.3z"/>
		<path id="XMLID_30_" class="st1" d="M283.7,47.7c-1.4-0.5-2.8-0.9-2.7-1.9c0.1-1,1.3-1.3,2-1.3c0.2,0,1.4,0,2.5,0.4
			c0.9,0.3,1.6,0.8,2,1.1v-2.6c-1.4-0.8-2.5-1.1-4.6-1.1c-2.6,0-4.8,1.5-4.5,3.8c0.3,2.2,2.4,3,4.3,3.8c1.6,0.6,2.9,1.2,2.9,2.4
			c0,1.5-1.3,1.9-2.4,1.9c-1,0-2.2-0.4-3.3-1.3c-0.8-0.7-1.3-1.2-1.3-1.3v2.9c1,1.4,3.4,2,4.6,2c3.2-0.1,5-1.6,5-4.3
			C288.3,49.6,285.7,48.5,283.7,47.7z"/>
		<g id="XMLID_18_">
			<circle id="XMLID_29_" class="st2" cx="36.7" cy="37" r="36.2"/>
			<g id="XMLID_25_">
				<g id="XMLID_27_">
					<path id="XMLID_28_" class="st1" d="M36.7,73.7C16.5,73.7,0,57.2,0,37S16.5,0.3,36.7,0.3S73.4,16.8,73.4,37
						C73.4,57.2,56.9,73.7,36.7,73.7z M36.7,1.4C17,1.4,1,17.4,1,37s16,35.7,35.7,35.7c19.6,0,35.7-16,35.7-35.7S56.3,1.4,36.7,1.4z
						"/>
				</g>
				<path id="XMLID_26_" class="st1" d="M67.4,37c0-17-13.8-30.8-30.8-30.8C19.7,6.3,5.9,20.1,5.9,37c0,17,13.8,30.8,30.8,30.8
					C53.6,67.8,67.4,54,67.4,37z M60.1,54.9L60.1,54.9c-0.2-1.1-1.6-2-2.2-2.4c-1-0.6-1.7-1.3-1.8-1.9c-0.1-0.3,0.1-0.6,0.1-0.7
					l0.1-0.1c0.3,0.2,1.1,0.8,3.1,2.2c0.8,0.6,1.3,1.2,1.3,1.8C60.6,54.2,60.4,54.6,60.1,54.9z M48.8,53.6c-0.1,0.4-0.4,0.6-0.5,0.7
					l-2.4,1.4c-0.1,0.1-0.5,0.2-0.9,0.1c-0.3-0.1-0.5-0.3-0.7-0.7l-0.4-0.8l0.1-0.1c0.1-0.2,0.3-0.4,0.4-0.4c0.1,0,0.2-0.1,0.2-0.2
					c0-0.1-0.1-0.2-0.2-0.2S44.2,53.1,44,53c-0.2-0.3-0.6-0.7-1.1-0.7v-0.8c1.9-0.3,3-0.7,3.8-1.5l0,0l1.9,2.7
					C48.8,53,48.9,53.3,48.8,53.6z M49,54.5c0.1,0,0.1,0,0.2,0c0.2,0.1,0.4,0.2,0.5,0.4c0.1,0.2,0.1,0.4,0.1,0.6
					c-0.1,0.2-0.2,0.4-0.4,0.5l-0.1,0.1l0,0l-2.5,1.4c-0.4,0.2-0.9,0.1-1.1-0.3c-0.1-0.2-0.1-0.4-0.1-0.6c0.1-0.2,0.2-0.4,0.4-0.5
					l0.1-0.1l0,0l2.4-1.4l0,0l0.1-0.1C48.7,54.5,48.9,54.5,49,54.5z M43.6,53.9c-0.2,0.3-0.4,0.5-0.7,0.5h-12
					c-0.3,0-0.5-0.2-0.7-0.5c-0.1-0.1-0.2-0.2-0.3-0.3c0.1-0.1,0.2-0.2,0.3-0.3c0.2-0.3,0.4-0.5,0.7-0.5h11.9c0.3,0,0.5,0.2,0.7,0.5
					c0.1,0.1,0.2,0.2,0.3,0.3C43.8,53.6,43.6,53.8,43.6,53.9z M31.2,61c0.8-0.5,1.3-1.4,1.6-2.7c0.4,0.8,1.3,1.4,2.1,1.9
					c0.6,0.4,1.2,0.7,1.4,1.1h-6C30.7,61.3,30.9,61.2,31.2,61z M28.9,61.1c0.5-0.2,1.2-0.7,1.4-1.5c0.1-0.1,0.1-0.3,0.1-0.4
					c0.1-0.4,0.2-0.8,0.5-1.3c0.4-0.7,1-1.3,1.4-1.5v0.9c-0.1,1.7-0.6,2.8-1.5,3.4C30.3,61,29.5,61.1,28.9,61.1z M35.1,59.8
					c-1-0.6-2-1.2-2-2.2V56h3.4v3.2c0,0.1,0.1,0.2,0.2,0.2s0.2-0.1,0.2-0.2V56h3.3c0,0.2,0,0.7,0,1.6c0,1-1,1.6-2,2.2
					c-0.6,0.4-1.2,0.7-1.6,1.2C36.3,60.6,35.7,60.2,35.1,59.8z M38.5,60.3c0.8-0.5,1.8-1.1,2.1-2c0.2,1.3,0.7,2.2,1.6,2.8
					c0.2,0.1,0.5,0.3,0.8,0.4h-6C37.3,61,37.9,60.7,38.5,60.3z M42.5,60.6C41.6,60,41,58.8,41,57.1v-0.9c0.4,0.1,1.1,0.9,1.5,1.6
					c0.3,0.4,0.4,0.9,0.5,1.3c0.1,0.1,0.1,0.3,0.1,0.4c0.3,0.8,0.9,1.3,1.4,1.5C43.9,61.1,43.1,61,42.5,60.6z M36.8,55.5L36.8,55.5
					c-0.1-0.1-0.1-0.1-0.1,0h-5.5v-0.6h11.3v0.6H36.8z M31.9,56h0.1c-0.5,0.4-1,1-1.4,1.6c-0.3,0.4-0.4,0.9-0.5,1.3
					c-0.1,0.1-0.1,0.3-0.1,0.4c-0.3,0.8-0.9,1.2-1.4,1.3c0.2-0.4,0.3-1.1,0.4-1.7c0.1-0.4,0.1-0.7,0.1-0.9
					C29.8,56.2,31.8,56,31.9,56z M45.7,61.9c0.4,0,0.7,0.3,0.7,0.7s-0.3,0.7-0.7,0.7H27.8c-0.4,0-0.7-0.3-0.7-0.7s0.3-0.7,0.7-0.7
					H45.7z M43.5,59.5c-0.1-0.1-0.1-0.3-0.1-0.4c-0.1-0.4-0.3-0.9-0.5-1.3c-0.4-0.6-0.9-1.3-1.4-1.6h0.1c0.1,0,2.2,0.1,2.8,2.1
					c0.1,0.2,0.1,0.5,0.1,0.9c0.1,0.6,0.1,1.2,0.4,1.7C44.3,60.5,43.8,60.1,43.5,59.5z M29.2,53.3c-0.1,0-0.2,0.1-0.2,0.2
					c0,0.1,0.1,0.2,0.2,0.2s0.2,0.1,0.4,0.2l-0.4,1c-0.1,0.4-0.4,0.6-0.7,0.7c-0.4,0.1-0.7-0.1-0.9-0.1l-2.3-1.3l-0.1-0.1
					c-0.1-0.1-0.4-0.3-0.5-0.7c-0.1-0.3,0-0.6,0.3-1l1.9-2.8c0.8,0.7,2,1.2,3.8,1.5v1c-0.4,0.1-0.7,0.4-0.9,0.7
					C29.5,53.1,29.4,53.3,29.2,53.3z M27.7,57.3c-0.2,0.4-0.7,0.5-1.1,0.3l-2.5-1.4l0,0l-0.1-0.1c-0.2-0.1-0.3-0.3-0.4-0.5
					c-0.1-0.2,0-0.4,0.1-0.6c0.1-0.3,0.4-0.4,0.7-0.4c0.1,0,0.3,0,0.4,0.1l2.4,1.4l0.1,0.1l0,0l0.1,0.1
					C27.8,56.4,27.9,56.8,27.7,57.3z M16.1,47.1C16,46.9,16,46.7,16,46.6c0.1-0.2,0.2-0.4,0.4-0.5c0.1-0.1,0.3-0.1,0.4-0.1
					s0.1,0,0.2,0c0.2,0.1,0.4,0.2,0.5,0.4l1.5,2.6c0.1,0.2,0.1,0.4,0.1,0.6c-0.1,0.2-0.2,0.4-0.4,0.5c-0.4,0.2-0.9,0.1-1.1-0.3
					L16.1,47.1z M16.8,49.4l-2.8,2c-0.1,0.1-0.1,0.1-0.2,0.1c-0.1,0-0.1,0.1-0.1,0.1l-0.1,0.1c-0.8,0.6-1.9,0.2-2.4,0.1
					c0.1-0.4,0.4-1.6,1.3-2L16,48L16.8,49.4z M18.1,46.2c-0.1-0.1-0.2-0.5-0.1-0.9c0.1-0.3,0.3-0.5,0.7-0.7l5.3-2.5
					c0.1,0.1,0.1,0.3,0.2,0.4c0.4,1,0.6,2.1,0.7,3.1C25,45.8,25,46,25,46.2l-4,2.7c-0.4,0.2-0.7,0.4-1,0.3c-0.4-0.1-0.6-0.4-0.7-0.5
					L18.1,46.2z M24.6,42.4c-0.6-1.7-1.6-2.3-2.4-2.8c-0.6-0.4-1-0.7-1.2-1.3c0.1,0.1,0.7,0.8,2.2,1.2c1.7,0.4,2.4,1.3,2.8,3.2
					c0.1,0.6,0.2,1.2,0.3,1.9c0.4,2.5,0.7,5.4,4.1,6.3c-4.2-0.7-4.6-2.6-5.1-5.4C25.2,44.5,25,43.5,24.6,42.4z M21,39.2L21,39.2
					l-3.7,0.3c-0.4,0-0.7-0.1-1-0.2C16,39,16,38.6,16,38.4v-2.8c0-0.1,0-0.6,0.3-0.8c0.1-0.1,0.4-0.2,0.7-0.2c0.1,0,0.1,0,0.2,0
					l13,1l0,0l1.4,0.1l0,0h0.2v2.7c-0.4-0.2-0.7-0.4-0.7-0.7c0-0.1-0.1-0.2-0.2-0.2c-0.1,0-0.2,0.1-0.2,0.2c-0.1,0.3-0.5,0.6-1,0.9
					c-0.1,0-0.1,0.1-0.1,0.1c-0.1-0.1-0.4-0.3-0.6-0.4c-0.2-0.1-0.5-0.4-0.6-0.5c0-0.1-0.1-0.2-0.2-0.2c-0.1,0-0.2,0.1-0.2,0.2
					s-0.3,0.3-0.6,0.5c-0.2,0.1-0.5,0.3-0.7,0.5c-0.7-0.4-1.7-0.6-2.8-0.7c-1.4-0.1-2.2-0.3-2.8-0.7c-0.1-0.1-0.1-0.1-0.3,0
					c-0.1,0.1-0.1,0.1-0.1,0.2C20.4,38.3,20.7,38.8,21,39.2z M16.1,26.9l1.5-2.6c0.1-0.2,0.3-0.3,0.5-0.4c0.1,0,0.1,0,0.2,0
					c0.1,0,0.3,0,0.4,0.1c0.2,0.1,0.3,0.3,0.4,0.5c0.1,0.2,0,0.4-0.1,0.6l-1.5,2.6c-0.2,0.4-0.7,0.5-1.1,0.3S15.9,27.3,16.1,26.9z
					 M12.9,24.5c-0.1,0-0.1-0.1-0.2-0.1c-0.1,0-0.1-0.1-0.1-0.1l-0.1-0.1c-1-0.4-1.2-1.6-1.3-2c0.4-0.1,1.6-0.5,2.4,0.1l3.3,2.3
					L16,26L12.9,24.5z M18.1,27.9l1.4-2.4c0.1-0.1,0.3-0.4,0.7-0.5c0.1,0,0.1,0,0.1,0c0.2,0,0.5,0.1,0.7,0.3l10.7,7.3l0.1,0.3l0,0
					c0,0,0,0.1,0,0.1c0,0.1,0.1,0.2,0.2,0.2c0.1,0,0.1,0.1,0.2,0.2c0.1,0.2,0.4,0.4,0.7,0.4h0.2l0,0V34c0,0.1-0.3,0.3-0.6,0.4
					c-0.3,0.2-0.7,0.4-0.9,0.7l-1.5-0.1l-11.7-5.7c-0.4-0.1-0.6-0.4-0.7-0.7C17.8,28.3,18,28,18.1,27.9z M53.8,14.8
					c0.4,0,0.8,0.4,0.8,0.8v0.7H18.7v-0.7c0-0.4,0.4-0.8,0.8-0.8L53.8,14.8L53.8,14.8z M34.6,14.4c0.1-0.1,0.4-0.2,0.5-0.2h3.1
					c0.2,0,0.4,0.1,0.5,0.2H34.6z M54.6,16.9v1.3H18.7v-1.3H54.6z M54.6,18.7v0.7c0,0.4-0.4,0.8-0.8,0.8H19.5
					c-0.4,0-0.8-0.4-0.8-0.8v-0.7H54.6z M43.2,26.3c0,1.8-0.4,3.1-1.3,3.9c-0.5,0.4-1.2,0.7-1.7,0.7c0.1,0,0.1-0.1,0.1-0.1
					c1-0.7,1.6-2.6,1.6-5.4c0-0.5,0.1-2.9,3.1-3.8c-0.1,0.1-0.1,0.1-0.1,0.1C43.3,22.9,43.2,25.5,43.2,26.3z M57.2,26.9
					c0.1,0.2,0.1,0.4,0.1,0.6c-0.1,0.2-0.2,0.4-0.4,0.5c-0.2,0.1-0.4,0.1-0.6,0.1c-0.2-0.1-0.4-0.2-0.5-0.4l-0.1-0.1l0,0l-0.7-1.2
					l-0.7-1.3c-0.1-0.2-0.1-0.4-0.1-0.6c0.1-0.2,0.2-0.4,0.4-0.5c0.1-0.1,0.3-0.1,0.4-0.1c0.3,0,0.6,0.1,0.7,0.4L57.2,26.9z
					 M56.6,24.7l2.8-2c0.1-0.1,0.1-0.1,0.2-0.1c0.1,0,0.1-0.1,0.1-0.1l0.1-0.1c0.8-0.6,1.9-0.2,2.4-0.1c-0.1,0.4-0.4,1.6-1.3,2
					L57.3,26L56.6,24.7z M55.1,27.5l0.2,0.4c0.1,0.1,0.2,0.5,0.1,0.9c-0.1,0.3-0.3,0.5-0.7,0.7L43,35.1l-1.4,0.1l0,0
					c-0.1-0.3-0.5-0.5-0.9-0.7c-0.2-0.1-0.4-0.3-0.5-0.4v-0.1h0.3c0.4,0,0.6-0.3,0.7-0.4c0.1-0.1,0.1-0.2,0.2-0.2
					c0.1,0,0.2-0.1,0.2-0.2c0-0.1-0.1-0.2-0.2-0.2l0.1-0.1l10.7-7.3c0.4-0.2,0.7-0.4,1-0.3c0.4,0.1,0.6,0.4,0.7,0.5L55.1,27.5z
					 M56.1,34.6c0.4-0.1,0.7,0.1,1,0.2c0.3,0.2,0.3,0.7,0.3,0.8v2.8c0,0.1,0,0.6-0.3,0.8c-0.2,0.2-0.5,0.3-1,0.2l-3.7-0.3
					c0.4-0.4,0.6-0.9,0.6-1.6c0-0.1-0.1-0.2-0.1-0.2c-0.1-0.1-0.2,0-0.3,0C52,37.7,51.2,38,49.8,38c-1.1,0.1-2,0.3-2.8,0.7
					c-0.2-0.2-0.4-0.4-0.7-0.4c-0.2-0.1-0.5-0.4-0.6-0.5c0-0.1-0.1-0.2-0.2-0.2c-0.1,0-0.2,0.1-0.2,0.2s-0.3,0.3-0.6,0.5
					c-0.2,0.1-0.4,0.3-0.7,0.5c-0.1-0.1-0.1-0.1-0.2-0.1c-0.4-0.3-1-0.6-1-0.9c0-0.1-0.1-0.2-0.2-0.2c-0.1,0-0.2,0.1-0.2,0.2
					c-0.1,0.2-0.3,0.4-0.7,0.7v-2.8l3.9-0.3l0,0L56.1,34.6z M33.1,40.3c-0.3,0.4-0.5,0.8-0.5,1.3v8.8c-1.4-0.8-1.6-3.1-1.6-4.1v-5.7
					c0-0.1-0.1-0.2-0.2-0.2s-0.2,0.1-0.2,0.2v5.7c0,0.9,0.1,2.8,1.1,3.9c-0.7-0.4-1.2-1-1.5-2.2c-0.1-0.6-0.3-1.4-0.4-2.2
					c-0.2-1.7-0.4-3.7-1.4-5.1v-0.1c0-0.6,0.7-1,1.3-1.4c0.4-0.2,0.8-0.5,1-0.8c0.2,0.2,0.5,0.4,0.8,0.6
					C32.3,39.2,33,39.7,33.1,40.3z M41.3,21.3c-0.1,0.1-0.2,0.1-0.4,0.3c-0.1-0.1-0.4-0.2-0.5-0.3c-0.2-0.1-0.5-0.3-0.6-0.4v-0.1h3
					C42.3,20.8,41.8,21,41.3,21.3z M45,21.1c-1.8,0.5-3.5,1.9-3.5,4.3c0,3.4-0.7,4.6-1.3,5.1c-0.3,0.2-0.6,0.3-0.8,0.3
					c0.1-0.7,0.3-2.2,0.7-6c0.1-1.4,0.7-2.5,1.6-3.1C42.6,21.1,43.9,21,45,21.1z M40.2,21.7c0.1,0.1,0.3,0.1,0.4,0.2
					c-0.4,0.4-0.7,1-1,1.8c0-0.1-0.1-0.2-0.1-0.3c-0.1-0.5-0.6-1-1.1-1.3c0.1-0.1,0.4-0.3,0.6-0.4c0.2-0.1,0.4-0.2,0.6-0.4
					C39.8,21.4,40,21.6,40.2,21.7z M39.4,20.7c0,0.1-0.3,0.3-0.6,0.4c-0.2,0.1-0.5,0.3-0.7,0.5c0,0,0,0-0.1,0c-0.5-0.4-1-0.7-1-1
					v-0.1h2.5C39.4,20.7,39.4,20.7,39.4,20.7z M37.8,22.2c0.6,0.4,1.2,0.8,1.3,1.3c0.2,0.6,0.2,2.6,0,4.6l-0.4,2.8h-1.9V23
					c0-0.1-0.1-0.2-0.2-0.2s-0.2,0.1-0.2,0.2v8h-1.7l-0.4-2.8c-0.2-2-0.1-4,0-4.6c0.1-0.6,0.7-1,1.3-1.3c0.4-0.3,0.7-0.5,1-0.8
					C37,21.6,37.4,21.9,37.8,22.2z M36.5,20.7c-0.1,0.4-0.5,0.7-1,1c0,0,0,0-0.1,0c-0.2-0.2-0.4-0.4-0.7-0.5
					c-0.2-0.1-0.5-0.3-0.6-0.4c0-0.1,0-0.1-0.1-0.1L36.5,20.7L36.5,20.7z M34.4,21.7c0.2,0.1,0.4,0.2,0.5,0.4
					c-0.4,0.4-0.9,0.7-1.1,1.3c0,0.1-0.1,0.1-0.1,0.3c-0.2-0.7-0.5-1.3-0.9-1.7c0.1-0.1,0.2-0.1,0.4-0.2c0.2-0.1,0.4-0.2,0.6-0.4
					C34,21.5,34.2,21.6,34.4,21.7z M33.6,20.8c0,0.1-0.3,0.3-0.6,0.4c-0.1,0.1-0.4,0.2-0.5,0.3c-0.1-0.1-0.2-0.2-0.4-0.3
					c-0.4-0.3-1-0.5-1.6-0.6h3.1C33.6,20.7,33.6,20.7,33.6,20.8z M31.9,21.7c1,0.6,1.5,1.6,1.6,3.1c0.4,3.7,0.6,5.3,0.7,6
					c-0.1,0-0.5,0-1-0.3c-0.6-0.4-1.3-1.8-1.3-5.1c0-2.4-1.7-3.7-3.5-4.3C29.5,21,30.8,21,31.9,21.7z M33.9,31.5L33.9,31.5h0.6l0,0
					h4.4l0,0h0.6c0.1,0,0.1,0,0.1,0l0,0V32h-5.7V31.5z M40.4,32.4c0.1,0,0.2,0.1,0.4,0.3c0.1,0.1,0.1,0.1,0.1,0.1
					C40.9,33,40.9,33,40.8,33c-0.1,0.1-0.2,0.3-0.4,0.3h-7.2c-0.1,0-0.2-0.1-0.4-0.3c-0.1-0.1-0.1-0.1-0.1-0.1
					c0.1-0.1,0.1-0.1,0.1-0.1c0.1-0.1,0.2-0.3,0.4-0.3H40.4z M42.6,38.3c0.2,0.3,0.6,0.5,1,0.7c0.6,0.4,1.3,0.8,1.3,1.5v0.1
					c-0.9,1.5-1.2,3.4-1.4,5.1c-0.1,0.8-0.2,1.6-0.4,2.2c-0.3,1.3-1,1.9-1.7,2.3c1.1-1.1,1.3-3.1,1.3-4v-5.7c0-0.1-0.1-0.2-0.2-0.2
					s-0.2,0.1-0.2,0.2v5.7c0,1-0.1,3.4-1.6,4.1c0-2,0-7.3,0-8.8c0-0.4-0.1-0.8-0.4-1.2c0.1-0.5,0.7-0.9,1.3-1.3
					C42,38.9,42.4,38.6,42.6,38.3z M44.5,39.1c0.1-0.1,0.3-0.2,0.5-0.4s0.4-0.2,0.5-0.4c0.1,0.1,0.4,0.3,0.5,0.4
					c0.1,0.1,0.3,0.2,0.4,0.3c-0.4,0.3-0.9,0.7-1.2,1C45.2,39.7,44.9,39.4,44.5,39.1z M41.2,38.8c-0.4,0.3-0.9,0.6-1.2,1v-4.3
					c0-0.1-0.1-0.2-0.2-0.2s-0.2,0.1-0.2,0.2v4.3c-0.3-0.2-0.7-0.4-1-0.7v-3.4c0-0.3,0.4-0.5,0.7-0.7c0.2-0.1,0.4-0.2,0.6-0.4
					c0.1,0.1,0.4,0.3,0.6,0.4c0.4,0.2,0.7,0.4,0.7,0.7V38.8z M36.6,40.2c-0.1,0-0.2,0.1-0.2,0.2V51h-2.5c-0.1,0-0.1-0.1-0.2-0.1
					c-0.1-0.1-0.4-0.1-0.6-0.1v-9.2c0-1,1-1.6,2-2.2c0.6-0.4,1.2-0.7,1.6-1.2c0.3,0.4,0.9,0.8,1.6,1.2c1,0.6,2,1.2,2,2.2
					c0,1.7,0,7.6,0,9.3C40.1,51,40,51,39.8,51c-0.1,0-0.1,0.1-0.2,0.1h-2.8V40.4C36.8,40.3,36.7,40.2,36.6,40.2z M37.3,34.8
					c0.4,0.2,0.7,0.4,0.7,0.7v3.1c-0.6-0.4-1.1-0.7-1.2-1.2c0-0.1-0.1-0.1-0.1-0.1v-0.1v-1.8c0-0.1-0.1-0.2-0.2-0.2
					s-0.2,0.1-0.2,0.2v1.8c0,0.1,0,0.1,0,0.1c-0.1,0-0.1,0.1-0.1,0.1c-0.1,0.4-0.4,0.7-1,1v-3c0-0.3,0.4-0.5,0.7-0.7
					c0.2-0.1,0.4-0.2,0.6-0.4C36.9,34.6,37.1,34.8,37.3,34.8z M37,33.9h2.7l0,0v0.1c0,0.1-0.3,0.3-0.6,0.4c-0.2,0.1-0.5,0.3-0.7,0.5
					c-0.2-0.2-0.5-0.4-0.7-0.5S37.1,34.1,37,33.9L37,33.9z M36.5,33.9c0,0.1-0.3,0.3-0.6,0.4c-0.2,0.1-0.5,0.3-0.7,0.5
					c-0.2-0.2-0.5-0.4-0.7-0.5s-0.4-0.3-0.5-0.4v-0.1L36.5,33.9C36.6,33.9,36.5,33.9,36.5,33.9z M34.2,34.8c0.4,0.2,0.7,0.4,0.7,0.7
					v3.4L34.8,39c-0.4,0.2-0.7,0.4-1.1,0.7v-4.3c0-0.1-0.1-0.2-0.2-0.2s-0.2,0.1-0.2,0.2v4.1c-0.2-0.4-0.7-0.7-1-0.9v-3.1
					c0-0.3,0.4-0.5,0.7-0.7c0.2-0.1,0.4-0.2,0.6-0.4C33.8,34.6,34,34.8,34.2,34.8z M28.1,40.1c-0.3-0.4-0.7-0.7-1.1-1
					c0.1-0.1,0.3-0.2,0.5-0.4c0.2-0.1,0.4-0.2,0.5-0.4c0.1,0.1,0.4,0.3,0.5,0.4c0.1,0.1,0.3,0.2,0.4,0.3
					C28.6,39.3,28.2,39.7,28.1,40.1z M29.4,45.9c0.1,0.8,0.2,1.6,0.4,2.3c0.4,1.3,1,2,1.8,2.5c-4-0.5-4.4-3.4-4.8-6.2
					c-0.1-0.7-0.1-1.3-0.3-1.9c-0.5-2.1-1.3-3-3.1-3.5c-0.7-0.1-1.1-0.4-1.4-0.7c0.6,0.1,1.2,0.2,1.7,0.2
					C28.4,38.9,28.9,42.6,29.4,45.9z M31,51.6h11.3v0.6H31V51.6z M41.9,50.7c0.7-0.4,1.4-1.2,1.7-2.5c0.1-0.7,0.3-1.4,0.4-2.3
					c0.4-3.3,0.9-6.9,5.8-7.2c0.5,0,1-0.1,1.6-0.2c-0.3,0.2-0.7,0.4-1.3,0.6c-1.9,0.5-2.6,1.4-3.1,3.5c-0.1,0.6-0.2,1.3-0.3,1.9
					C46.2,47.2,45.8,50.1,41.9,50.7z M41.2,32.2L41,32.2c-0.1-0.1-0.4-0.3-0.6-0.3h-0.3v-0.5c0.6-0.1,1.3-0.3,2-0.8
					c0.1-0.1,0.1-0.1,0.1-0.1L41.2,32.2z M45.1,22c0.5-0.4,1.2-0.7,2-0.5c0.1,0,0.2-0.1,0.3-0.2c0-0.1-0.1-0.2-0.1-0.3
					c-0.1,0-0.6-0.2-1.3-0.3h3c0,0.2-0.1,0.4-0.3,0.7l-5.2,7.7c0.3-0.7,0.4-1.7,0.4-2.8C43.7,25.6,43.8,23.1,45.1,22z M27.7,20.7
					c-0.7,0.1-1.3,0.3-1.3,0.3c-0.1,0.1-0.2,0.1-0.1,0.3c0,0.1,0.1,0.2,0.3,0.2c0.8-0.1,1.5,0.1,2,0.5c1.3,1.1,1.3,3.6,1.3,4.3
					c0,1.3,0.2,2.5,0.7,3.3l-5.6-8.2c-0.1-0.2-0.3-0.5-0.3-0.7L27.7,20.7L27.7,20.7z M30.3,26.3c0-0.7-0.1-3.4-1.5-4.7l-0.1-0.1
					c2.6,1,2.8,3.3,2.8,3.7c0,2.8,0.5,4.7,1.6,5.4c0.1,0,0.1,0.1,0.1,0.1c-0.5-0.1-1-0.3-1.6-0.7C30.7,29.5,30.2,28.1,30.3,26.3z
					 M31.3,30.6c0.7,0.6,1.5,0.7,2.2,0.8v0.5h-0.2c-0.3,0-0.5,0.2-0.7,0.4l0,0l-0.3-0.2l-1.3-1.9l0,0C31,30.3,31.1,30.4,31.3,30.6z
					 M42.7,50.9c3.5-0.9,3.9-3.7,4.3-6.3c0.1-0.7,0.1-1.3,0.3-1.9c0.4-2,1.1-2.8,2.8-3.2c1.5-0.4,2.2-1.2,2.2-1.3v-0.1
					c0,0,0.1,0,0.1-0.1c-0.1,0.7-0.6,1-1.3,1.4c-0.8,0.5-1.8,1.2-2.4,2.8c-0.4,1.1-0.6,2.2-0.7,3.1C47.5,48.3,47.2,50.3,42.7,50.9z
					 M48.6,45.6c0.2-1,0.4-2,0.7-3.1c0.1-0.1,0.1-0.3,0.1-0.4l5.2,2.5c0.4,0.1,0.6,0.4,0.7,0.7c0.1,0.4-0.1,0.7-0.1,0.9l-1.3,2.4
					c-0.1,0.1-0.3,0.4-0.7,0.5c-0.3,0.1-0.6,0-1-0.3l-3.9-2.6l0,0C48.5,46,48.5,45.8,48.6,45.6z M54.3,48.9l0.1-0.1l0,0l0.7-1.2
					l0.7-1.3c0.2-0.4,0.7-0.5,1.1-0.3s0.5,0.7,0.3,1.1l-1.5,2.6c-0.1,0.2-0.3,0.3-0.5,0.4c-0.2,0.1-0.4,0-0.6-0.1
					C54.2,49.8,54.1,49.3,54.3,48.9z M60.5,49.5c0.1,0,0.1,0.1,0.2,0.1c0.1,0,0.1,0,0.1,0.1l0.1,0.1c1,0.4,1.2,1.6,1.3,2
					c-0.4,0.1-1.6,0.5-2.4-0.1l-3.3-2.3l0.7-1.3L60.5,49.5z M61,54.2c0-0.1,0.1-0.3,0.1-0.4c0-0.4-0.1-0.8-0.4-1.2
					c0.1,0,0.2,0,0.4,0c0.5,0,1-0.1,1.3-0.2C61.9,53,61.5,53.6,61,54.2z M62.7,51.5c-0.1-0.4-0.2-1-0.6-1.5c0.1,0,0.1,0,0.2,0
					c0.4,0,0.7-0.1,1-0.2c0.1-0.1,0.3-0.1,0.4-0.3C63.4,50.2,63.1,50.9,62.7,51.5z M63.1,49.4c-0.5,0.3-1.2,0.2-2-0.1L60.7,49
					c-1.9-0.9-2.8-1.3-3.1-1.5l0,0c0.1-0.1,0.3-0.4,0.6-0.5c0.6-0.2,1.5-0.1,2.5,0.6c0.6,0.4,2.1,1.1,3.1,0.7c0,0,0,0,0.1,0
					C63.8,48.8,63.5,49.2,63.1,49.4z M64.7,47.4c0-0.1-0.1-0.1-0.1-0.1c-0.1,0-0.2,0.1-0.3,0.1c-0.1,0.2-0.2,0.4-0.4,0.5
					c-0.7,0.2-1.9-0.2-2.7-0.7c-1.3-0.7-2.2-1-3-0.6c-0.1,0-0.1,0.1-0.1,0.1c0-0.4-0.3-0.8-0.7-1c-0.4-0.2-0.8-0.2-1.2-0.1
					c0-0.1,0-0.2-0.1-0.4c-0.1-0.4-0.4-0.7-1-1l-5.2-2.5c0.5-0.9,1.2-1.3,1.8-1.7c0.1-0.1,0.3-0.1,0.4-0.3l4.2,0.3
					c0.1,0,0.1,0,0.2,0c0.4,0,0.8-0.1,1.1-0.4c0.1-0.1,0.1-0.1,0.2-0.3c0.2,0.3,0.6,0.5,1,0.5c0.4,0,0.9-0.2,1.1-0.6l0.1,0.1
					c0.5,0.7,1.5,1,2.9,1c1,0,2.2,0.1,2.7,0.7c0.1,0.2,0.2,0.4,0.1,0.7c0,0.1,0.1,0.2,0.1,0.3H66c0.1,0,0.1,0,0.1,0
					C65.8,43.9,65.3,45.7,64.7,47.4z M57.9,38.6v-0.1v-2.8v-0.1c0-0.4,0.4-0.8,0.8-0.8c0.4,0,0.8,0.4,0.8,0.8v3.1
					c0,0.4-0.4,0.8-0.8,0.8C58.3,39.4,57.9,39,57.9,38.6z M63.9,35.4l-0.4,0.1c-2.2,0.1-3.1,0.2-3.4,0.3v-0.1c0-0.2,0.1-0.4,0.2-0.7
					c0.4-0.5,1.3-0.7,2.5-0.7h0.1c0.7,0,2.4-0.1,3.1-0.9l0,0c0.1,0.4,0,0.8-0.2,1.3C65.4,35,64.8,35.3,63.9,35.4z M66.3,37
					c-0.3,0.4-1.1,1.2-2.1,1.1l-4-0.4v-1.5l3.5-0.3c0.1,0,0.1,0,0.2,0c0.1,0,0.1,0,0.1,0h0.1C65.1,35.8,66,36.6,66.3,37z M63.8,38.6
					c1,0.1,1.6,0.4,2,0.9c0.2,0.4,0.2,0.8,0.2,1.3l0,0c-0.7-0.8-2.3-0.9-3.1-0.9h-0.1c-1.3,0-2.1-0.2-2.5-0.7
					c-0.2-0.2-0.2-0.5-0.2-0.7v-0.1C60.4,38.3,61.5,38.4,63.8,38.6z M66.4,39.8c-0.1-0.1-0.1-0.3-0.2-0.4c-0.2-0.4-0.5-0.7-1-0.8
					c0.6-0.2,1-0.7,1.3-1C66.5,38.2,66.5,39,66.4,39.8z M66.4,34.3c0.1,0.7,0.1,1.5,0.1,2.2c-0.2-0.3-0.7-0.7-1.3-1
					c0.4-0.2,0.7-0.4,1-0.8C66.3,34.6,66.3,34.5,66.4,34.3z M64.2,26.6c0.1,0.1,0.1,0.2,0.3,0.1c0.1,0,0.1-0.1,0.1-0.1
					c0.7,1.7,1.1,3.5,1.4,5.4c-0.1,0-0.1-0.1-0.2,0c-0.1,0.1-0.2,0.1-0.1,0.3c0.1,0.3,0,0.5-0.1,0.7c-0.4,0.5-1.7,0.7-2.7,0.7
					c-1.4,0-2.4,0.3-2.9,1c0,0.1-0.1,0.1-0.1,0.1c-0.2-0.4-0.7-0.6-1.1-0.6c-0.4,0-0.8,0.2-1,0.5c-0.1-0.1-0.1-0.2-0.2-0.3
					c-0.3-0.3-0.7-0.4-1.3-0.4L44.4,35L55,29.9c0.5-0.2,0.8-0.6,1-1c0.1-0.1,0.1-0.2,0.1-0.4c0.1,0,0.1,0.1,0.2,0.1
					c0.1,0,0.2,0.1,0.4,0.1c0.2,0,0.4-0.1,0.7-0.1c0.3-0.1,0.5-0.4,0.6-0.8c0-0.1,0-0.1,0.1-0.2c0.1,0,0.1,0.1,0.1,0.1
					c0.2,0.1,0.4,0.1,0.7,0.1c0.7,0,1.4-0.2,2.2-0.7c0.9-0.5,2-1,2.7-0.7C63.9,26.2,64.1,26.3,64.2,26.6z M63.9,25.7
					c-1-0.4-2.5,0.4-3.1,0.7c-1,0.6-1.9,0.8-2.5,0.6c-0.3-0.1-0.5-0.4-0.6-0.6l0,0c0.4-0.1,1.3-0.6,3.4-1.6c0.9-0.4,1.6-0.5,2.2-0.2
					C63.5,24.9,63.8,25.3,63.9,25.7C63.9,25.7,63.9,25.7,63.9,25.7z M63.8,24.5c-0.1-0.1-0.2-0.2-0.4-0.3C63,24,62.6,23.9,62.1,24
					c0.4-0.5,0.5-1.1,0.7-1.5C63.1,23.1,63.4,23.8,63.8,24.5z M61,19.8c0.4,0.6,0.8,1.3,1.2,1.9c-0.4-0.1-1-0.3-1.6-0.2
					c0.3-0.4,0.4-0.8,0.4-1.2C61.1,20.1,61.1,20,61,19.8z M60.1,19.1c0.2,0.3,0.4,0.7,0.4,1.2c0,0.6-0.4,1.2-1.1,1.7l-0.3,0.2
					c-1.8,1.2-2.5,1.8-2.8,2l-0.1-0.1c-0.1-0.1-0.1-0.4-0.1-0.7c0.1-0.7,0.7-1.3,1.8-1.9C58.5,21.1,60,20.2,60.1,19.1
					C60.1,19.2,60.1,19.1,60.1,19.1z M55.3,14.2c0.1,0.1,0.2,0.1,0.4,0c0.1-0.1,0.1-0.1,0.1-0.1c1.4,1.2,2.7,2.5,3.9,3.9
					c-0.1,0-0.1,0-0.1,0.1c-0.1,0.1-0.1,0.2,0,0.4c0.1,0.2,0.2,0.4,0.2,0.7c-0.1,0.7-1.1,1.5-2,1.9c-1.3,0.7-1.9,1.5-2,2.3
					c0,0.1,0,0.1,0,0.1c-0.4-0.1-0.8-0.1-1.3,0.1c-0.4,0.2-0.6,0.6-0.7,1c-0.1-0.1-0.2-0.1-0.4-0.1c-0.4-0.1-0.9,0-1.3,0.4l-9.7,6.6
					l6.6-9.7c0.2-0.4,0.4-0.7,0.4-1h4.5c0.7,0,1.3-0.6,1.3-1.3v-3.7c0-0.7-0.6-1.3-1.3-1.3c0.1,0,0.1,0,0.1,0
					c0.2-0.1,0.4-0.3,0.7-0.3C54.9,14,55.1,14.1,55.3,14.2z M54.5,13.6c-0.4,0.1-0.9,0.4-1.3,0.8h-1.6c0.6-0.8,1.2-1.3,1.8-1.3
					C53.9,13.1,54.2,13.3,54.5,13.6C54.6,13.6,54.5,13.6,54.5,13.6z M53.9,12.7c-0.1,0-0.3-0.1-0.4-0.1l0,0c-0.4,0-0.8,0.1-1.2,0.4
					c0.1-0.7-0.1-1.3-0.2-1.6C52.6,11.8,53.3,12.2,53.9,12.7z M51.3,13.8L51,14.4h-2.3l0.5-1.2c0-0.1,0.1-0.1,0.1-0.2
					c0-0.1,0.1-0.1,0.1-0.1l0.1-0.1c0.4-1,1.6-1.2,2-1.3C51.6,11.9,51.9,13,51.3,13.8z M51.2,11c-0.4,0.1-1,0.2-1.5,0.6
					c0.1-0.4,0-0.9-0.2-1.3c-0.1-0.1-0.1-0.3-0.3-0.4C49.8,10.3,50.5,10.6,51.2,11z M49,10.6c0.3,0.5,0.2,1.2-0.1,2L48.7,13
					c-0.2,0.5-0.4,1-0.7,1.3h-1.4c0.1-0.4,0.3-0.9,0.6-1.4c0.4-0.6,1.1-2.1,0.7-3.1c0,0,0,0,0-0.1C48.4,9.9,48.8,10.2,49,10.6z
					 M40.7,8.1C41,8,41.2,7.9,41.4,8c0.1,0,0.2-0.1,0.3-0.1c0-0.1,0-0.1,0-0.2c1.9,0.3,3.7,0.8,5.4,1.4C47,9,47,9.1,46.9,9.2
					c0,0.1,0.1,0.2,0.1,0.3c0.2,0.1,0.4,0.2,0.5,0.4c0.2,0.7-0.2,1.9-0.7,2.7c-0.4,0.6-0.6,1.2-0.7,1.6h-6.8
					c-0.1-0.2-0.2-0.4-0.4-0.5l0.1-0.1c0.7-0.5,1-1.5,1-2.9C40.1,9.8,40.2,8.6,40.7,8.1z M40.4,7.8L40.4,7.8c-0.9,0.7-1,2.5-0.9,3.1
					c0,1.3-0.2,2.1-0.7,2.5c-0.2,0.2-0.5,0.2-0.7,0.2H38c0.1-0.4,0.1-1.3,0.3-3.7c0.1-1,0.4-1.6,0.9-2C39.6,7.8,40.1,7.7,40.4,7.8z
					 M39.4,7.3c-0.1,0.1-0.3,0.1-0.4,0.2c-0.4,0.2-0.7,0.5-0.8,1c-0.2-0.6-0.7-1-1-1.3C37.9,7.2,38.6,7.2,39.4,7.3z M36.7,7.5
					c0.4,0.3,1.2,1.1,1.1,2.1l-0.4,4H36l-0.3-3.4c0-0.1,0-0.1,0-0.2s0-0.1,0-0.1V9.6C35.5,8.6,36.3,7.8,36.7,7.5z M36.3,7.2
					c-0.3,0.2-0.7,0.7-1,1.3c-0.2-0.4-0.4-0.7-0.8-1c-0.1-0.1-0.3-0.1-0.4-0.2C34.7,7.2,35.4,7.2,36.3,7.2z M34.2,8
					c0.5,0.3,0.8,0.9,0.9,1.8l0.1,0.4c0.1,2.2,0.2,3.1,0.3,3.4h-0.1c-0.2,0-0.4-0.1-0.7-0.2c-0.5-0.4-0.7-1.3-0.7-2.5
					c0-0.7-0.1-2.4-0.9-3.1l0,0C33.4,7.7,33.8,7.8,34.2,8z M25.8,10c0.1-0.2,0.2-0.4,0.5-0.4c0.1-0.1,0.2-0.1,0.1-0.3
					c0-0.1-0.1-0.1-0.1-0.1c1.7-0.7,3.5-1.1,5.4-1.4c0,0.1-0.1,0.1,0,0.2c0.1,0.1,0.1,0.2,0.3,0.1c0.3-0.1,0.5,0,0.7,0.1
					c0.5,0.4,0.7,1.7,0.7,2.7c0,1.4,0.3,2.4,1,2.9c0.1,0,0.1,0.1,0.1,0.1c-0.1,0.1-0.3,0.3-0.4,0.5h-6.8c-0.1-0.5-0.4-1-0.7-1.6
					C26,11.9,25.5,10.7,25.8,10z M25.3,9.8L25.3,9.8c-0.4,1,0.4,2.6,0.7,3.2c0.3,0.5,0.5,1,0.6,1.4h-1.4c-0.2-0.4-0.4-1-0.7-1.6
					c-0.4-0.9-0.5-1.6-0.2-2.2C24.5,10.2,24.9,9.9,25.3,9.8z M24.2,9.9c-0.1,0.1-0.2,0.2-0.3,0.4c-0.2,0.4-0.3,0.8-0.2,1.3
					c-0.5-0.4-1.1-0.5-1.5-0.7C22.8,10.6,23.5,10.3,24.2,9.9z M21.9,11.4c0.4,0.1,1.6,0.4,2,1.3l0.7,1.6h-2.3l-0.1-0.1
					c-0.1-0.1-0.1-0.1-0.1-0.2c0-0.1-0.1-0.1-0.1-0.1L22,13.7C21.4,13,21.8,11.9,21.9,11.4z M21.4,11.4c-0.1,0.4-0.3,1-0.2,1.6
					c-0.4-0.3-0.8-0.4-1.2-0.4c-0.1,0-0.3,0-0.4,0.1C20.1,12.2,20.7,11.8,21.4,11.4z M19.9,13.1C19.9,13.1,20,13.1,19.9,13.1
					c0.6,0,1.2,0.4,1.7,1.1l0.1,0.1h-1.6c-0.4-0.4-0.8-0.7-1.3-0.8c0,0,0,0-0.1,0C19.1,13.3,19.5,13.1,19.9,13.1z M14,18
					C13.9,18,13.9,18,13.8,18c1.2-1.4,2.5-2.7,3.9-3.9c0,0.1,0,0.1,0.1,0.1c0.1,0.1,0.2,0.1,0.4,0c0.2-0.1,0.4-0.2,0.7-0.2
					c0.2,0.1,0.4,0.1,0.7,0.3c0.1,0,0.1,0,0.1,0c-0.7,0-1.3,0.6-1.3,1.3v3.7c0,0.7,0.6,1.3,1.3,1.3h4.5c0,0.3,0.1,0.7,0.4,1l6.6,9.7
					l-9.7-6.6c-0.4-0.3-0.9-0.4-1.3-0.4c-0.1,0-0.2,0.1-0.4,0.1c0-0.1,0-0.1,0-0.2c-0.1-0.4-0.3-0.6-0.6-0.8
					c-0.4-0.2-0.9-0.2-1.3-0.1c0-0.1,0-0.1,0-0.1c-0.1-0.8-0.8-1.6-2-2.3c-0.9-0.5-1.9-1.3-2-1.9c-0.1-0.2,0-0.4,0.2-0.7
					C14,18.3,14,18.1,14,18z M13.2,19.1C13.2,19.1,13.2,19.2,13.2,19.1c0.2,1.1,1.6,2,2.2,2.4c1,0.6,1.7,1.3,1.8,1.9
					c0.1,0.3-0.1,0.6-0.1,0.7L17,24.2c-0.3-0.2-1.1-0.8-3.1-2.2c-0.8-0.6-1.3-1.2-1.3-1.8C12.8,19.8,13,19.5,13.2,19.1z M12.3,19.8
					c0,0.1-0.1,0.3-0.1,0.4c0,0.4,0.1,0.8,0.4,1.2c-0.6-0.1-1.3,0.1-1.6,0.2C11.5,21.1,11.9,20.4,12.3,19.8z M10.7,22.5
					c0.1,0.4,0.2,1,0.6,1.5c-0.4-0.1-0.9,0-1.3,0.2c-0.1,0.1-0.3,0.1-0.4,0.3C9.9,23.8,10.3,23.2,10.7,22.5z M10.2,24.7
					c0.5-0.3,1.2-0.2,2,0.1l0.4,0.1c1.9,0.9,2.8,1.3,3.1,1.5l0,0c-0.1,0.1-0.3,0.4-0.6,0.5c-0.6,0.2-1.5,0.1-2.5-0.6
					c-0.5-0.3-1.6-0.9-2.5-0.9c-0.2,0-0.4,0-0.6,0.1c0,0,0,0-0.1,0C9.6,25.3,9.8,24.9,10.2,24.7z M8.7,26.6c0,0.1,0.1,0.1,0.1,0.1
					c0.1,0,0.2-0.1,0.3-0.1c0.1-0.2,0.2-0.4,0.4-0.5c0.7-0.2,1.9,0.2,2.7,0.7c0.9,0.5,1.6,0.7,2.2,0.7c0.3,0,0.5-0.1,0.7-0.1
					c0.1,0,0.1-0.1,0.1-0.1c0,0.4,0.3,0.8,0.7,1c0.2,0.1,0.4,0.1,0.7,0.1s0.4-0.1,0.5-0.1c0,0.1,0,0.2,0.1,0.4c0.1,0.4,0.4,0.7,1,1
					l10.6,5.1l-11.7-0.9c-0.6-0.1-1,0.1-1.3,0.4c-0.1,0.1-0.1,0.1-0.2,0.3c-0.2-0.3-0.6-0.5-1-0.5c-0.4,0-0.9,0.2-1.1,0.6l-0.1-0.1
					c-0.5-0.7-1.5-1-2.9-1c-1,0-2.2-0.1-2.7-0.7c-0.1-0.2-0.2-0.4-0.1-0.7c0-0.1-0.1-0.2-0.1-0.3c-0.1,0-0.1,0-0.2,0
					C7.6,30.1,8.1,28.3,8.7,26.6z M15.4,35.5v0.1v2.8v0.1c0,0.4-0.4,0.8-0.8,0.8c-0.4,0-0.8-0.4-0.8-0.8v-3.1c0-0.4,0.4-0.8,0.8-0.8
					C15.1,34.7,15.4,35.1,15.4,35.5z M9.4,38.6l0.4-0.1c2.2-0.1,3.1-0.2,3.4-0.3v0.1c0,0.2-0.1,0.4-0.2,0.7
					c-0.4,0.5-1.3,0.7-2.5,0.7c-0.7,0-2.4,0.1-3.1,0.9l0,0c-0.1-0.4,0-0.8,0.2-1.3C7.9,39,8.5,38.7,9.4,38.6z M7.2,37
					c0.3-0.4,1.1-1.2,2.1-1.1l4,0.4v1.5L9.8,38c-0.1,0-0.1,0-0.2,0s-0.1,0-0.1,0H9.3C8.3,38.2,7.5,37.4,7.2,37z M9.6,35.4
					c-1-0.1-1.6-0.4-2-0.9c-0.2-0.4-0.2-0.8-0.2-1.3l0,0c0.7,0.8,2.4,0.9,3.1,0.9c1.3,0,2.1,0.2,2.5,0.7c0.2,0.2,0.2,0.5,0.2,0.7
					v0.1C12.9,35.7,11.9,35.6,9.6,35.4z M7,34.3c0.1,0.1,0.1,0.3,0.2,0.4c0.2,0.4,0.5,0.7,1,0.8c-0.6,0.2-1,0.7-1.3,1
					C6.9,35.8,6.9,35.1,7,34.3z M7,39.8c-0.1-0.7-0.1-1.5-0.1-2.2c0.2,0.3,0.7,0.7,1.3,1c-0.4,0.2-0.7,0.4-1,0.8
					C7.1,39.5,7,39.6,7,39.8z M9.2,47.4c-0.1-0.1-0.1-0.2-0.3-0.1c-0.1,0-0.1,0.1-0.1,0.1c-0.7-1.7-1.1-3.5-1.4-5.4
					c0.1,0,0.1,0,0.1,0h0.1c0.1-0.1,0.2-0.1,0.1-0.3c-0.1-0.3,0-0.5,0.1-0.7c0.4-0.5,1.7-0.7,2.7-0.7c1.4,0,2.4-0.3,2.9-1
					c0-0.1,0.1-0.1,0.1-0.1c0.2,0.4,0.7,0.6,1.1,0.6c0.4,0,0.8-0.2,1-0.5c0.1,0.1,0.1,0.2,0.2,0.3c0.3,0.2,0.7,0.4,1.1,0.4
					c0.1,0,0.1,0,0.2,0l4.3-0.3c0.1,0.1,0.3,0.2,0.4,0.3c0.6,0.4,1.3,0.8,1.7,1.7l-5.3,2.5c-0.5,0.2-0.8,0.6-1,1
					c0.1,0.1,0.1,0.1,0.1,0.3c-0.1,0-0.1-0.1-0.2-0.1c-0.4-0.1-0.7-0.1-1,0.1c-0.3,0.1-0.5,0.4-0.6,0.8c0,0.1,0,0.1-0.1,0.2
					c-0.1,0-0.1-0.1-0.1-0.1c-0.7-0.3-1.8-0.1-3,0.6c-0.9,0.5-2,1-2.7,0.7C9.4,47.8,9.3,47.7,9.2,47.4z M9.5,48.4
					c1,0.4,2.5-0.4,3.1-0.7c1-0.6,1.9-0.8,2.5-0.6c0.3,0.1,0.5,0.4,0.6,0.5l0,0c-0.4,0.1-1.3,0.6-3.4,1.6c-0.9,0.4-1.6,0.5-2.2,0.2
					C9.8,49.2,9.6,48.8,9.5,48.4L9.5,48.4z M9.6,49.5c0.1,0.1,0.2,0.2,0.4,0.3c0.3,0.1,0.7,0.2,1,0.2c0.1,0,0.1,0,0.2,0
					c-0.4,0.5-0.6,1.1-0.7,1.5C10.3,50.9,9.9,50.2,9.6,49.5z M12.3,54.2c-0.4-0.6-0.8-1.2-1.2-1.9c0.3,0.1,0.7,0.2,1.3,0.2
					c0.1,0,0.2,0,0.4,0c-0.3,0.4-0.4,0.8-0.4,1.2C12.2,53.9,12.3,54,12.3,54.2z M13.2,54.9c-0.2-0.3-0.4-0.7-0.4-1.2
					c0-0.6,0.4-1.1,1.1-1.7l0.4-0.3c1.8-1.2,2.5-1.7,2.8-2l0.1,0.1c0.1,0.1,0.1,0.4,0.1,0.7c-0.1,0.7-0.7,1.3-1.8,1.9
					C14.8,52.9,13.4,53.8,13.2,54.9L13.2,54.9z M18.1,59.8c-0.1-0.1-0.2-0.1-0.4,0c-0.1,0.1-0.1,0.1-0.1,0.1
					c-1.4-1.2-2.7-2.5-3.9-3.9c0.1,0,0.1,0,0.1-0.1c0.1-0.1,0.1-0.2,0-0.4c-0.1-0.2-0.2-0.4-0.2-0.7c0.1-0.7,1.1-1.5,2-1.9
					c1.3-0.7,1.9-1.5,2-2.3c0-0.1,0-0.1,0-0.1c0.1,0.1,0.4,0.1,0.6,0.1c0.2,0,0.4-0.1,0.7-0.1c0.4-0.2,0.6-0.6,0.7-1
					c0.1,0.1,0.2,0.1,0.4,0.1c0.1,0,0.2,0,0.3,0c0.4,0,0.7-0.1,1-0.4l3.7-2.5l0,0c0.2,1.1,0.6,2,1.3,2.8l-1.9,2.8
					c-0.3,0.4-0.4,0.9-0.3,1.3c0,0.1,0.1,0.2,0.1,0.4c-0.4,0.1-0.8,0.3-1,0.7c-0.1,0.3-0.2,0.7-0.1,1c0,0.1,0.1,0.1,0.1,0.2
					c-0.1,0-0.1,0-0.1,0c-0.8,0.1-1.6,0.8-2.3,2c-0.5,0.9-1.3,1.9-1.9,2C18.5,60.1,18.3,60,18.1,59.8z M18.8,60.5
					c1-0.2,2-1.6,2.3-2.2c0.6-1,1.3-1.7,1.9-1.8c0.3-0.1,0.6,0.1,0.7,0.1l0.1,0.1c-0.2,0.3-0.8,1.1-2.2,3.1
					c-0.6,0.8-1.2,1.3-1.8,1.3C19.5,60.9,19.1,60.7,18.8,60.5L18.8,60.5z M19.5,61.4c0.1,0,0.3,0.1,0.4,0.1l0,0
					c0.4,0,0.8-0.1,1.2-0.4c-0.1,0.7,0.1,1.3,0.2,1.6C20.7,62.2,20.1,61.8,19.5,61.4z M22,60.2l2.3-3.3l1.3,0.7l-1.5,3.1
					c0,0.1-0.1,0.1-0.1,0.2c0,0.1-0.1,0.1-0.1,0.1l-0.1,0.1c-0.4,1-1.6,1.2-2,1.3C21.8,62.1,21.4,61,22,60.2z M22.2,63
					c0.4-0.1,1-0.2,1.5-0.6c-0.1,0.4,0,0.9,0.2,1.3c0.1,0.1,0.1,0.3,0.3,0.4C23.5,63.8,22.8,63.4,22.2,63z M24.3,63.5
					c-0.3-0.5-0.2-1.2,0.1-2l0.1-0.4c0.9-1.9,1.3-2.8,1.5-3.1l0,0c0.1,0.1,0.4,0.3,0.5,0.6c0.2,0.6,0.1,1.5-0.6,2.5
					c-0.4,0.6-1.1,2.2-0.7,3.1c0,0,0,0,0,0.1C24.9,64.1,24.5,63.9,24.3,63.5z M31.9,66c-0.1,0-0.2,0.1-0.3,0.1c0,0.1,0,0.1,0,0.2
					c-1.9-0.3-3.7-0.8-5.4-1.4c0.1,0,0.1-0.1,0.1-0.1c0-0.1-0.1-0.2-0.1-0.3c-0.2-0.1-0.4-0.2-0.5-0.4c-0.2-0.7,0.2-1.9,0.7-2.7
					c0.7-1.3,1-2.2,0.6-3c0-0.1-0.1-0.1-0.1-0.1c0.4,0,0.8-0.3,1-0.7c0.2-0.4,0.2-0.8,0.1-1.2c0.1,0,0.2,0,0.4-0.1
					c0.4-0.1,0.7-0.4,1-1l0.4-0.8c0.1,0.1,0.4,0.3,0.6,0.4v0.9c0,0.1,0,0.1,0,0.1c-0.7,0.3-1.6,0.9-1.9,2.1c-0.1,0.2-0.1,0.6-0.1,1
					c-0.1,0.7-0.1,1.6-0.6,1.8c-0.1,0.1-0.2,0.1-0.4,0c-0.1-0.1-0.2-0.1-0.2-0.1c-0.1-0.1-0.3,0-0.3,0.1c-0.1,0.1,0,0.3,0.1,0.3
					c0.1,0.1,0.1,0.1,0.3,0.1c0.1,0,0.2,0.1,0.4,0.1c-0.6,0-1.1,0.5-1.1,1.2s0.5,1.2,1.2,1.2h5.6c-0.1,0.9-0.2,1.8-0.7,2.2
					C32.5,66,32.2,66.1,31.9,66z M32.9,66.3C32.9,66.2,33,66.2,32.9,66.3c0.7-0.6,0.9-1.7,0.9-2.5h1.3c0,0.1,0,0.2,0,0.4
					c-0.1,1-0.4,1.6-0.9,2C33.8,66.3,33.3,66.3,32.9,66.3z M33.9,66.7c0.1-0.1,0.3-0.1,0.4-0.2c0.4-0.2,0.7-0.5,0.8-1
					c0.2,0.6,0.7,1,1,1.3C35.4,66.8,34.7,66.8,33.9,66.7z M36.7,66.5c-0.4-0.3-1.2-1.1-1.1-2.1l0.1-0.7h2.1v0.1c0,0.1,0,0.1,0,0.2
					c0,0.1,0,0.1,0,0.1v0.1C37.9,65.4,37,66.2,36.7,66.5z M37.2,66.8c0.3-0.2,0.7-0.7,1-1.3c0.2,0.4,0.4,0.7,0.8,1
					c0.1,0.1,0.3,0.1,0.4,0.2C38.6,66.8,37.9,66.8,37.2,66.8z M39.2,66.1c-0.5-0.3-0.8-0.9-0.9-1.8l-0.1-0.4v-0.1h1.3
					c0.1,0.8,0.2,2,0.9,2.5l0,0C40.1,66.3,39.6,66.3,39.2,66.1z M47.6,64c-0.1,0.2-0.2,0.4-0.5,0.4c-0.1,0.1-0.2,0.1-0.1,0.3
					c0,0.1,0.1,0.1,0.1,0.1c-1.7,0.7-3.5,1.1-5.4,1.4c0-0.1,0.1-0.1,0-0.2c-0.1-0.1-0.1-0.2-0.3-0.1c-0.3,0.1-0.5,0-0.7-0.1
					c-0.4-0.4-0.7-1.3-0.7-2.2h5.7c0.7,0,1.2-0.5,1.2-1.2l0,0c0-0.6-0.5-1.1-1.1-1.2c0.1,0,0.3-0.1,0.4-0.1s0.1-0.1,0.3-0.1
					c0.1-0.1,0.2-0.2,0.1-0.3c-0.1-0.1-0.2-0.2-0.3-0.1c0,0-0.1,0-0.2,0.1s-0.3,0-0.4,0c-0.4-0.2-0.5-1.1-0.6-1.8
					c-0.1-0.4-0.1-0.7-0.1-1c-0.4-1.1-1.2-1.7-1.9-2.1c0-0.1,0.1-0.1,0.1-0.1v-0.9c0.3,0,0.5-0.1,0.7-0.2l0.3,0.7
					c0.2,0.5,0.6,0.8,1,1c0.1,0.1,0.2,0.1,0.4,0.1c0,0.1-0.1,0.1-0.1,0.2c-0.1,0.4-0.1,0.7,0.1,1c0.2,0.4,0.7,0.6,1,0.7
					c0,0.1-0.1,0.1-0.1,0.1c-0.3,0.7-0.1,1.8,0.6,3C47.4,62.2,47.8,63.4,47.6,64z M48,64.2L48,64.2c0.4-1-0.4-2.6-0.7-3.2
					c-0.6-1-0.8-1.9-0.6-2.5c0.1-0.3,0.4-0.5,0.5-0.6l0,0c0.1,0.4,0.6,1.3,1.6,3.4c0.4,0.9,0.5,1.6,0.2,2.2
					C48.8,63.9,48.4,64.1,48,64.2z M49.2,64.1c0.1-0.1,0.2-0.2,0.3-0.4c0.2-0.4,0.3-0.8,0.2-1.3c0.5,0.4,1.1,0.5,1.5,0.7
					C50.6,63.4,49.9,63.8,49.2,64.1z M51.5,62.6c-0.4-0.1-1.6-0.4-2-1.3l-1.7-3.7l1.3-0.7l2,2.8c0.1,0.1,0.1,0.1,0.1,0.2
					c0,0.1,0.1,0.1,0.1,0.1l0.1,0.1C51.9,61,51.6,62.1,51.5,62.6z M52,62.6c0.1-0.4,0.3-1,0.2-1.6c0.4,0.3,0.8,0.4,1.2,0.4l0,0
					c0.1,0,0.3,0,0.4-0.1C53.3,61.8,52.6,62.2,52,62.6z M53.4,60.9c-0.6,0-1.1-0.4-1.7-1.1l-0.2-0.4c-1.2-1.8-1.7-2.5-2-2.8l0.1-0.1
					c0.1-0.1,0.4-0.1,0.7-0.1c0.7,0.1,1.3,0.7,1.9,1.8c0.4,0.6,1.3,2.1,2.3,2.2c0,0,0,0,0.1,0C54.2,60.7,53.9,60.9,53.4,60.9z
					 M55.7,60c0-0.1,0-0.1-0.1-0.1c-0.1-0.1-0.2-0.1-0.4,0c-0.2,0.1-0.4,0.2-0.7,0.2c-0.7-0.1-1.5-1.1-1.9-2c-0.7-1.3-1.5-1.9-2.3-2
					c-0.1,0-0.1,0-0.1,0c0-0.1,0.1-0.1,0.1-0.2c0.1-0.4,0.1-0.7-0.1-1c-0.2-0.4-0.6-0.6-1-0.7c0.1-0.1,0.1-0.2,0.1-0.4
					c0.1-0.4,0-0.9-0.4-1.3L47,49.6c0.7-0.7,1-1.7,1.3-2.8l3.7,2.5c0.4,0.2,0.7,0.4,1,0.4c0.1,0,0.2,0,0.3,0c0.1,0,0.2-0.1,0.4-0.1
					c0,0.1,0,0.1,0,0.2c0.1,0.4,0.3,0.6,0.6,0.8c0.2,0.1,0.4,0.1,0.7,0.1s0.4-0.1,0.6-0.1c0,0.1,0,0.1,0,0.1c0.1,0.8,0.8,1.6,2,2.3
					c0.9,0.5,1.9,1.3,2,1.9c0.1,0.2,0,0.4-0.2,0.7c-0.1,0.1-0.1,0.2,0,0.4c0.1,0.1,0.1,0.1,0.1,0.1C58.4,57.4,57.2,58.8,55.7,60z"/>
			</g>
		</g>
	</g>
</g>
</svg>
