<?xml version="1.0" encoding="utf-8"?>
<!-- Generator: Adobe Illustrator 23.0.3, SVG Export Plug-In . SVG Version: 6.00 Build 0)  -->
<svg version="1.1" id="Layer_1" xmlns="http://www.w3.org/2000/svg" xmlns:xlink="http://www.w3.org/1999/xlink" x="0px" y="0px"
	 viewBox="0 0 40 40" style="enable-background:new 0 0 40 40;" xml:space="preserve">
<style type="text/css">
	.st0{clip-path:url(#SVGID_2_);}
	.st1{fill:#FFD240;}
	.st2{fill:#C32033;}
</style>
<g>
	<defs>
		<rect id="SVGID_1_" width="40" height="40"/>
	</defs>
	<clipPath id="SVGID_2_">
		<use xlink:href="#SVGID_1_"  style="overflow:visible;"/>
	</clipPath>
	<g id="XMLID_18_" class="st0">
		<circle id="XMLID_29_" class="st1" cx="20" cy="20" r="19.7"/>
		<g id="XMLID_25_">
			<g id="XMLID_27_">
				<path id="XMLID_28_" class="st2" d="M20,40C9,40,0,31,0,20S9,0,20,0s20,9,20,20S31,40,20,40z M20,0.6C9.3,0.6,0.5,9.3,0.5,20
					S9.3,39.5,20,39.5c10.7,0,19.5-8.7,19.5-19.5S30.7,0.6,20,0.6z"/>
			</g>
			<path id="XMLID_26_" class="st2" d="M36.7,20c0-9.3-7.5-16.8-16.8-16.8C10.7,3.3,3.2,10.8,3.2,20c0,9.3,7.5,16.8,16.8,16.8
				C29.2,36.8,36.7,29.3,36.7,20z M32.8,29.8L32.8,29.8c-0.1-0.6-0.9-1.1-1.2-1.3c-0.5-0.3-0.9-0.7-1-1c-0.1-0.2,0.1-0.3,0.1-0.4
				l0.1-0.1c0.2,0.1,0.6,0.4,1.7,1.2c0.4,0.3,0.7,0.7,0.7,1C33,29.4,32.9,29.6,32.8,29.8z M26.6,29c-0.1,0.2-0.2,0.3-0.3,0.4
				L25,30.2c-0.1,0.1-0.3,0.1-0.5,0.1c-0.2-0.1-0.3-0.2-0.4-0.4l-0.2-0.4l0.1-0.1c0.1-0.1,0.2-0.2,0.2-0.2c0.1,0,0.1-0.1,0.1-0.1
				c0-0.1-0.1-0.1-0.1-0.1c-0.1,0-0.1-0.2-0.2-0.2c-0.1-0.2-0.3-0.4-0.6-0.4v-0.4c1-0.2,1.6-0.4,2.1-0.8l0,0l1,1.5
				C26.6,28.7,26.6,28.9,26.6,29z M26.7,29.5c0.1,0,0.1,0,0.1,0c0.1,0.1,0.2,0.1,0.3,0.2s0.1,0.2,0.1,0.3c-0.1,0.1-0.1,0.2-0.2,0.3
				l-0.1,0.1l0,0l-1.4,0.8c-0.2,0.1-0.5,0.1-0.6-0.2c-0.1-0.1-0.1-0.2-0.1-0.3c0.1-0.1,0.1-0.2,0.2-0.3l0.1-0.1l0,0l1.3-0.8l0,0
				l0.1-0.1C26.5,29.5,26.6,29.5,26.7,29.5z M23.8,29.2c-0.1,0.2-0.2,0.3-0.4,0.3h-6.5c-0.2,0-0.3-0.1-0.4-0.3
				c-0.1-0.1-0.1-0.1-0.2-0.2c0.1-0.1,0.1-0.1,0.2-0.2c0.1-0.2,0.2-0.3,0.4-0.3h6.5c0.2,0,0.3,0.1,0.4,0.3c0.1,0.1,0.1,0.1,0.2,0.2
				C23.9,29,23.8,29.2,23.8,29.2z M17,33.1c0.4-0.3,0.7-0.8,0.9-1.5c0.2,0.4,0.7,0.8,1.1,1c0.3,0.2,0.7,0.4,0.8,0.6h-3.3
				C16.7,33.2,16.8,33.2,17,33.1z M15.7,33.1c0.3-0.1,0.7-0.4,0.8-0.8c0.1-0.1,0.1-0.2,0.1-0.2c0.1-0.2,0.1-0.4,0.3-0.7
				c0.2-0.4,0.5-0.7,0.8-0.8v0.5c-0.1,0.9-0.3,1.5-0.8,1.9C16.5,33.1,16.1,33.1,15.7,33.1z M19.1,32.4c-0.5-0.3-1.1-0.7-1.1-1.2
				v-0.9h1.9v1.7c0,0.1,0.1,0.1,0.1,0.1s0.1-0.1,0.1-0.1v-1.7h1.8c0,0.1,0,0.4,0,0.9c0,0.5-0.5,0.9-1.1,1.2
				c-0.3,0.2-0.7,0.4-0.9,0.7C19.8,32.9,19.5,32.6,19.1,32.4z M21,32.7c0.4-0.3,1-0.6,1.1-1.1c0.1,0.7,0.4,1.2,0.9,1.5
				c0.1,0.1,0.3,0.2,0.4,0.2h-3.3C20.3,33.1,20.7,32.9,21,32.7z M23.2,32.9c-0.5-0.3-0.8-1-0.8-1.9v-0.5c0.2,0.1,0.6,0.5,0.8,0.9
				c0.2,0.2,0.2,0.5,0.3,0.7c0.1,0.1,0.1,0.2,0.1,0.2c0.2,0.4,0.5,0.7,0.8,0.8C23.9,33.1,23.5,33.1,23.2,32.9z M20.1,30.1L20.1,30.1
				C20,30,20,30,20.1,30.1H17v-0.3h6.2v0.3H20.1z M17.4,30.4L17.4,30.4c-0.2,0.2-0.5,0.5-0.7,0.9c-0.2,0.2-0.2,0.5-0.3,0.7
				c-0.1,0.1-0.1,0.2-0.1,0.2c-0.2,0.4-0.5,0.7-0.8,0.7c0.1-0.2,0.2-0.6,0.2-0.9c0.1-0.2,0.1-0.4,0.1-0.5
				C16.2,30.5,17.3,30.4,17.4,30.4z M24.9,33.6c0.2,0,0.4,0.2,0.4,0.4c0,0.2-0.2,0.4-0.4,0.4h-9.8c-0.2,0-0.4-0.2-0.4-0.4
				c0-0.2,0.2-0.4,0.4-0.4H24.9z M23.7,32.3c-0.1-0.1-0.1-0.2-0.1-0.2c-0.1-0.2-0.2-0.5-0.3-0.7c-0.2-0.3-0.5-0.7-0.8-0.9h0.1
				c0.1,0,1.2,0.1,1.5,1.1c0.1,0.1,0.1,0.3,0.1,0.5c0.1,0.3,0.1,0.7,0.2,0.9C24.1,32.8,23.9,32.6,23.7,32.3z M15.9,28.9
				c-0.1,0-0.1,0.1-0.1,0.1c0,0.1,0.1,0.1,0.1,0.1s0.1,0.1,0.2,0.1l-0.2,0.5c-0.1,0.2-0.2,0.3-0.4,0.4c-0.2,0.1-0.4-0.1-0.5-0.1
				l-1.3-0.7l-0.1-0.1c-0.1-0.1-0.2-0.2-0.3-0.4c-0.1-0.2,0-0.3,0.2-0.5l1-1.5c0.4,0.4,1.1,0.7,2.1,0.8v0.5
				c-0.2,0.1-0.4,0.2-0.5,0.4C16.1,28.8,16,28.9,15.9,28.9z M15.1,31.1c-0.1,0.2-0.4,0.3-0.6,0.2l-1.4-0.8l0,0l-0.1-0.1
				c-0.1-0.1-0.2-0.2-0.2-0.3s0-0.2,0.1-0.3c0.1-0.2,0.2-0.2,0.4-0.2c0.1,0,0.2,0,0.2,0.1l1.3,0.8l0.1,0.1l0,0l0.1,0.1
				C15.1,30.6,15.2,30.8,15.1,31.1z M8.8,25.5c-0.1-0.1-0.1-0.2-0.1-0.3C8.8,25.1,8.8,25,8.9,25c0.1-0.1,0.2-0.1,0.2-0.1
				c0.1,0,0.1,0,0.1,0C9.4,25,9.5,25,9.5,25.1l0.8,1.4c0.1,0.1,0.1,0.2,0.1,0.3c-0.1,0.1-0.1,0.2-0.2,0.3C10,27.2,9.7,27.2,9.6,27
				L8.8,25.5z M9.2,26.8l-1.5,1.1c-0.1,0.1-0.1,0.1-0.1,0.1c-0.1,0-0.1,0.1-0.1,0.1L7.4,28c-0.4,0.3-1,0.1-1.3,0.1
				c0.1-0.2,0.2-0.9,0.7-1.1l1.9-1L9.2,26.8z M9.9,25c-0.1-0.1-0.1-0.3-0.1-0.5c0.1-0.2,0.2-0.3,0.4-0.4l2.9-1.4
				c0.1,0.1,0.1,0.2,0.1,0.2c0.2,0.5,0.3,1.1,0.4,1.7c0.1,0.1,0.1,0.2,0.1,0.3l-2.2,1.5c-0.2,0.1-0.4,0.2-0.5,0.2
				c-0.2-0.1-0.3-0.2-0.4-0.3L9.9,25z M13.4,22.9c-0.3-0.9-0.9-1.3-1.3-1.5c-0.3-0.2-0.5-0.4-0.7-0.7c0.1,0.1,0.4,0.4,1.2,0.7
				c0.9,0.2,1.3,0.7,1.5,1.7c0.1,0.3,0.1,0.7,0.2,1c0.2,1.4,0.4,2.9,2.2,3.4c-2.3-0.4-2.5-1.4-2.8-2.9
				C13.7,24.1,13.6,23.5,13.4,22.9z M11.4,21.2L11.4,21.2l-2,0.2c-0.2,0-0.4-0.1-0.5-0.1c-0.2-0.2-0.2-0.4-0.2-0.5v-1.5
				c0-0.1,0-0.3,0.2-0.4c0.1-0.1,0.2-0.1,0.4-0.1c0.1,0,0.1,0,0.1,0l7.1,0.5l0,0l0.8,0.1l0,0h0.1v1.5c-0.2-0.1-0.4-0.2-0.4-0.4
				c0-0.1-0.1-0.1-0.1-0.1c-0.1,0-0.1,0.1-0.1,0.1c-0.1,0.2-0.3,0.3-0.5,0.5c-0.1,0-0.1,0.1-0.1,0.1c-0.1-0.1-0.2-0.2-0.3-0.2
				c-0.1-0.1-0.3-0.2-0.3-0.3c0-0.1-0.1-0.1-0.1-0.1s-0.1,0.1-0.1,0.1c0,0.1-0.2,0.2-0.3,0.3c-0.1,0.1-0.3,0.2-0.4,0.3
				c-0.4-0.2-0.9-0.3-1.5-0.4c-0.8-0.1-1.2-0.2-1.5-0.4c-0.1-0.1-0.1-0.1-0.2,0c-0.1,0.1-0.1,0.1-0.1,0.1
				C11.1,20.7,11.3,21,11.4,21.2z M8.8,14.5l0.8-1.4c0.1-0.1,0.2-0.2,0.3-0.2c0.1,0,0.1,0,0.1,0s0.2,0,0.2,0.1
				c0.1,0.1,0.2,0.2,0.2,0.3c0.1,0.1,0,0.2-0.1,0.3l-0.8,1.4c-0.1,0.2-0.4,0.3-0.6,0.2S8.7,14.7,8.8,14.5z M7,13.2
				c-0.1,0-0.1-0.1-0.1-0.1s-0.1-0.1-0.1-0.1L6.8,13c-0.5-0.2-0.7-0.9-0.7-1.1C6.3,11.9,7,11.7,7.4,12l1.8,1.3L8.7,14L7,13.2z
				 M9.9,15l0.8-1.3c0.1-0.1,0.2-0.2,0.4-0.3c0.1,0,0.1,0,0.1,0c0.1,0,0.3,0.1,0.4,0.2l5.8,4l0.1,0.2l0,0v0.1c0,0.1,0.1,0.1,0.1,0.1
				s0.1,0.1,0.1,0.1c0.1,0.1,0.2,0.2,0.4,0.2H18l0,0v0.1c0,0.1-0.2,0.2-0.3,0.2c-0.2,0.1-0.4,0.2-0.5,0.4l-0.8-0.1L10,15.8
				c-0.2-0.1-0.3-0.2-0.4-0.4C9.7,15.3,9.8,15.1,9.9,15z M29.3,7.9c0.2,0,0.4,0.2,0.4,0.4v0.4H10.2V8.3c0-0.2,0.2-0.4,0.4-0.4
				L29.3,7.9L29.3,7.9z M18.9,7.7c0.1-0.1,0.2-0.1,0.3-0.1h1.7c0.1,0,0.2,0.1,0.3,0.1H18.9z M29.8,9v0.7H10.2V9H29.8z M29.8,10v0.4
				c0,0.2-0.2,0.4-0.4,0.4H10.6c-0.2,0-0.4-0.2-0.4-0.4V10H29.8z M23.5,14.2c0,1-0.2,1.7-0.7,2.1c-0.3,0.2-0.7,0.4-0.9,0.4
				c0.1,0,0.1-0.1,0.1-0.1c0.5-0.4,0.9-1.4,0.9-2.9c0-0.3,0.1-1.6,1.7-2.1c-0.1,0.1-0.1,0.1-0.1,0.1C23.6,12.3,23.5,13.7,23.5,14.2z
				 M31.2,14.5c0.1,0.1,0.1,0.2,0.1,0.3c-0.1,0.1-0.1,0.2-0.2,0.3c-0.1,0.1-0.2,0.1-0.3,0.1c-0.1-0.1-0.2-0.1-0.3-0.2l-0.1-0.1l0,0
				L30,14.2l-0.4-0.7c-0.1-0.1-0.1-0.2-0.1-0.3c0.1-0.1,0.1-0.2,0.2-0.3c0.1-0.1,0.2-0.1,0.2-0.1c0.2,0,0.3,0.1,0.4,0.2L31.2,14.5z
				 M30.8,13.3l1.5-1.1c0.1-0.1,0.1-0.1,0.1-0.1s0.1-0.1,0.1-0.1l0.1-0.1c0.4-0.3,1-0.1,1.3-0.1c-0.1,0.2-0.2,0.9-0.7,1.1l-2,0.9
				L30.8,13.3z M30,14.8l0.1,0.2c0.1,0.1,0.1,0.3,0.1,0.5c-0.1,0.2-0.2,0.3-0.4,0.4L23.4,19L22.7,19l0,0c-0.1-0.2-0.3-0.3-0.5-0.4
				c-0.1-0.1-0.2-0.2-0.3-0.2v-0.1h0.2c0.2,0,0.3-0.2,0.4-0.2c0.1-0.1,0.1-0.1,0.1-0.1c0.1,0,0.1-0.1,0.1-0.1c0-0.1-0.1-0.1-0.1-0.1
				l0.1-0.1l5.8-4c0.2-0.1,0.4-0.2,0.5-0.2c0.2,0.1,0.3,0.2,0.4,0.3L30,14.8z M30.6,18.7c0.2-0.1,0.4,0.1,0.5,0.1
				c0.2,0.1,0.2,0.4,0.2,0.4v1.5c0,0.1,0,0.3-0.2,0.4c-0.1,0.1-0.3,0.2-0.5,0.1l-2-0.2c0.2-0.2,0.3-0.5,0.3-0.9
				c0-0.1-0.1-0.1-0.1-0.1c-0.1-0.1-0.1,0-0.2,0c-0.3,0.2-0.8,0.4-1.5,0.4c-0.6,0.1-1.1,0.2-1.5,0.4c-0.1-0.1-0.2-0.2-0.4-0.2
				c-0.1-0.1-0.3-0.2-0.3-0.3c0-0.1-0.1-0.1-0.1-0.1c-0.1,0-0.1,0.1-0.1,0.1c0,0.1-0.2,0.2-0.3,0.3c-0.1,0.1-0.2,0.2-0.4,0.3
				c-0.1-0.1-0.1-0.1-0.1-0.1c-0.2-0.2-0.5-0.3-0.5-0.5c0-0.1-0.1-0.1-0.1-0.1c-0.1,0-0.1,0.1-0.1,0.1c-0.1,0.1-0.2,0.2-0.4,0.4
				v-1.5l2.1-0.2l0,0L30.6,18.7z M18,21.8c-0.2,0.2-0.3,0.4-0.3,0.7v4.8c-0.8-0.4-0.9-1.7-0.9-2.2V22c0-0.1-0.1-0.1-0.1-0.1
				c-0.1,0-0.1,0.1-0.1,0.1v3.1c0,0.5,0.1,1.5,0.6,2.1c-0.4-0.2-0.7-0.5-0.8-1.2c-0.1-0.3-0.2-0.8-0.2-1.2c-0.1-0.9-0.2-2-0.8-2.8
				V22c0-0.3,0.4-0.5,0.7-0.8c0.2-0.1,0.4-0.3,0.5-0.4c0.1,0.1,0.3,0.2,0.4,0.3C17.6,21.2,18,21.5,18,21.8z M22.5,11.4
				c-0.1,0.1-0.1,0.1-0.2,0.2c-0.1-0.1-0.2-0.1-0.3-0.2c-0.1-0.1-0.3-0.2-0.3-0.2v-0.1h1.6C23.1,11.2,22.8,11.3,22.5,11.4z
				 M24.5,11.3c-1,0.3-1.9,1-1.9,2.3c0,1.9-0.4,2.5-0.7,2.8c-0.2,0.1-0.3,0.2-0.4,0.2c0.1-0.4,0.2-1.2,0.4-3.3
				c0.1-0.8,0.4-1.4,0.9-1.7C23.2,11.3,23.9,11.3,24.5,11.3z M21.9,11.7c0.1,0.1,0.2,0.1,0.2,0.1c-0.2,0.2-0.4,0.5-0.5,1
				c0-0.1-0.1-0.1-0.1-0.2c-0.1-0.3-0.3-0.5-0.6-0.7c0.1-0.1,0.2-0.2,0.3-0.2c0.1-0.1,0.2-0.1,0.3-0.2
				C21.7,11.5,21.8,11.6,21.9,11.7z M21.5,11.1c0,0.1-0.2,0.2-0.3,0.2c-0.1,0.1-0.3,0.2-0.4,0.3c0,0,0,0-0.1,0
				c-0.3-0.2-0.5-0.4-0.5-0.5V11h1.4C21.5,11.1,21.5,11.1,21.5,11.1z M20.6,11.9c0.3,0.2,0.7,0.4,0.7,0.7c0.1,0.3,0.1,1.4,0,2.5
				l-0.2,1.5h-1v-4.3c0-0.1-0.1-0.1-0.1-0.1c-0.1,0-0.1,0.1-0.1,0.1v4.4h-0.9l-0.2-1.5c-0.1-1.1-0.1-2.2,0-2.5
				c0.1-0.3,0.4-0.5,0.7-0.7c0.2-0.2,0.4-0.3,0.5-0.4C20.2,11.6,20.4,11.8,20.6,11.9z M19.9,11.1c-0.1,0.2-0.3,0.4-0.5,0.5
				c0,0,0,0-0.1,0c-0.1-0.1-0.2-0.2-0.4-0.3c-0.1-0.1-0.3-0.2-0.3-0.2c0-0.1,0-0.1-0.1-0.1H19.9L19.9,11.1z M18.7,11.7
				c0.1,0.1,0.2,0.1,0.3,0.2c-0.2,0.2-0.5,0.4-0.6,0.7c0,0.1-0.1,0.1-0.1,0.2c-0.1-0.4-0.3-0.7-0.5-0.9c0.1-0.1,0.1-0.1,0.2-0.1
				c0.1-0.1,0.2-0.1,0.3-0.2C18.5,11.6,18.6,11.6,18.7,11.7z M18.3,11.2c0,0.1-0.2,0.2-0.3,0.2c-0.1,0.1-0.2,0.1-0.3,0.2
				c-0.1-0.1-0.1-0.1-0.2-0.2c-0.2-0.2-0.5-0.3-0.9-0.3h1.7C18.3,11.1,18.3,11.1,18.3,11.2z M17.4,11.7c0.5,0.3,0.8,0.9,0.9,1.7
				c0.2,2,0.3,2.9,0.4,3.3c-0.1,0-0.3,0-0.5-0.2c-0.3-0.2-0.7-1-0.7-2.8c0-1.3-0.9-2-1.9-2.3C16.1,11.3,16.8,11.3,17.4,11.7z
				 M18.5,17L18.5,17h0.3l0,0h2.4l0,0h0.3c0.1,0,0.1,0,0.1,0l0,0v0.3h-3.1C18.5,17.3,18.5,17,18.5,17z M22,17.5
				c0.1,0,0.1,0.1,0.2,0.2c0.1,0.1,0.1,0.1,0.1,0.1c0,0.1,0,0.1-0.1,0.1C22.2,17.9,22.1,18,22,18h-3.9c-0.1,0-0.1-0.1-0.2-0.2
				c-0.1-0.1-0.1-0.1-0.1-0.1c0.1-0.1,0.1-0.1,0.1-0.1c0.1-0.1,0.1-0.2,0.2-0.2L22,17.5L22,17.5z M23.2,20.7
				c0.1,0.2,0.3,0.3,0.5,0.4c0.3,0.2,0.7,0.4,0.7,0.8V22c-0.5,0.8-0.7,1.9-0.8,2.8c-0.1,0.4-0.1,0.9-0.2,1.2c-0.2,0.7-0.5,1-0.9,1.3
				c0.6-0.6,0.7-1.7,0.7-2.2v-3.1c0-0.1-0.1-0.1-0.1-0.1c-0.1,0-0.1,0.1-0.1,0.1V25c0,0.5-0.1,1.9-0.9,2.2c0-1.1,0-4,0-4.8
				c0-0.2-0.1-0.4-0.2-0.7c0.1-0.3,0.4-0.5,0.7-0.7C22.9,21,23.1,20.9,23.2,20.7z M24.3,21.1c0.1-0.1,0.2-0.1,0.3-0.2
				c0.1-0.1,0.2-0.1,0.3-0.2c0.1,0.1,0.2,0.2,0.3,0.2c0.1,0.1,0.2,0.1,0.2,0.2c-0.2,0.2-0.5,0.4-0.7,0.5
				C24.6,21.5,24.5,21.3,24.3,21.1z M22.5,21c-0.2,0.2-0.5,0.3-0.7,0.5v-2.3c0-0.1-0.1-0.1-0.1-0.1c-0.1,0-0.1,0.1-0.1,0.1v2.3
				c-0.2-0.1-0.4-0.2-0.5-0.4v-1.9c0-0.2,0.2-0.3,0.4-0.4c0.1-0.1,0.2-0.1,0.3-0.2c0.1,0.1,0.2,0.2,0.3,0.2c0.2,0.1,0.4,0.2,0.4,0.4
				C22.5,19.3,22.5,21,22.5,21z M19.9,21.7c-0.1,0-0.1,0.1-0.1,0.1v5.8h-1.4c-0.1,0-0.1-0.1-0.1-0.1c-0.1-0.1-0.2-0.1-0.3-0.1v-5
				c0-0.5,0.5-0.9,1.1-1.2c0.3-0.2,0.7-0.4,0.9-0.7c0.2,0.2,0.5,0.4,0.9,0.7c0.5,0.3,1.1,0.7,1.1,1.2c0,0.9,0,4.1,0,5.1
				c-0.1,0.1-0.2,0.1-0.3,0.1c-0.1,0-0.1,0.1-0.1,0.1h-1.5v-5.8C20.1,21.8,20,21.7,19.9,21.7z M20.3,18.8c0.2,0.1,0.4,0.2,0.4,0.4
				v1.7c-0.3-0.2-0.6-0.4-0.7-0.7c0-0.1-0.1-0.1-0.1-0.1v-0.1v-1c0-0.1-0.1-0.1-0.1-0.1c-0.1,0-0.1,0.1-0.1,0.1v1c0,0.1,0,0.1,0,0.1
				c-0.1,0-0.1,0.1-0.1,0.1c-0.1,0.2-0.2,0.4-0.5,0.5v-1.6c0-0.2,0.2-0.3,0.4-0.4c0.1-0.1,0.2-0.1,0.3-0.2
				C20.1,18.7,20.2,18.8,20.3,18.8z M20.2,18.3h1.5l0,0v0.1c0,0.1-0.2,0.2-0.3,0.2c-0.1,0.1-0.3,0.2-0.4,0.3
				c-0.1-0.1-0.3-0.2-0.4-0.3C20.4,18.5,20.2,18.4,20.2,18.3L20.2,18.3z M19.9,18.3c0,0.1-0.2,0.2-0.3,0.2c-0.1,0.1-0.3,0.2-0.4,0.3
				c-0.1-0.1-0.3-0.2-0.4-0.3c-0.1-0.1-0.2-0.2-0.3-0.2v-0.1L19.9,18.3C19.9,18.3,19.9,18.3,19.9,18.3z M18.6,18.8
				c0.2,0.1,0.4,0.2,0.4,0.4V21L19,21.1c-0.2,0.1-0.4,0.2-0.6,0.4v-2.3c0-0.1-0.1-0.1-0.1-0.1s-0.1,0.1-0.1,0.1v2.2
				c-0.1-0.2-0.4-0.4-0.5-0.5v-1.7c0-0.2,0.2-0.3,0.4-0.4c0.1-0.1,0.2-0.1,0.3-0.2C18.4,18.7,18.5,18.8,18.6,18.8z M15.3,21.7
				c-0.2-0.2-0.4-0.4-0.6-0.5c0.1-0.1,0.2-0.1,0.3-0.2c0.1-0.1,0.2-0.1,0.3-0.2c0.1,0.1,0.2,0.2,0.3,0.2c0.1,0.1,0.2,0.1,0.2,0.2
				C15.6,21.3,15.4,21.5,15.3,21.7z M16,24.9c0.1,0.4,0.1,0.9,0.2,1.3c0.2,0.7,0.5,1.1,1,1.4c-2.2-0.3-2.4-1.9-2.6-3.4
				c-0.1-0.4-0.1-0.7-0.2-1c-0.3-1.1-0.7-1.6-1.7-1.9c-0.4-0.1-0.6-0.2-0.8-0.4c0.3,0.1,0.7,0.1,0.9,0.1C15.5,21,15.7,23.1,16,24.9z
				 M16.9,28h6.2v0.3h-6.2V28z M22.8,27.5c0.4-0.2,0.8-0.7,0.9-1.4c0.1-0.4,0.2-0.8,0.2-1.3c0.2-1.8,0.5-3.8,3.2-3.9
				c0.3,0,0.5-0.1,0.9-0.1c-0.2,0.1-0.4,0.2-0.7,0.3c-1,0.3-1.4,0.8-1.7,1.9c-0.1,0.3-0.1,0.7-0.2,1C25.2,25.6,25,27.1,22.8,27.5z
				 M22.5,17.4h-0.1c-0.1-0.1-0.2-0.2-0.3-0.2h-0.2v-0.3c0.3-0.1,0.7-0.2,1.1-0.4c0.1-0.1,0.1-0.1,0.1-0.1L22.5,17.4z M24.6,11.8
				c0.3-0.2,0.7-0.4,1.1-0.3c0.1,0,0.1-0.1,0.2-0.1c0-0.1-0.1-0.1-0.1-0.2c-0.1,0-0.3-0.1-0.7-0.2h1.6c0,0.1-0.1,0.2-0.2,0.4
				l-2.8,4.2c0.2-0.4,0.2-0.9,0.2-1.5C23.8,13.8,23.9,12.4,24.6,11.8z M15.1,11.1c-0.4,0.1-0.7,0.2-0.7,0.2
				c-0.1,0.1-0.1,0.1-0.1,0.2c0,0.1,0.1,0.1,0.2,0.1c0.4-0.1,0.8,0.1,1.1,0.3c0.7,0.6,0.7,2,0.7,2.3c0,0.7,0.1,1.4,0.4,1.8l-3.1-4.5
				c-0.1-0.1-0.2-0.3-0.2-0.4L15.1,11.1L15.1,11.1z M16.5,14.2c0-0.4-0.1-1.9-0.8-2.6l-0.1-0.1c1.4,0.5,1.5,1.8,1.5,2
				c0,1.5,0.3,2.6,0.9,2.9c0.1,0,0.1,0.1,0.1,0.1c-0.3-0.1-0.5-0.2-0.9-0.4C16.7,15.9,16.5,15.1,16.5,14.2z M17.1,16.5
				c0.4,0.3,0.8,0.4,1.2,0.4v0.3h-0.1c-0.2,0-0.3,0.1-0.4,0.2l0,0l-0.2-0.1l-0.7-1l0,0C16.9,16.3,16.9,16.4,17.1,16.5z M23.3,27.6
				c1.9-0.5,2.1-2,2.3-3.4c0.1-0.4,0.1-0.7,0.2-1c0.2-1.1,0.6-1.5,1.5-1.7c0.8-0.2,1.2-0.7,1.2-0.7v-0.1c0,0,0.1,0,0.1-0.1
				c-0.1,0.4-0.3,0.5-0.7,0.8c-0.4,0.3-1,0.7-1.3,1.5c-0.2,0.6-0.3,1.2-0.4,1.7C25.9,26.2,25.7,27.2,23.3,27.6z M26.5,24.7
				c0.1-0.5,0.2-1.1,0.4-1.7c0.1-0.1,0.1-0.2,0.1-0.2l2.8,1.4c0.2,0.1,0.3,0.2,0.4,0.4c0.1,0.2-0.1,0.4-0.1,0.5l-0.7,1.3
				c-0.1,0.1-0.2,0.2-0.4,0.3c-0.2,0.1-0.3,0-0.5-0.2L26.3,25l0,0C26.4,24.9,26.4,24.8,26.5,24.7z M29.6,26.5L29.6,26.5L29.6,26.5
				l0.4-0.7l0.4-0.7c0.1-0.2,0.4-0.3,0.6-0.2c0.2,0.1,0.3,0.4,0.2,0.6l-0.8,1.4c-0.1,0.1-0.2,0.2-0.3,0.2c-0.1,0.1-0.2,0-0.3-0.1
				C29.5,27,29.5,26.7,29.6,26.5z M33,26.8c0.1,0,0.1,0.1,0.1,0.1s0.1,0,0.1,0.1l0.1,0.1c0.5,0.2,0.7,0.9,0.7,1.1
				c-0.2,0.1-0.9,0.3-1.3-0.1l-1.8-1.3l0.4-0.7L33,26.8z M33.2,29.4c0-0.1,0.1-0.2,0.1-0.2c0-0.2-0.1-0.4-0.2-0.7c0.1,0,0.1,0,0.2,0
				c0.3,0,0.5-0.1,0.7-0.1C33.7,28.7,33.5,29,33.2,29.4z M34.2,27.9c-0.1-0.2-0.1-0.5-0.3-0.8c0.1,0,0.1,0,0.1,0
				c0.2,0,0.4-0.1,0.5-0.1c0.1-0.1,0.2-0.1,0.2-0.2C34.6,27.2,34.4,27.6,34.2,27.9z M34.4,26.8c-0.3,0.2-0.7,0.1-1.1-0.1l-0.2-0.2
				c-1-0.5-1.5-0.7-1.7-0.8l0,0c0.1-0.1,0.2-0.2,0.3-0.3c0.3-0.1,0.8-0.1,1.4,0.3c0.3,0.2,1.1,0.6,1.7,0.4c0,0,0,0,0.1,0
				C34.8,26.4,34.6,26.6,34.4,26.8z M35.3,25.7C35.3,25.6,35.2,25.6,35.3,25.7c-0.1-0.1-0.2,0-0.2,0c-0.1,0.1-0.1,0.2-0.2,0.3
				c-0.4,0.1-1-0.1-1.5-0.4c-0.7-0.4-1.2-0.5-1.6-0.3c-0.1,0-0.1,0.1-0.1,0.1c0-0.2-0.2-0.4-0.4-0.5c-0.2-0.1-0.4-0.1-0.7-0.1
				c0-0.1,0-0.1-0.1-0.2c-0.1-0.2-0.2-0.4-0.5-0.5l-2.8-1.4c0.3-0.5,0.7-0.7,1-0.9c0.1-0.1,0.2-0.1,0.2-0.2l2.3,0.2
				c0.1,0,0.1,0,0.1,0c0.2,0,0.4-0.1,0.6-0.2c0.1-0.1,0.1-0.1,0.1-0.2c0.1,0.2,0.3,0.3,0.5,0.3c0.2,0,0.5-0.1,0.6-0.3l0.1,0.1
				c0.3,0.4,0.8,0.5,1.6,0.5c0.5,0,1.2,0.1,1.5,0.4c0.1,0.1,0.1,0.2,0.1,0.4c0,0.1,0.1,0.1,0.1,0.2H36c0.1,0,0.1,0,0.1,0
				C35.9,23.8,35.6,24.7,35.3,25.7z M31.6,20.9L31.6,20.9v-1.6v-0.1c0-0.2,0.2-0.4,0.4-0.4s0.4,0.2,0.4,0.4v1.7
				c0,0.2-0.2,0.4-0.4,0.4C31.8,21.3,31.6,21.1,31.6,20.9z M34.8,19.1l-0.2,0.1c-1.2,0.1-1.7,0.1-1.9,0.2v-0.1
				c0-0.1,0.1-0.2,0.1-0.4c0.2-0.3,0.7-0.4,1.4-0.4h0.1c0.4,0,1.3-0.1,1.7-0.5l0,0c0.1,0.2,0,0.4-0.1,0.7
				C35.6,18.9,35.3,19.1,34.8,19.1z M36.1,20c-0.2,0.2-0.6,0.7-1.1,0.6l-2.2-0.2v-0.8l1.9-0.2c0.1,0,0.1,0,0.1,0s0.1,0,0.1,0h0.1
				C35.5,19.3,36,19.8,36.1,20z M34.8,20.9c0.5,0.1,0.9,0.2,1.1,0.5c0.1,0.2,0.1,0.4,0.1,0.7l0,0c-0.4-0.4-1.3-0.5-1.7-0.5h-0.1
				c-0.7,0-1.1-0.1-1.4-0.4c-0.1-0.1-0.1-0.3-0.1-0.4v-0.1C32.9,20.7,33.5,20.8,34.8,20.9z M36.2,21.5c-0.1-0.1-0.1-0.2-0.1-0.2
				c-0.1-0.2-0.3-0.4-0.5-0.4c0.3-0.1,0.5-0.4,0.7-0.5C36.2,20.7,36.2,21.1,36.2,21.5z M36.2,18.5c0.1,0.4,0.1,0.8,0.1,1.2
				c-0.1-0.2-0.4-0.4-0.7-0.5c0.2-0.1,0.4-0.2,0.5-0.4C36.1,18.7,36.1,18.6,36.2,18.5z M35,14.3c0.1,0.1,0.1,0.1,0.2,0.1
				c0.1,0,0.1-0.1,0.1-0.1c0.4,0.9,0.6,1.9,0.8,2.9c-0.1,0-0.1-0.1-0.1,0c-0.1,0.1-0.1,0.1-0.1,0.2c0.1,0.2,0,0.3-0.1,0.4
				c-0.2,0.3-0.9,0.4-1.5,0.4c-0.8,0-1.3,0.2-1.6,0.5c0,0.1-0.1,0.1-0.1,0.1c-0.1-0.2-0.4-0.3-0.6-0.3s-0.4,0.1-0.5,0.3
				c-0.1-0.1-0.1-0.1-0.1-0.2c-0.2-0.2-0.4-0.2-0.7-0.2l-6.5,0.5l5.8-2.8c0.3-0.1,0.4-0.3,0.5-0.5c0.1-0.1,0.1-0.1,0.1-0.2
				c0.1,0,0.1,0.1,0.1,0.1c0.1,0,0.1,0.1,0.2,0.1c0.1,0,0.2-0.1,0.4-0.1c0.2-0.1,0.3-0.2,0.3-0.4c0-0.1,0-0.1,0.1-0.1
				c0.1,0,0.1,0.1,0.1,0.1c0.1,0.1,0.2,0.1,0.4,0.1c0.4,0,0.8-0.1,1.2-0.4c0.5-0.3,1.1-0.5,1.5-0.4C34.8,14.1,34.9,14.2,35,14.3z
				 M34.8,13.8c-0.5-0.2-1.4,0.2-1.7,0.4c-0.5,0.3-1,0.4-1.4,0.3c-0.2-0.1-0.3-0.2-0.3-0.3l0,0c0.2-0.1,0.7-0.3,1.9-0.9
				c0.5-0.2,0.9-0.3,1.2-0.1C34.6,13.4,34.8,13.6,34.8,13.8L34.8,13.8z M34.8,13.2c-0.1-0.1-0.1-0.1-0.2-0.2
				c-0.2-0.1-0.4-0.2-0.7-0.1c0.2-0.3,0.3-0.6,0.4-0.8C34.4,12.4,34.6,12.8,34.8,13.2z M33.2,10.6c0.2,0.3,0.4,0.7,0.7,1
				c-0.2-0.1-0.5-0.2-0.9-0.1c0.2-0.2,0.2-0.4,0.2-0.7C33.3,10.8,33.3,10.7,33.2,10.6z M32.8,10.2c0.1,0.2,0.2,0.4,0.2,0.7
				c0,0.3-0.2,0.7-0.6,0.9l-0.2,0.1c-1,0.7-1.4,1-1.5,1.1L30.6,13c-0.1-0.1-0.1-0.2-0.1-0.4c0.1-0.4,0.4-0.7,1-1
				C31.9,11.3,32.7,10.8,32.8,10.2C32.8,10.3,32.8,10.2,32.8,10.2z M30.1,7.6c0.1,0.1,0.1,0.1,0.2,0c0.1-0.1,0.1-0.1,0.1-0.1
				c0.8,0.7,1.5,1.4,2.1,2.1c-0.1,0-0.1,0-0.1,0.1c-0.1,0.1-0.1,0.1,0,0.2s0.1,0.2,0.1,0.4c-0.1,0.4-0.6,0.8-1.1,1
				c-0.7,0.4-1,0.8-1.1,1.3c0,0.1,0,0.1,0,0.1c-0.2-0.1-0.4-0.1-0.7,0.1c-0.2,0.1-0.3,0.3-0.4,0.5c-0.1-0.1-0.1-0.1-0.2-0.1
				c-0.2-0.1-0.5,0-0.7,0.2L23.1,17l3.6-5.3c0.1-0.2,0.2-0.4,0.2-0.5h2.5c0.4,0,0.7-0.3,0.7-0.7v-2c0-0.4-0.3-0.7-0.7-0.7
				c0.1,0,0.1,0,0.1,0c0.1-0.1,0.2-0.2,0.4-0.2C29.9,7.5,30,7.5,30.1,7.6z M29.7,7.2c-0.2,0.1-0.5,0.2-0.7,0.4h-0.9
				c0.3-0.4,0.7-0.7,1-0.7C29.4,7,29.5,7.1,29.7,7.2C29.8,7.2,29.7,7.2,29.7,7.2z M29.4,6.8c-0.1,0-0.2-0.1-0.2-0.1l0,0
				c-0.2,0-0.4,0.1-0.7,0.2c0.1-0.4-0.1-0.7-0.1-0.9C28.7,6.3,29,6.5,29.4,6.8z M28,7.4l-0.2,0.3h-1.3L26.8,7c0-0.1,0.1-0.1,0.1-0.1
				c0-0.1,0.1-0.1,0.1-0.1L27,6.8c0.2-0.5,0.9-0.7,1.1-0.7C28.1,6.3,28.3,6.9,28,7.4z M27.9,5.8c-0.2,0.1-0.5,0.1-0.8,0.3
				c0.1-0.2,0-0.5-0.1-0.7c-0.1-0.1-0.1-0.2-0.2-0.2C27.1,5.4,27.5,5.6,27.9,5.8z M26.7,5.6c0.2,0.3,0.1,0.7-0.1,1.1l-0.1,0.2
				c-0.1,0.3-0.2,0.5-0.4,0.7h-0.8c0.1-0.2,0.2-0.5,0.3-0.8c0.2-0.3,0.6-1.1,0.4-1.7c0,0,0,0,0-0.1C26.4,5.2,26.6,5.4,26.7,5.6z
				 M22.2,4.3c0.2-0.1,0.3-0.1,0.4-0.1c0.1,0,0.1-0.1,0.2-0.1c0-0.1,0-0.1,0-0.1c1,0.2,2,0.4,2.9,0.8c-0.1-0.1-0.1,0-0.1,0.1
				c0,0.1,0.1,0.1,0.1,0.2c0.1,0.1,0.2,0.1,0.3,0.2c0.1,0.4-0.1,1-0.4,1.5c-0.2,0.3-0.3,0.7-0.4,0.9h-3.7c-0.1-0.1-0.1-0.2-0.2-0.3
				l0.1-0.1c0.4-0.3,0.5-0.8,0.5-1.6C21.9,5.2,21.9,4.5,22.2,4.3z M22,4.1L22,4.1c-0.5,0.4-0.5,1.4-0.5,1.7c0,0.7-0.1,1.1-0.4,1.4
				c-0.1,0.1-0.3,0.1-0.4,0.1h-0.1c0.1-0.2,0.1-0.7,0.2-2c0.1-0.5,0.2-0.9,0.5-1.1C21.6,4.1,21.9,4,22,4.1z M21.5,3.8
				c-0.1,0.1-0.2,0.1-0.2,0.1C21,4,20.9,4.2,20.8,4.5c-0.1-0.3-0.4-0.5-0.5-0.7C20.7,3.8,21,3.8,21.5,3.8z M20,3.9
				c0.2,0.2,0.7,0.6,0.6,1.1l-0.2,2.2h-0.8l-0.2-1.9c0-0.1,0-0.1,0-0.1c0-0.1,0-0.1,0-0.1V5.1C19.3,4.5,19.8,4.1,20,3.9z M19.8,3.8
				c-0.2,0.1-0.4,0.4-0.5,0.7c-0.1-0.2-0.2-0.4-0.4-0.5c-0.1-0.1-0.2-0.1-0.2-0.1C18.9,3.8,19.3,3.8,19.8,3.8z M18.6,4.2
				c0.3,0.2,0.4,0.5,0.5,1l0.1,0.2c0.1,1.2,0.1,1.7,0.2,1.9h-0.1c-0.1,0-0.2-0.1-0.4-0.1c-0.3-0.2-0.4-0.7-0.4-1.4
				c0-0.4-0.1-1.3-0.5-1.7l0,0C18.2,4,18.4,4.1,18.6,4.2z M14.1,5.3c0.1-0.1,0.1-0.2,0.3-0.2C14.4,5,14.4,5,14.4,4.9
				c0-0.1-0.1-0.1-0.1-0.1c0.9-0.4,1.9-0.6,2.9-0.8c0,0.1-0.1,0.1,0,0.1c0.1,0.1,0.1,0.1,0.2,0.1c0.2-0.1,0.3,0,0.4,0.1
				c0.3,0.2,0.4,0.9,0.4,1.5c0,0.8,0.2,1.3,0.5,1.6c0.1,0,0.1,0.1,0.1,0.1c-0.1,0.1-0.2,0.2-0.2,0.3h-3.7c-0.1-0.3-0.2-0.5-0.4-0.9
				C14.2,6.3,13.9,5.7,14.1,5.3z M13.8,5.2L13.8,5.2c-0.2,0.5,0.2,1.4,0.4,1.7c0.2,0.3,0.3,0.5,0.3,0.8h-0.8
				c-0.1-0.2-0.2-0.5-0.4-0.9c-0.2-0.5-0.3-0.9-0.1-1.2C13.4,5.4,13.6,5.2,13.8,5.2z M13.2,5.2c-0.1,0.1-0.1,0.1-0.2,0.2
				c-0.1,0.2-0.2,0.4-0.1,0.7c-0.3-0.2-0.6-0.3-0.8-0.4C12.4,5.6,12.8,5.4,13.2,5.2z M11.9,6c0.2,0.1,0.9,0.2,1.1,0.7l0.4,0.9h-1.3
				l-0.1-0.1C12,7.5,12,7.5,12,7.5C12,7.4,12,7.4,12,7.4V7.3C11.7,6.9,11.9,6.3,11.9,6z M11.7,6c-0.1,0.2-0.2,0.5-0.1,0.9
				c-0.2-0.2-0.4-0.2-0.7-0.2c-0.1,0-0.2,0-0.2,0.1C11,6.5,11.3,6.3,11.7,6z M10.8,7C10.8,7,10.9,7,10.8,7c0.3,0,0.7,0.2,0.9,0.6
				l0.1,0.1H11c-0.2-0.2-0.4-0.4-0.7-0.4c0,0,0,0-0.1,0C10.4,7.1,10.6,7,10.8,7z M7.6,9.6c-0.1,0-0.1,0-0.1,0
				c0.7-0.8,1.4-1.5,2.1-2.1c0,0.1,0,0.1,0.1,0.1c0.1,0.1,0.1,0.1,0.2,0s0.2-0.1,0.4-0.1c0.1,0.1,0.2,0.1,0.4,0.2c0.1,0,0.1,0,0.1,0
				C10.4,7.6,10,8,10,8.3v2c0,0.4,0.3,0.7,0.7,0.7h2.5c0,0.2,0.1,0.4,0.2,0.5l3.6,5.3l-5.3-3.6c-0.2-0.2-0.5-0.2-0.7-0.2
				c-0.1,0-0.1,0.1-0.2,0.1c0-0.1,0-0.1,0-0.1c-0.1-0.2-0.2-0.3-0.3-0.4c-0.2-0.1-0.5-0.1-0.7-0.1c0-0.1,0-0.1,0-0.1
				c-0.1-0.4-0.4-0.9-1.1-1.3c-0.5-0.3-1-0.7-1.1-1c-0.1-0.1,0-0.2,0.1-0.4C7.6,9.8,7.6,9.7,7.6,9.6z M7.2,10.2
				C7.2,10.2,7.2,10.3,7.2,10.2c0.1,0.6,0.9,1.1,1.2,1.3c0.5,0.3,0.9,0.7,1,1c0.1,0.2-0.1,0.3-0.1,0.4L9.3,13
				c-0.2-0.1-0.6-0.4-1.7-1.2c-0.4-0.3-0.7-0.7-0.7-1C7,10.6,7.1,10.5,7.2,10.2z M6.7,10.6c0,0.1-0.1,0.2-0.1,0.2
				c0,0.2,0.1,0.4,0.2,0.7c-0.3-0.1-0.7,0.1-0.9,0.1C6.3,11.3,6.5,11,6.7,10.6z M5.8,12.1c0.1,0.2,0.1,0.5,0.3,0.8
				c-0.2-0.1-0.5,0-0.7,0.1c-0.1,0.1-0.2,0.1-0.2,0.2C5.4,12.8,5.6,12.5,5.8,12.1z M5.6,13.3c0.3-0.2,0.7-0.1,1.1,0.1l0.2,0.1
				c1,0.5,1.5,0.7,1.7,0.8l0,0c-0.1,0.1-0.2,0.2-0.3,0.3c-0.3,0.1-0.8,0.1-1.4-0.3C6.6,14,6,13.7,5.5,13.7c-0.1,0-0.2,0-0.3,0.1
				c0,0,0,0-0.1,0C5.2,13.6,5.3,13.4,5.6,13.3z M4.7,14.3C4.7,14.4,4.8,14.4,4.7,14.3c0.1,0.1,0.2,0,0.2,0c0.1-0.1,0.1-0.2,0.2-0.3
				c0.4-0.1,1,0.1,1.5,0.4c0.5,0.3,0.9,0.4,1.2,0.4c0.2,0,0.3-0.1,0.4-0.1c0.1,0,0.1-0.1,0.1-0.1c0,0.2,0.2,0.4,0.4,0.5
				c0.1,0.1,0.2,0.1,0.4,0.1s0.2-0.1,0.3-0.1c0,0.1,0,0.1,0.1,0.2c0.1,0.2,0.2,0.4,0.5,0.5l5.8,2.8l-6.4-0.5
				c-0.3-0.1-0.5,0.1-0.7,0.2c-0.1,0.1-0.1,0.1-0.1,0.2c-0.1-0.2-0.3-0.3-0.5-0.3c-0.2,0-0.5,0.1-0.6,0.3l-0.1-0.1
				c-0.3-0.4-0.8-0.5-1.6-0.5c-0.5,0-1.2-0.1-1.5-0.4c-0.1-0.1-0.1-0.2-0.1-0.4c0-0.1-0.1-0.1-0.1-0.2c-0.1,0-0.1,0-0.1,0
				C4.1,16.2,4.4,15.3,4.7,14.3z M8.4,19.2L8.4,19.2v1.6v0.1c0,0.2-0.2,0.4-0.4,0.4c-0.2,0-0.4-0.2-0.4-0.4v-1.7
				c0-0.2,0.2-0.4,0.4-0.4C8.2,18.7,8.4,19,8.4,19.2z M5.1,20.9l0.2-0.1c1.2-0.1,1.7-0.1,1.9-0.2v0.1c0,0.1-0.1,0.2-0.1,0.4
				c-0.2,0.3-0.7,0.4-1.4,0.4c-0.4,0-1.3,0.1-1.7,0.5l0,0c-0.1-0.2,0-0.4,0.1-0.7C4.3,21.1,4.6,20.9,5.1,20.9z M3.9,20
				c0.2-0.2,0.6-0.7,1.1-0.6l2.2,0.2v0.8l-1.9,0.1c-0.1,0-0.1,0-0.1,0c-0.1,0-0.1,0-0.1,0H5.1C4.5,20.7,4.1,20.2,3.9,20z M5.2,19.1
				c-0.5-0.1-0.9-0.2-1.1-0.5C4,18.4,4,18.2,4,17.9l0,0c0.4,0.4,1.3,0.5,1.7,0.5c0.7,0,1.1,0.1,1.4,0.4c0.1,0.1,0.1,0.3,0.1,0.4v0.1
				C7,19.3,6.5,19.2,5.2,19.1z M3.8,18.5c0.1,0.1,0.1,0.2,0.1,0.2C4,19,4.2,19.1,4.5,19.2c-0.3,0.1-0.5,0.4-0.7,0.5
				C3.8,19.3,3.8,19,3.8,18.5z M3.8,21.5c-0.1-0.4-0.1-0.8-0.1-1.2c0.1,0.2,0.4,0.4,0.7,0.5c-0.2,0.1-0.4,0.2-0.5,0.4
				C3.9,21.4,3.8,21.4,3.8,21.5z M5,25.7C5,25.6,5,25.6,4.9,25.6c-0.1,0-0.1,0.1-0.1,0.1c-0.4-0.9-0.6-1.9-0.8-2.9
				c0.1,0,0.1,0,0.1,0h0.1c0.1-0.1,0.1-0.1,0.1-0.2c-0.1-0.2,0-0.3,0.1-0.4c0.2-0.3,0.9-0.4,1.5-0.4c0.8,0,1.3-0.2,1.6-0.5
				c0-0.1,0.1-0.1,0.1-0.1c0.1,0.2,0.4,0.3,0.6,0.3s0.4-0.1,0.5-0.3c0.1,0.1,0.1,0.1,0.1,0.2c0.2,0.1,0.4,0.2,0.6,0.2
				c0.1,0,0.1,0,0.1,0l2.3-0.2c0.1,0.1,0.2,0.1,0.2,0.2c0.3,0.2,0.7,0.4,0.9,0.9l-2.9,1.4c-0.3,0.1-0.4,0.3-0.5,0.5
				c0.1,0.1,0.1,0.1,0.1,0.2c-0.1,0-0.1-0.1-0.1-0.1c-0.2-0.1-0.4-0.1-0.5,0.1c-0.2,0.1-0.3,0.2-0.3,0.4c0,0.1,0,0.1-0.1,0.1
				c-0.1,0-0.1-0.1-0.1-0.1c-0.4-0.2-1-0.1-1.6,0.3c-0.5,0.3-1.1,0.5-1.5,0.4C5.1,25.9,5.1,25.8,5,25.7z M5.2,26.2
				c0.5,0.2,1.4-0.2,1.7-0.4c0.5-0.3,1-0.4,1.4-0.3c0.2,0.1,0.3,0.2,0.3,0.3l0,0c-0.2,0.1-0.7,0.3-1.9,0.9c-0.5,0.2-0.9,0.3-1.2,0.1
				C5.3,26.6,5.2,26.4,5.2,26.2L5.2,26.2z M5.2,26.8c0.1,0.1,0.1,0.1,0.2,0.2C5.6,27,5.8,27.1,6,27.1c0.1,0,0.1,0,0.1,0
				c-0.2,0.3-0.3,0.6-0.4,0.8C5.6,27.6,5.4,27.2,5.2,26.8z M6.7,29.4c-0.2-0.3-0.4-0.7-0.7-1c0.2,0.1,0.4,0.1,0.7,0.1
				c0.1,0,0.1,0,0.2,0c-0.2,0.2-0.2,0.4-0.2,0.7C6.6,29.2,6.7,29.3,6.7,29.4z M7.2,29.8C7.1,29.6,7,29.4,7,29.1
				c0-0.3,0.2-0.6,0.6-0.9L7.8,28c1-0.7,1.4-0.9,1.5-1.1L9.4,27c0.1,0.1,0.1,0.2,0.1,0.4c-0.1,0.4-0.4,0.7-1,1
				C8.1,28.7,7.3,29.2,7.2,29.8L7.2,29.8z M9.9,32.4c-0.1-0.1-0.1-0.1-0.2,0c-0.1,0.1-0.1,0.1-0.1,0.1c-0.8-0.7-1.5-1.4-2.1-2.1
				c0.1,0,0.1,0,0.1-0.1c0.1-0.1,0.1-0.1,0-0.2c-0.1-0.1-0.1-0.2-0.1-0.4c0.1-0.4,0.6-0.8,1.1-1c0.7-0.4,1-0.8,1.1-1.3
				c0-0.1,0-0.1,0-0.1c0.1,0.1,0.2,0.1,0.3,0.1c0.1,0,0.2-0.1,0.4-0.1c0.2-0.1,0.3-0.3,0.4-0.5c0.1,0.1,0.1,0.1,0.2,0.1
				c0.1,0,0.1,0,0.2,0c0.2,0,0.4-0.1,0.5-0.2l2-1.4l0,0c0.1,0.6,0.3,1.1,0.7,1.5l-1,1.5c-0.2,0.2-0.2,0.5-0.2,0.7
				c0,0.1,0.1,0.1,0.1,0.2c-0.2,0.1-0.4,0.2-0.5,0.4c-0.1,0.2-0.1,0.4-0.1,0.5c0,0.1,0.1,0.1,0.1,0.1c-0.1,0-0.1,0-0.1,0
				c-0.4,0.1-0.9,0.4-1.3,1.1c-0.3,0.5-0.7,1-1,1.1C10.1,32.6,10,32.5,9.9,32.4z M10.2,32.8c0.5-0.1,1.1-0.9,1.3-1.2
				c0.3-0.5,0.7-0.9,1-1c0.2-0.1,0.3,0.1,0.4,0.1l0.1,0.1c-0.1,0.2-0.4,0.6-1.2,1.7c-0.3,0.4-0.7,0.7-1,0.7
				C10.6,33,10.4,32.9,10.2,32.8L10.2,32.8z M10.6,33.3c0.1,0,0.2,0.1,0.2,0.1l0,0c0.2,0,0.4-0.1,0.7-0.2c-0.1,0.4,0.1,0.7,0.1,0.9
				C11.3,33.7,11,33.5,10.6,33.3z M12,32.6l1.3-1.8l0.7,0.4l-0.8,1.7c0,0.1-0.1,0.1-0.1,0.1S13,33.1,13,33.1L13,33.1
				c-0.2,0.5-0.9,0.7-1.1,0.7C11.9,33.7,11.7,33.1,12,32.6z M12.1,34.2c0.2-0.1,0.5-0.1,0.8-0.3c-0.1,0.2,0,0.5,0.1,0.7
				c0.1,0.1,0.1,0.2,0.2,0.2C12.8,34.6,12.4,34.4,12.1,34.2z M13.2,34.4c-0.2-0.3-0.1-0.7,0.1-1.1l0.1-0.2c0.5-1,0.7-1.5,0.8-1.7
				l0,0c0.1,0.1,0.2,0.2,0.3,0.3c0.1,0.3,0.1,0.8-0.3,1.4c-0.2,0.3-0.6,1.2-0.4,1.7c0,0,0,0,0,0.1C13.6,34.8,13.4,34.7,13.2,34.4z
				 M17.4,35.8c-0.1,0-0.1,0.1-0.2,0.1c0,0.1,0,0.1,0,0.1c-1-0.2-2-0.4-2.9-0.8c0.1,0,0.1-0.1,0.1-0.1c0-0.1-0.1-0.1-0.1-0.2
				c-0.1-0.1-0.2-0.1-0.3-0.2c-0.1-0.4,0.1-1,0.4-1.5c0.4-0.7,0.5-1.2,0.3-1.6c0-0.1-0.1-0.1-0.1-0.1c0.2,0,0.4-0.2,0.5-0.4
				c0.1-0.2,0.1-0.4,0.1-0.7c0.1,0,0.1,0,0.2-0.1c0.2-0.1,0.4-0.2,0.5-0.5l0.2-0.4c0.1,0.1,0.2,0.2,0.3,0.2v0.5c0,0.1,0,0.1,0,0.1
				c-0.4,0.2-0.9,0.5-1,1.1c-0.1,0.1-0.1,0.3-0.1,0.5c-0.1,0.4-0.1,0.9-0.3,1C15.1,33,15,33,14.9,33c-0.1-0.1-0.1-0.1-0.1-0.1
				c-0.1-0.1-0.2,0-0.2,0.1c-0.1,0.1,0,0.2,0.1,0.2c0.1,0.1,0.1,0.1,0.2,0.1c0.1,0,0.1,0.1,0.2,0.1c-0.3,0-0.6,0.3-0.6,0.7
				c0,0.4,0.3,0.7,0.7,0.7h3.1c-0.1,0.5-0.1,1-0.4,1.2C17.7,35.8,17.5,35.9,17.4,35.8z M17.9,36C17.9,35.9,18,35.9,17.9,36
				c0.4-0.3,0.5-0.9,0.5-1.4h0.7c0,0.1,0,0.1,0,0.2c-0.1,0.5-0.2,0.9-0.5,1.1C18.4,36,18.1,36,17.9,36z M18.5,36.2
				c0.1-0.1,0.2-0.1,0.2-0.1c0.2-0.1,0.4-0.3,0.4-0.5c0.1,0.3,0.4,0.5,0.5,0.7C19.3,36.2,18.9,36.2,18.5,36.2z M20,36.1
				c-0.2-0.2-0.7-0.6-0.6-1.1l0.1-0.4h1.1v0.1c0,0.1,0,0.1,0,0.1s0,0.1,0,0.1v0.1C20.7,35.5,20.2,35.9,20,36.1z M20.3,36.2
				c0.2-0.1,0.4-0.4,0.5-0.7c0.1,0.2,0.2,0.4,0.4,0.5c0.1,0.1,0.2,0.1,0.2,0.1C21,36.2,20.7,36.2,20.3,36.2z M21.4,35.9
				c-0.3-0.2-0.4-0.5-0.5-1l-0.1-0.2v-0.1h0.7c0.1,0.4,0.1,1.1,0.5,1.4l0,0C21.9,36,21.6,36,21.4,35.9z M25.9,34.7
				c-0.1,0.1-0.1,0.2-0.3,0.2c-0.1,0.1-0.1,0.1-0.1,0.2c0,0.1,0.1,0.1,0.1,0.1c-0.9,0.4-1.9,0.6-2.9,0.8c0-0.1,0.1-0.1,0-0.1
				c-0.1-0.1-0.1-0.1-0.2-0.1c-0.2,0.1-0.3,0-0.4-0.1c-0.2-0.2-0.4-0.7-0.4-1.2h3.1c0.4,0,0.7-0.3,0.7-0.7l0,0
				c0-0.3-0.3-0.6-0.6-0.7c0.1,0,0.2-0.1,0.2-0.1c0.1,0,0.1-0.1,0.2-0.1c0.1-0.1,0.1-0.1,0.1-0.2c-0.1-0.1-0.1-0.1-0.2-0.1
				c0,0-0.1,0-0.1,0.1c-0.1,0.1-0.2,0-0.2,0c-0.2-0.1-0.3-0.6-0.3-1c-0.1-0.2-0.1-0.4-0.1-0.5c-0.2-0.6-0.7-0.9-1-1.1
				c0-0.1,0.1-0.1,0.1-0.1v-0.5c0.2,0,0.3-0.1,0.4-0.1l0.2,0.4c0.1,0.3,0.3,0.4,0.5,0.5c0.1,0.1,0.1,0.1,0.2,0.1
				c0,0.1-0.1,0.1-0.1,0.1c-0.1,0.2-0.1,0.4,0.1,0.5c0.1,0.2,0.4,0.3,0.5,0.4c0,0.1-0.1,0.1-0.1,0.1c-0.2,0.4-0.1,1,0.3,1.6
				C25.8,33.7,26,34.4,25.9,34.7z M26.2,34.8L26.2,34.8c0.2-0.5-0.2-1.4-0.4-1.7c-0.3-0.5-0.4-1-0.3-1.4c0.1-0.2,0.2-0.3,0.3-0.3
				l0,0c0.1,0.2,0.3,0.7,0.9,1.9c0.2,0.5,0.3,0.9,0.1,1.2C26.6,34.7,26.4,34.8,26.2,34.8z M26.8,34.8c0.1-0.1,0.1-0.1,0.2-0.2
				c0.1-0.2,0.2-0.4,0.1-0.7c0.3,0.2,0.6,0.3,0.8,0.4C27.6,34.4,27.2,34.6,26.8,34.8z M28.1,34c-0.2-0.1-0.9-0.2-1.1-0.7l-0.9-2
				l0.7-0.4l1.1,1.5c0.1,0.1,0.1,0.1,0.1,0.1c0,0.1,0.1,0.1,0.1,0.1l0.1,0.1C28.3,33.1,28.1,33.7,28.1,34z M28.3,34
				c0.1-0.2,0.2-0.5,0.1-0.9c0.2,0.2,0.4,0.2,0.7,0.2l0,0c0.1,0,0.2,0,0.2-0.1C29,33.5,28.7,33.7,28.3,34z M29.1,33
				c-0.3,0-0.6-0.2-0.9-0.6l-0.1-0.2c-0.7-1-0.9-1.4-1.1-1.5l0.1-0.1c0.1-0.1,0.2-0.1,0.4-0.1c0.4,0.1,0.7,0.4,1,1
				c0.2,0.3,0.7,1.1,1.3,1.2c0,0,0,0,0.1,0C29.5,32.9,29.4,33,29.1,33z M30.4,32.5C30.4,32.5,30.4,32.5,30.4,32.5
				c-0.1-0.1-0.2-0.1-0.3-0.1c-0.1,0.1-0.2,0.1-0.4,0.1c-0.4-0.1-0.8-0.6-1-1.1c-0.4-0.7-0.8-1-1.3-1.1c-0.1,0-0.1,0-0.1,0
				c0-0.1,0.1-0.1,0.1-0.1c0.1-0.2,0.1-0.4-0.1-0.5c-0.1-0.2-0.3-0.3-0.5-0.4c0.1-0.1,0.1-0.1,0.1-0.2c0.1-0.2,0-0.5-0.2-0.7l-1-1.6
				c0.4-0.4,0.5-0.9,0.7-1.5l2,1.4c0.2,0.1,0.4,0.2,0.5,0.2c0.1,0,0.1,0,0.2,0s0.1-0.1,0.2-0.1c0,0.1,0,0.1,0,0.1
				c0.1,0.2,0.2,0.3,0.3,0.4c0.1,0.1,0.2,0.1,0.4,0.1c0.2,0,0.2-0.1,0.3-0.1c0,0.1,0,0.1,0,0.1c0.1,0.4,0.4,0.9,1.1,1.3
				c0.5,0.3,1,0.7,1.1,1c0.1,0.1,0,0.2-0.1,0.4c-0.1,0.1-0.1,0.1,0,0.2c0.1,0.1,0.1,0.1,0.1,0.1C31.8,31.1,31.2,31.9,30.4,32.5z"/>
		</g>
	</g>
</g>
</svg>
